<svg width="99" height="24" viewBox="0 0 99 24" fill="none" xmlns="http://www.w3.org/2000/svg">
<path d="M86.5288 0C84.5295 0 82.9083 1.60072 82.9083 3.57472C82.9083 5.54894 84.5295 7.14942 86.5288 7.14942C88.5282 7.14942 90.1489 5.54894 90.1489 3.57472C90.1489 1.60072 88.5282 0 86.5288 0ZM94.9085 8.42523C92.9092 8.42523 91.2883 10.0259 91.2883 12C91.2883 13.9744 92.9092 15.5747 94.9085 15.5747C96.9079 15.5747 98.5288 13.9744 98.5288 12C98.5288 10.0259 96.9079 8.42523 94.9085 8.42523ZM78.1491 8.42523C76.1498 8.42523 74.5286 10.0259 74.5286 12C74.5286 13.9744 76.1498 15.5747 78.1491 15.5747C80.1485 15.5747 81.7693 13.9744 81.7693 12C81.7693 10.0259 80.1485 8.42523 78.1491 8.42523ZM86.5288 8.42523C84.5295 8.42523 82.9083 10.0259 82.9083 12C82.9083 13.9744 84.5295 15.5747 86.5288 15.5747C88.5282 15.5747 90.1489 13.9744 90.1489 12C90.1489 10.0259 88.5282 8.42523 86.5288 8.42523ZM86.5288 16.8506C84.5295 16.8506 82.9083 18.4513 82.9083 20.4252C82.9083 22.3996 84.5295 23.9998 86.5288 23.9998C88.5282 23.9998 90.1489 22.3996 90.1489 20.4252C90.1489 18.4513 88.5282 16.8506 86.5288 16.8506Z" fill="#8D1B3D"/>
<path d="M40.7955 10.0872V5.22865H49.8491L51.7545 7.89397e-05H33.3253V24H40.7955V15.332H46.1728L48.0844 10.0872H40.7955ZM57.5156 16.1638L60.4015 6.1663L63.3875 16.1638H57.5156ZM56.6362 7.89397e-05L47.892 24H55.2473L56.1817 20.776H64.6227L65.5989 24H73.1428L64.4028 7.89397e-05H56.6362ZM20.7154 24H28.1851V7.89397e-05H20.715L20.7154 24ZM0 24H7.47022V15.332H12.8478L14.7593 10.0872H7.47022V5.22865H16.5238L18.4295 7.89397e-05H0V24ZM67.3981 0.77007C67.4433 0.657715 67.5047 0.560547 67.5823 0.478775C67.66 0.396787 67.7508 0.333452 67.8547 0.288119C67.9587 0.243221 68.0706 0.220447 68.19 0.220447C68.3096 0.220447 68.4215 0.243221 68.5255 0.288119C68.6292 0.333452 68.7202 0.396787 68.7978 0.478775C68.8755 0.560547 68.9369 0.657715 68.9819 0.77007C69.0271 0.882424 69.0499 1.00454 69.0499 1.13685C69.0499 1.26915 69.0271 1.39149 68.9819 1.50362C68.9369 1.61598 68.8755 1.71314 68.7978 1.79492C68.7202 1.8769 68.6292 1.94046 68.5255 1.98557C68.4215 2.03068 68.3096 2.05324 68.19 2.05324C68.0706 2.05324 67.9587 2.03068 67.8547 1.98557C67.7508 1.94046 67.66 1.8769 67.5823 1.79492C67.5047 1.71314 67.4433 1.61598 67.3981 1.50362C67.3529 1.39149 67.3303 1.26915 67.3303 1.13685C67.3303 1.00454 67.3529 0.882424 67.3981 0.77007ZM67.3871 1.93981C67.4899 2.04283 67.6101 2.12417 67.7475 2.18382C67.8852 2.24369 68.0325 2.27362 68.19 2.27362C68.3475 2.27362 68.495 2.24369 68.6325 2.18382C68.7698 2.12417 68.8902 2.04283 68.993 1.93981C69.0961 1.837 69.1774 1.71683 69.237 1.57932C69.2972 1.44181 69.3268 1.29432 69.3268 1.13685C69.3268 0.979378 69.2972 0.831886 69.237 0.694372C69.1774 0.556859 69.0961 0.436696 68.993 0.333668C68.8902 0.231076 68.7698 0.149521 68.6325 0.0896571C68.495 0.0300097 68.3475 7.89397e-05 68.19 7.89397e-05C68.0325 7.89397e-05 67.8852 0.0300097 67.7475 0.0896571C67.6101 0.149521 67.4899 0.231076 67.3871 0.333668C67.2842 0.436696 67.2029 0.556859 67.143 0.694372C67.0832 0.831886 67.0531 0.979378 67.0531 1.13685C67.0531 1.29432 67.0832 1.44181 67.143 1.57932C67.2029 1.71683 67.2842 1.837 67.3871 1.93981ZM67.9915 0.670729H68.2056C68.2374 0.670729 68.2684 0.672901 68.2987 0.677022C68.3291 0.68136 68.3569 0.689601 68.3823 0.702181C68.4073 0.714979 68.4278 0.732764 68.4436 0.755754C68.4594 0.778963 68.4672 0.80933 68.4672 0.84707C68.4672 0.891101 68.4599 0.925803 68.4451 0.950964C68.4304 0.976341 68.4111 0.994995 68.3868 1.00779C68.3628 1.02037 68.335 1.02861 68.3036 1.03295C68.2718 1.03707 68.2382 1.03924 68.2027 1.03924H67.9915V0.670729ZM67.9915 1.22187H68.1367L68.4703 1.77605H68.7161L68.3696 1.21233C68.4766 1.20192 68.5594 1.16938 68.6185 1.11472C68.6771 1.06028 68.7065 0.97721 68.7065 0.86594C68.7065 0.729727 68.666 0.632558 68.5853 0.574646C68.5043 0.51695 68.3864 0.488101 68.231 0.488101H67.7524V1.77605H67.9915V1.22187Z" fill="#8D1B3D"/>
</svg>
