<svg width="136" height="21" viewBox="0 0 136 21" fill="none" xmlns="http://www.w3.org/2000/svg">
<path d="M0.583374 8.45198C0.583374 7.08446 0.791442 5.91018 1.20758 4.92913C1.62371 3.94808 2.1959 3.14541 2.92414 2.5211C3.66972 1.88194 4.56268 1.41371 5.60302 1.11642C6.64336 0.804269 7.78773 0.648193 9.03614 0.648193C10.3886 0.648193 11.5763 0.826566 12.5993 1.18331C13.6396 1.52519 14.5066 2.00828 15.2002 2.63259C15.8937 3.25689 16.4139 3.99268 16.7607 4.83994C17.1248 5.68721 17.3068 6.61624 17.3068 7.62701C17.3068 9.55938 16.7693 11.1424 15.6943 12.3762C14.6366 13.5951 13.2062 14.4646 11.4029 14.9849L15.0181 16.501C15.8157 16.8429 16.3445 17.3409 16.6046 17.9949C16.8647 18.6489 16.7087 19.5334 16.1365 20.6482L6.64336 16.5679C5.32559 16.0179 4.26791 15.4457 3.47032 14.8511C2.69006 14.2565 2.0832 13.6248 1.64972 12.9559C1.21625 12.287 0.930154 11.5809 0.791442 10.8377C0.65273 10.0945 0.583374 9.29925 0.583374 8.45198ZM8.46395 13.7586L9.58232 14.2491C10.1025 13.8477 10.562 13.4538 10.9608 13.0674C11.3769 12.6809 11.7237 12.2721 12.0011 11.8411C12.2785 11.3951 12.4866 10.9046 12.6253 10.3695C12.7814 9.81951 12.8594 9.18034 12.8594 8.45198C12.8594 6.83177 12.5213 5.63519 11.8451 4.86224C11.1688 4.08929 10.2065 3.70282 8.95811 3.70282C7.70971 3.70282 6.73872 4.08929 6.04516 4.86224C5.36894 5.63519 5.03083 6.83177 5.03083 8.45198C5.03083 9.1952 5.10019 9.83437 5.2389 10.3695C5.37761 10.9046 5.58568 11.3728 5.8631 11.7742C6.15787 12.1755 6.51331 12.5323 6.92945 12.8444C7.36293 13.1566 7.87443 13.4613 8.46395 13.7586Z" fill="white"/>
<path d="M18.2494 11.3059C18.2494 10.0722 18.4401 9.03169 18.8216 8.18442C19.2204 7.33716 19.7665 6.6534 20.4601 6.13314C21.1537 5.61289 21.9773 5.24128 22.9309 5.01832C23.8846 4.78049 24.9249 4.66157 26.0519 4.66157C26.8495 4.66157 27.6384 4.68387 28.4187 4.72846C29.2163 4.77305 30.0226 4.82508 30.8375 4.88454V16.0328H26.6761V12.9559C26.3987 13.5802 26.0953 14.1079 25.7658 14.5389C25.4537 14.9551 25.1156 15.297 24.7515 15.5646C24.3874 15.8173 23.9973 15.9956 23.5811 16.0997C23.165 16.2037 22.7315 16.2558 22.2807 16.2558C21.6391 16.2558 21.067 16.1369 20.5641 15.899C20.0613 15.6612 19.6365 15.3268 19.2897 14.8957C18.9429 14.4646 18.6828 13.9444 18.5095 13.3349C18.3361 12.7255 18.2494 12.0492 18.2494 11.3059ZM23.9712 13.5356C24.3874 13.5356 24.7515 13.3944 25.0636 13.112C25.393 12.8295 25.6791 12.4282 25.9219 11.9079C26.1646 11.3728 26.3814 10.7337 26.5721 9.99044C26.7628 9.24723 26.9362 8.41482 27.0923 7.49323C26.8495 7.4635 26.5894 7.44121 26.312 7.42634C26.0519 7.39661 25.7918 7.38175 25.5318 7.38175C24.3354 7.38175 23.4944 7.61215 23.0089 8.07294C22.5408 8.51887 22.3067 9.16547 22.3067 10.0127C22.3067 10.4884 22.3414 10.9418 22.4107 11.3728C22.4801 11.789 22.5841 12.1606 22.7228 12.4877C22.8789 12.8147 23.0609 13.0748 23.269 13.268C23.4771 13.4464 23.7112 13.5356 23.9712 13.5356Z" fill="white"/>
<path d="M32.4463 7.60472C32.4463 7.41148 32.4463 7.19594 32.4463 6.95812C32.4637 6.70542 32.481 6.46016 32.4983 6.22233C32.5157 5.96964 32.5417 5.73181 32.5764 5.50884C32.611 5.27101 32.6457 5.06291 32.6804 4.88454H34.527V3.30148C34.7697 3.07852 35.0558 2.86298 35.3853 2.65488C35.7321 2.44678 36.0875 2.25355 36.4516 2.07517C36.8331 1.8968 37.2145 1.74072 37.596 1.60695C37.9948 1.47317 38.3589 1.37655 38.6884 1.31709V5.1521C39.5206 5.04804 40.2835 4.98116 40.9771 4.95143C41.6707 4.90683 42.4076 4.88454 43.1878 4.88454C43.1878 5.1521 43.1705 5.39736 43.1358 5.62032C43.1185 5.84329 43.0838 6.05882 43.0318 6.26692C42.9798 6.47502 42.9191 6.69056 42.8497 6.91352C42.7804 7.12162 42.7023 7.35202 42.6156 7.60472C42.0088 7.60472 41.4019 7.59728 40.795 7.58242C40.2055 7.56755 39.5033 7.53039 38.6884 7.47094V11.6404C38.6884 12.3836 38.9051 12.889 39.3386 13.1566C39.7894 13.4092 40.3096 13.5356 40.8991 13.5356C41.6273 13.5356 53.995 13.6694 54.7926 13.5356C54.7926 13.714 55.3587 14.0838 55.324 14.3217C55.3067 14.5446 54.5257 14.2879 54.4737 14.5257C54.4217 14.7487 55.9075 14.6727 55.8555 14.8957C55.8035 15.1038 57.3206 16.1071 57.2686 16.2558C56.9044 16.3747 42.0375 16.2558 41.2934 16.2558C40.6557 16.2558 40.2229 16.2558 39.7027 16.2558C38.0208 16.2558 36.7377 15.9362 35.8534 15.297C34.9691 14.643 34.527 13.5951 34.527 12.1532V7.60472H32.4463Z" fill="white"/>
<path d="M53.2372 11.3059C53.2372 10.0722 53.428 9.03169 53.8094 8.18442C54.2082 7.33716 54.7544 6.6534 55.448 6.13314C56.1415 5.61289 56.9651 5.24128 57.9188 5.01832C58.8724 4.78049 59.9128 4.66157 61.0398 4.66157C61.8374 4.66157 62.6263 4.68387 63.4066 4.72846C64.2042 4.77305 65.0104 4.82508 65.8254 4.88454V16.0328H61.664V12.9559C61.3866 13.5802 61.0831 14.1079 60.7537 14.5389C60.4416 14.9551 60.1035 15.297 59.7394 15.5646C59.3753 15.8173 58.9851 15.9956 58.569 16.0997C58.1529 16.2037 57.7194 16.2558 57.2686 16.2558C56.627 16.2558 56.0548 16.1369 55.552 15.899C55.0492 15.6612 54.6244 15.3268 54.2776 14.8957C53.9308 14.4646 53.6707 13.9444 53.4973 13.3349C53.3239 12.7255 53.2372 12.0492 53.2372 11.3059ZM58.9591 13.5356C59.3753 13.5356 59.7394 13.3944 60.0515 13.112C60.3809 12.8295 60.667 12.4282 60.9098 11.9079C61.1525 11.3728 61.3692 10.7337 61.56 9.99044C61.7507 9.24723 61.9241 8.41482 62.0801 7.49323C61.8374 7.4635 61.5773 7.44121 61.2999 7.42634C61.0398 7.39661 60.7797 7.38175 60.5196 7.38175C59.3232 7.38175 58.4823 7.61215 57.9968 8.07294C57.5287 8.51887 57.2946 9.16547 57.2946 10.0127C57.2946 10.4884 57.3293 10.9418 57.3986 11.3728C57.468 11.789 57.572 12.1606 57.7107 12.4877C57.8668 12.8147 58.0488 13.0748 58.2569 13.268C58.465 13.4464 58.699 13.5356 58.9591 13.5356Z" fill="white"/>
<path d="M71.7075 4.88454C71.8289 5.64262 71.9156 6.31895 71.9676 6.91352C72.037 7.49323 72.0716 8.09524 72.0716 8.71954C72.7305 7.36689 73.5108 6.35611 74.4124 5.68721C75.3314 5.00345 76.2677 4.66157 77.2213 4.66157C77.3254 5.16696 77.4034 5.73924 77.4554 6.37841C77.5074 7.00271 77.5334 7.61215 77.5334 8.20672C76.4758 8.20672 75.6001 8.29591 74.9066 8.47428C74.2304 8.65265 73.6842 8.97224 73.268 9.43303C72.8692 9.87896 72.5745 10.4958 72.3838 11.2836C72.2104 12.0715 72.1063 13.0822 72.0716 14.316V16.0328H67.9103V8.89791C67.9103 8.1101 67.8756 7.41148 67.8063 6.80204C67.7542 6.1926 67.7022 5.55343 67.6502 4.88454H71.7075Z" fill="white"/>
<path d="M78.5699 13.1343C80.0611 12.1681 81.3182 11.3282 82.3411 10.6147C83.3642 9.90126 84.1878 9.26209 84.812 8.69725C85.4362 8.1324 85.8783 7.61215 86.1384 7.13649C86.4158 6.66083 86.5545 6.18517 86.5545 5.70951C86.5545 5.02575 86.3031 4.52036 85.8003 4.19334C85.2975 3.86633 84.6559 3.70282 83.8756 3.70282C83.2168 3.70282 82.4885 3.77714 81.6909 3.92579C80.9107 4.07443 80.1044 4.28996 79.2722 4.57239C79.2028 4.40888 79.1334 4.20078 79.0641 3.94808C79.0121 3.68052 78.9601 3.40553 78.908 3.12311C78.856 2.82582 78.8127 2.53597 78.778 2.25355C78.7607 1.97112 78.752 1.72586 78.752 1.51776C79.723 1.22047 80.72 1.00494 81.743 0.87116C82.766 0.722516 83.6936 0.648193 84.5259 0.648193C85.6009 0.648193 86.5372 0.767108 87.3348 1.00494C88.1324 1.2279 88.7913 1.54006 89.3114 1.94139C89.8489 2.32787 90.2477 2.78866 90.5078 3.32378C90.7679 3.8589 90.898 4.43117 90.898 5.04061C90.898 5.72437 90.7419 6.39327 90.4298 7.0473C90.135 7.70133 89.6322 8.34793 88.9213 8.9871C88.2278 9.6114 87.3175 10.2431 86.1904 10.8823C85.0634 11.5215 83.6676 12.1681 82.003 12.8221H91.2621V16.0328H78.5699V13.1343Z" fill="white"/>
<path d="M92.4861 8.42969C92.4861 7.18108 92.6595 6.07369 93.0063 5.1075C93.3531 4.14132 93.8472 3.33121 94.4888 2.67718C95.1477 2.00828 95.9366 1.50289 96.8555 1.16101C97.7918 0.819134 98.8409 0.648193 100.003 0.648193C101.164 0.648193 102.205 0.819134 103.124 1.16101C104.06 1.50289 104.849 2.00828 105.49 2.67718C106.149 3.33121 106.652 4.14132 106.999 5.1075C107.346 6.07369 107.519 7.18108 107.519 8.42969C107.519 9.69316 107.346 10.8154 106.999 11.7965C106.652 12.7626 106.149 13.5802 105.49 14.2491C104.849 14.9031 104.219 15.3421 103.262 15.9543C102.337 16.4718 101.164 16.8727 100.003 16.8727C98.8409 16.8727 97.841 16.4645 96.8844 15.9543C95.9278 15.4441 95.0477 14.8319 94.4888 14.2491C93.8472 13.5802 93.3531 12.7626 93.0063 11.7965C92.6595 10.8154 92.4861 9.69316 92.4861 8.42969ZM100.003 13.5053C100.575 13.5053 101.052 13.3276 101.455 12.9951C101.902 12.6264 102.093 12.4268 102.395 11.9079C102.638 11.4917 102.811 10.9938 102.916 10.4141C103.02 9.81951 103.072 9.15804 103.072 8.42969C103.072 6.97298 102.837 5.82099 102.369 4.97372C101.919 4.12645 101.13 3.70282 100.003 3.70282C98.8755 3.70282 98.0779 4.12645 97.6098 4.97372C97.159 5.82099 96.9336 6.97298 96.9336 8.42969C96.9336 9.15804 96.9856 9.81951 97.0896 10.4141C97.1937 10.9938 97.367 11.4917 97.6098 11.9079C97.8525 12.3242 98.1599 12.689 98.5851 12.9951C99.0102 13.3013 99.4304 13.5053 100.003 13.5053Z" fill="white"/>
<path d="M108.957 13.1343C110.449 12.1681 111.706 11.3282 112.729 10.6147C113.752 9.90126 114.575 9.26209 115.2 8.69725C115.824 8.1324 116.266 7.61215 116.526 7.13649C116.803 6.66083 116.942 6.18517 116.942 5.70951C116.942 5.02575 116.691 4.52036 116.188 4.19334C115.685 3.86633 115.043 3.70282 114.263 3.70282C113.604 3.70282 112.876 3.77714 112.079 3.92579C111.298 4.07443 110.492 4.28996 109.66 4.57239C109.59 4.40888 109.521 4.20078 109.452 3.94808C109.4 3.68052 109.348 3.40553 109.296 3.12311C109.244 2.82582 109.2 2.53597 109.166 2.25355C109.148 1.97112 109.14 1.72586 109.14 1.51776C110.111 1.22047 111.108 1.00494 112.131 0.87116C113.154 0.722516 114.081 0.648193 114.913 0.648193C115.988 0.648193 116.925 0.767108 117.722 1.00494C118.52 1.2279 119.179 1.54006 119.699 1.94139C120.237 2.32787 120.635 2.78866 120.895 3.32378C121.155 3.8589 121.286 4.43117 121.286 5.04061C121.286 5.72437 121.129 6.39327 120.817 7.0473C120.523 7.70133 120.02 8.34793 119.309 8.9871C118.615 9.6114 117.705 10.2431 116.578 10.8823C115.451 11.5215 114.055 12.1681 112.391 12.8221H121.65V16.0328H108.957V13.1343Z" fill="white"/>
<path d="M123.308 13.1343C124.799 12.1681 126.056 11.3282 127.079 10.6147C128.102 9.90126 128.926 9.26209 129.55 8.69725C130.174 8.1324 130.616 7.61215 130.876 7.13649C131.154 6.66083 131.292 6.18517 131.292 5.70951C131.292 5.02575 131.041 4.52036 130.538 4.19334C130.035 3.86633 129.394 3.70282 128.614 3.70282C127.955 3.70282 127.226 3.77714 126.429 3.92579C125.649 4.07443 124.842 4.28996 124.01 4.57239C123.941 4.40888 123.871 4.20078 123.802 3.94808C123.75 3.68052 123.698 3.40553 123.646 3.12311C123.594 2.82582 123.551 2.53597 123.516 2.25355C123.499 1.97112 123.49 1.72586 123.49 1.51776C124.461 1.22047 125.458 1.00494 126.481 0.87116C127.504 0.722516 128.432 0.648193 129.264 0.648193C130.339 0.648193 131.275 0.767108 132.073 1.00494C132.87 1.2279 133.529 1.54006 134.049 1.94139C134.587 2.32787 134.986 2.78866 135.246 3.32378C135.506 3.8589 135.636 4.43117 135.636 5.04061C135.636 5.72437 135.48 6.39327 135.168 7.0473C134.873 7.70133 134.37 8.34793 133.659 8.9871C132.966 9.6114 132.055 10.2431 130.928 10.8823C129.801 11.5215 128.406 12.1681 126.741 12.8221H136V16.0328H123.308V13.1343Z" fill="white"/>
<path d="M99.2751 8.35349C99.8334 7.81753 100.739 7.81753 101.297 8.35349C101.855 8.88946 101.855 9.75843 101.297 10.2944L101.191 10.3964C100.632 10.9324 99.7271 10.9324 99.1688 10.3964C98.6105 9.86047 98.6105 8.9915 99.1688 8.45553L99.2751 8.35349Z" fill="white"/>
</svg>
