<svg width="41" height="31" viewBox="0 0 41 31" fill="none" xmlns="http://www.w3.org/2000/svg">
<g clip-path="url(#clip0_270506_2471)">
<path fill-rule="evenodd" clip-rule="evenodd" d="M-2.16656 0.648132H42.8334V30.6481H-2.16656V0.648132Z" fill="#199D00"/>
<path fill-rule="evenodd" clip-rule="evenodd" d="M9.17118 9.15C9.12431 9.85312 9.05399 11.0836 9.65751 11.2125C10.3782 11.2828 9.97978 9.99375 10.2434 9.75937C10.2903 9.64219 10.3782 9.64219 10.3841 9.78867V10.8844C10.3841 11.2359 10.6184 11.3414 10.7942 11.4117C10.9817 11.4 11.1106 11.4117 11.1809 11.5875L11.2747 13.4801C11.2747 13.4801 11.7083 13.609 11.7317 12.4195C11.7493 11.7164 11.5911 11.1363 11.6849 11.0016C11.6849 10.8668 11.8606 10.8609 11.9778 10.9254C12.1653 11.0543 12.2474 11.2184 12.5403 11.1598C12.9856 11.0309 13.2552 10.8141 13.261 10.4742C13.2522 10.1402 13.1827 9.81066 13.0559 9.50156C13.0794 9.44297 12.9739 9.28476 12.9974 9.22617C13.0735 9.35508 13.1966 9.34336 13.22 9.22617C13.1438 8.98008 13.0267 8.73984 12.8392 8.64023C12.6809 8.49961 12.4466 8.52304 12.3704 8.81601C12.3235 9.15 12.4876 9.54258 12.7278 9.8707C12.7806 9.99375 12.8509 10.2047 12.8216 10.3922C12.6927 10.4684 12.5638 10.4332 12.4524 10.3219C12.4524 10.3219 12.1009 10.0582 12.1009 9.99375C12.1946 9.39609 12.1184 9.32578 12.0657 9.15586C12.0306 8.92734 11.9192 8.85117 11.8313 8.69883C11.7434 8.60508 11.6263 8.60508 11.5677 8.69883C11.4095 8.96836 11.4856 9.54843 11.597 9.81211C11.679 10.0523 11.802 10.2047 11.7434 10.2047C11.6966 10.3395 11.597 10.3043 11.5208 10.1461C11.435 9.81315 11.3937 9.47034 11.3977 9.12656C11.3684 8.85703 11.3333 8.28281 11.1517 8.13047C11.0462 7.98984 10.888 8.06015 10.8294 8.18906C10.8139 8.45082 10.8198 8.71341 10.847 8.97422C10.9642 9.40781 11.0052 9.79453 11.0638 10.234C11.0813 10.8258 10.7239 10.4918 10.7415 10.193C10.8184 9.81729 10.8124 9.42937 10.7239 9.05625C10.6653 8.9039 10.6009 8.86875 10.4544 8.89219C10.3431 8.89219 10.0559 9.20273 9.97392 9.73008C9.97392 9.73008 9.9036 9.99961 9.87431 10.2398C9.83329 10.5094 9.65751 10.7086 9.5286 10.2047C9.42314 9.83554 9.35282 8.93906 9.17704 9.15H9.17118Z" fill="white"/>
<path fill-rule="evenodd" clip-rule="evenodd" d="M11.1341 12.0269L9.25909 12.9293C9.27667 12.5016 10.1439 11.734 10.7415 11.7281C11.1224 11.734 11.0286 11.8746 11.1282 12.0269H11.1341Z" fill="white"/>
<path fill-rule="evenodd" clip-rule="evenodd" d="M10.8001 12.6131C9.8157 15.1619 13.1145 15.5193 13.4837 12.7185C13.5188 12.6013 13.6594 12.49 13.6829 12.6775C13.6067 15.2146 11.1282 15.3845 10.7063 14.5877C10.6071 14.3135 10.5575 14.0238 10.5598 13.7322C10.5012 13.2341 10.2376 13.4275 10.1966 13.9197C10.1555 14.1951 10.1673 14.2713 10.1673 14.5349C10.2962 16.5388 13.4895 15.6775 14.011 14.0252C14.2864 13.1111 13.9641 12.4373 14.1106 12.4373C14.427 12.7771 14.8723 12.4841 14.9719 12.367C15.013 12.3084 15.1184 12.2674 15.1887 12.3435C15.4348 12.5193 15.8684 12.4373 15.9622 12.1267C16.0149 11.8162 16.0559 11.4998 16.0676 11.1775C15.8626 11.2361 15.7161 11.2771 15.6985 11.365L15.6575 11.6345C15.6399 11.7224 15.47 11.7224 15.4583 11.6111C15.3821 11.2595 15.0657 11.2185 14.8723 11.7576C14.7493 11.8631 14.5149 11.8865 14.4915 11.7283C14.5208 11.365 14.3743 11.3181 14.0813 11.4881L13.8001 9.36696C13.9173 9.36696 14.0344 9.45485 14.1458 9.31423C14.0286 8.93337 13.7649 8.15993 13.6184 8.10134C13.554 8.0193 13.4954 8.07204 13.4016 8.09548C13.2493 8.14235 13.1087 8.27126 13.1555 8.52907C13.3313 9.63063 13.4485 10.4685 13.6302 11.5759C13.6594 11.699 13.554 11.8689 13.4134 11.8513C13.179 11.6931 13.1204 11.3709 12.7102 11.3826C12.4173 11.3826 12.0891 11.7049 12.0481 12.0095C11.9954 12.2556 11.9778 12.5193 12.0481 12.7302C12.2532 12.9763 12.4993 12.9529 12.7161 12.9002C12.8919 12.824 13.0384 12.6482 13.1028 12.6892C13.1438 12.742 13.1087 13.3279 12.2649 13.7732C11.7552 14.0076 11.345 14.0545 11.1282 13.6384C10.9934 13.3748 11.1399 12.3845 10.8001 12.6131Z" fill="white"/>
<path fill-rule="evenodd" clip-rule="evenodd" d="M15.0014 10.0232C15.1948 9.95288 16.1323 8.87476 16.1323 8.87476L15.9916 8.75757C15.9389 8.71656 15.9448 8.66968 15.9916 8.62866C16.226 8.48804 16.1498 8.19507 16.0327 8.05445C15.9531 8.01566 15.8656 7.996 15.7771 7.99702C15.6886 7.99803 15.6015 8.0197 15.5229 8.06031C15.3588 8.21851 15.3237 8.47046 15.4526 8.62281C15.5756 8.6814 15.6987 8.81031 15.6166 8.88062C15.2299 9.29077 14.1811 9.99976 14.3041 10.0232C14.3276 10.0584 14.978 10.0584 14.9956 10.0232H15.0014ZM9.31782 13.8318C8.96626 14.3943 8.93696 15.2322 9.13032 15.4841C9.23579 15.6013 9.40571 15.6541 9.52876 15.613C9.75141 15.5193 9.85102 15.0681 9.79829 14.9099C9.72211 14.7927 9.66352 14.7751 9.58735 14.8689C9.43501 15.1853 9.37055 14.9685 9.35297 14.7927C9.33618 14.495 9.3519 14.1964 9.39985 13.9021C9.44087 13.656 9.39985 13.7263 9.31782 13.8318ZM24.3823 12.9353C24.0424 12.197 23.5678 11.4705 23.4213 11.1951C22.9647 10.4732 22.48 9.76956 21.9682 9.0857C21.6049 8.6521 22.5659 9.26734 21.851 8.40015L21.3295 7.9607C21.2123 7.87867 20.9311 7.72632 20.8842 7.97242C20.8608 8.19507 20.8725 8.31226 20.9077 8.4939C20.937 8.61109 21.1127 8.81616 21.2006 8.93335C22.4019 10.5244 23.4569 12.2208 24.353 14.0017C24.5053 13.9255 24.4702 13.0584 24.3823 12.9353Z" fill="white"/>
<path fill-rule="evenodd" clip-rule="evenodd" d="M22.8882 15.3846C22.8179 15.4608 23.0522 15.7831 23.3569 15.7831C23.8608 15.7245 24.3061 15.4432 24.7163 14.6932C24.883 14.4437 24.9893 14.1589 25.0268 13.8612C25.0765 12.4388 24.9624 11.0154 24.687 9.61901C24.6694 9.50182 24.687 9.3612 24.6987 9.32604C24.7339 9.28503 24.8452 9.32604 24.9038 9.22643C24.9917 9.13854 24.6694 8.40612 24.4936 8.13073C24.435 8.00182 24.4057 7.91979 24.3003 8.14245C24.173 8.38813 24.1124 8.6629 24.1245 8.93932C24.3647 10.6092 24.4409 12.0682 24.5932 13.7382C24.6108 13.9022 24.5874 14.1366 24.4761 14.2303C24.0339 14.7226 23.4928 15.116 22.8882 15.3846ZM29.7143 15.3788C29.3511 15.5897 29.3511 15.8299 29.644 15.8358C30.1479 15.7772 30.7456 15.7362 31.1557 15.1151C31.3006 14.8226 31.3844 14.5036 31.4018 14.1776C31.4756 12.7771 31.3832 11.3728 31.1264 9.99401C31.1147 9.87682 31.062 9.60143 31.0796 9.56628C31.1147 9.48424 31.2788 9.57213 31.3374 9.47838C31.4194 9.39049 30.9096 8.73424 30.728 8.45299C30.6694 8.32409 30.646 8.24206 30.5346 8.46471C30.4166 8.71266 30.3797 8.99148 30.4292 9.26159C30.6987 11.078 30.8979 12.4374 30.9389 14.0428C30.9155 14.1952 30.9096 14.2772 30.8393 14.4706C30.6811 14.6698 30.5054 14.9276 30.3413 15.0507C30.1772 15.1678 29.8257 15.285 29.7143 15.3788Z" fill="white"/>
<path fill-rule="evenodd" clip-rule="evenodd" d="M29.9838 13.7557C29.9838 13.3279 29.9897 12.9646 29.978 12.6424C29.9742 12.3694 29.9143 12.1002 29.8022 11.8514C29.6967 11.6111 29.7612 11.4178 29.7084 11.16C29.6616 10.9021 29.6733 10.5154 29.603 10.2166C29.5795 10.0994 29.5209 9.71855 29.5385 9.67753C29.5678 9.5955 29.6791 9.67753 29.7377 9.58378C29.8198 9.49589 29.4448 8.52909 29.2573 8.2537C29.1928 8.13065 29.0639 8.17167 28.9174 8.37089C28.7709 8.50565 28.8237 8.80448 28.8823 9.09159C29.2397 10.9842 29.5151 12.701 29.4565 14.4998C29.433 14.6521 29.9838 14.0428 29.9838 13.7557ZM27.3061 11.4119C27.0776 11.4002 26.603 10.9607 26.4623 10.7088C26.4393 10.6472 26.4295 10.5815 26.4335 10.5159C26.4376 10.4502 26.4554 10.3862 26.4858 10.3279C26.5737 10.2693 26.7026 10.2107 26.8022 10.2693C26.8022 10.2693 26.9018 10.41 26.8842 10.4275C27.0014 10.4861 27.06 10.4568 27.0717 10.4041C27.0776 10.3162 27.0366 10.2635 27.0366 10.1697C27.0893 9.90019 27.3881 9.85917 27.5053 10.0291C27.5873 10.1346 27.6225 10.3514 27.6284 10.4978C27.6284 10.574 27.5112 10.4861 27.435 10.4978C27.3705 10.5213 27.353 10.6033 27.3471 10.6736C27.3354 10.867 27.3119 11.1775 27.3061 11.406V11.4119ZM23.0991 14.2244C23.1577 13.6502 23.0756 12.6248 23.0698 12.285C23.0384 11.4109 22.9661 10.5389 22.853 9.67167C22.7827 9.17948 23.0522 9.7244 23.017 9.43729C22.9291 8.95097 22.6596 8.61698 22.3373 8.17753C22.2377 8.03105 22.2377 8.00175 22.0795 8.21269C21.9037 8.60526 22.0561 8.88065 22.103 9.1912C22.3315 10.199 22.4662 11.1248 22.5307 12.0447C22.5982 13.0003 22.606 13.9592 22.5541 14.9158C22.7299 14.9217 22.9994 14.6404 23.0991 14.2244Z" fill="white"/>
<path fill-rule="evenodd" clip-rule="evenodd" d="M30.7631 13.3045C30.3588 12.6249 29.7553 11.8983 29.5912 11.6229C29.0479 10.8642 28.4772 10.1254 27.8803 9.40806C27.3822 8.88072 28.1146 9.32017 27.7865 8.91001C27.5111 8.61118 27.435 8.51158 27.1947 8.32994C27.0775 8.25376 27.0072 8.10728 26.9603 8.35923C26.9417 8.57747 26.9377 8.79672 26.9486 9.01548C26.9486 9.11509 27.0541 9.30845 27.1478 9.42564C28.3607 10.9198 29.6908 12.4432 30.7572 14.3592C30.9096 14.2831 30.8568 13.4217 30.7572 13.3045H30.7631Z" fill="white"/>
<path fill-rule="evenodd" clip-rule="evenodd" d="M12.5169 12.0563C12.4876 12.1091 12.4232 12.1735 12.4466 12.238C12.4876 12.2966 12.5287 12.3141 12.599 12.3141C12.6634 12.3141 12.7572 12.3317 12.7747 12.2966C12.8099 12.2555 12.8333 12.1794 12.8099 12.1032C12.7396 11.9274 12.5521 11.9977 12.5169 12.0563Z" fill="#1BA400"/>
<path fill-rule="evenodd" clip-rule="evenodd" d="M26.0873 21.8886C26.6263 21.9121 26.9779 21.9179 27.4525 21.9707L28.015 21.9121C28.6361 21.8535 28.6595 22.7968 28.6595 22.7968C28.6595 23.3535 28.4427 23.3828 28.1674 23.4414C28.0092 23.4648 27.933 23.3476 27.8451 23.2304C27.7126 23.2729 27.5714 23.281 27.4349 23.2539C27.2064 23.2421 26.9838 23.2421 26.7611 23.2246C26.5267 23.207 26.3978 23.2539 26.1576 23.2304C26.1107 23.3066 26.0404 23.4121 25.8998 23.3828C25.7826 23.3652 25.6361 23.0312 25.6771 22.7675C25.765 22.58 25.7357 22.6445 25.7357 22.5625C23.5326 22.5039 21.3119 22.4043 19.1556 22.4336C17.4681 22.4394 15.8041 22.5097 14.1342 22.58C13.2435 22.5683 12.5638 22.4277 12.0951 21.7422C12.142 21.7422 14.3685 21.8652 15.0189 21.8242C16.2201 21.8125 17.3217 21.7129 18.5463 21.6777C20.9603 21.7187 23.3568 21.7187 25.7709 21.8886C25.5365 21.7304 25.5365 21.3613 25.8881 21.2675C25.9174 21.2441 25.9349 21.4492 25.9877 21.4433C26.2748 21.4257 26.1459 21.8125 26.0873 21.8886ZM16.3842 8.57614C16.0209 9.6191 16.5951 10.7675 16.9935 10.6562C17.2865 10.7734 17.4623 10.2226 17.5795 9.62496C17.6674 9.45504 17.726 9.43746 17.767 9.52535C17.7552 10.3222 17.8256 10.5039 18.0306 10.7441C18.4877 11.0957 18.8685 10.791 18.8978 10.7617L19.2494 10.4043C19.3314 10.3164 19.4369 10.3164 19.5482 10.3867C19.6595 10.4863 19.642 10.6562 19.8763 10.7734C20.0756 10.8554 20.4916 10.7968 20.5912 10.6269C20.7201 10.3984 20.7552 10.3222 20.8138 10.2402C20.9076 10.1172 21.0658 10.1699 21.0658 10.2109C21.0482 10.2812 20.9545 10.3457 21.0189 10.4746C21.1361 10.5566 21.1595 10.5039 21.224 10.4863C21.4584 10.3691 21.6342 9.8652 21.6342 9.8652C21.64 9.6777 21.5345 9.68942 21.4642 9.73629L21.2826 9.85934C21.1654 9.87692 20.9486 9.95309 20.8373 9.78317C20.726 9.58395 20.726 9.29684 20.6439 9.09176C20.6439 9.08004 20.4916 8.76949 20.6322 8.75192C20.7025 8.76364 20.849 8.80465 20.8724 8.6816C20.9427 8.55856 20.7201 8.21285 20.5619 8.03707C20.4271 7.89059 20.2396 7.87301 20.058 8.02535C19.9291 8.14254 19.9467 8.27145 19.9232 8.39449C19.901 8.48267 19.9 8.57487 19.9204 8.6635C19.9408 8.75212 19.9819 8.83464 20.0404 8.90426C20.1693 9.15035 20.3978 9.47262 20.3217 9.92965C20.3217 9.92965 20.1869 10.1406 19.9525 10.1113C19.8529 10.0937 19.6947 10.0527 19.6127 9.41988C19.5482 8.95113 19.6244 8.28317 19.4252 7.97262C19.349 7.77926 19.2963 7.59762 19.1205 7.91988C19.0736 8.04879 18.8685 8.24215 19.015 8.63473C19.1536 8.9885 19.1941 9.37313 19.1322 9.74801C19.0443 9.87692 19.0267 9.91793 18.9154 10.041C18.7631 10.2168 18.5931 10.1699 18.4642 10.1054C18.347 10.0293 18.2533 9.98824 18.1947 9.72457C18.2064 9.31442 18.2299 8.64059 18.1537 8.49996C18.0424 8.27731 17.8607 8.35934 17.7845 8.42965C17.436 8.81686 17.2026 9.29379 17.1107 9.8066C17.0052 10.1464 16.8939 10.0468 16.8177 9.91207C16.6302 9.73629 16.6127 8.34762 16.3842 8.57614Z" fill="white"/>
<path fill-rule="evenodd" clip-rule="evenodd" d="M17.4858 10.8493C17.6557 10.7321 17.5795 10.6501 17.8256 10.8962C18.1433 11.4582 18.3277 12.0857 18.3647 12.7302C18.353 12.8825 18.4584 12.9763 18.5112 12.9411C18.5346 12.5896 19.3959 12.0974 20.187 12.0271C20.3041 11.9978 20.2456 11.7693 20.2631 11.6521C20.2163 11.2126 20.5092 10.8142 20.9194 10.7849C21.4819 10.8669 21.6694 11.1657 21.6811 11.6169C21.6166 12.4958 20.7026 12.6423 20.1928 12.7126C20.1166 12.7419 20.0815 12.7771 20.1928 12.8181L22.3373 12.8298L22.4487 12.8884C22.4604 12.947 22.4135 12.9001 22.3315 13.0407C22.2135 13.248 22.1397 13.4774 22.1147 13.7146C21.476 13.9255 20.8139 14.0075 20.1459 14.0954C19.9116 14.2126 19.7944 14.3708 19.8413 14.5466C19.9233 14.74 20.4389 14.9392 20.4389 14.945C20.5385 15.0036 20.6498 15.1501 20.4096 15.4489C19.3666 15.4021 18.5522 14.9568 18.2709 14.3298C18.1889 14.2654 18.0952 14.3298 18.0366 14.4118C17.6264 14.9392 17.228 15.4079 16.5307 15.6657C16.1206 15.7712 15.6928 15.6013 15.4936 15.3318C15.3588 15.1736 15.3647 15.0036 15.3178 14.9685C15.0893 15.0681 13.1557 15.8884 13.4018 15.5017C13.8706 15.0036 14.6909 14.6286 15.4057 14.1364C15.4584 13.9665 15.5522 13.404 15.8334 13.2224C15.851 13.2224 15.7924 13.5505 15.7983 13.6911C15.7983 13.8083 15.7866 13.8493 15.81 13.82C15.8627 13.7907 16.7299 13.1052 16.8061 12.8943C16.8881 12.7771 16.8237 12.4724 16.8237 12.4607C16.6596 12.0388 16.4311 12.0036 16.3491 11.7927C16.2729 11.5173 16.3081 11.2009 16.4663 11.1071C16.6069 10.9841 16.7709 10.9958 16.9291 11.1364C17.1049 11.2946 17.2573 11.6052 17.3041 11.8337C17.2748 11.9216 17.0698 11.7751 17.0112 11.8161C17.124 11.9457 17.1989 12.1038 17.228 12.2732C17.3452 12.7536 17.31 12.9411 17.1928 13.2517C16.8061 14.0661 16.3139 14.3064 15.8803 14.6111C15.8686 14.6111 15.8627 14.8161 16.0209 14.9275C16.0795 14.9861 16.3081 15.0154 16.5717 14.9275C17.135 14.6146 17.5905 14.1387 17.8784 13.5622C17.9282 13.1236 17.8801 12.6793 17.7377 12.2614C17.5678 11.8689 17.3686 11.3122 17.3686 11.3005C17.3627 11.0544 17.3803 10.9724 17.4858 10.8493ZM11.8725 8.58762C12.1186 8.7048 12.5873 8.65207 12.5639 8.25363L12.5522 8.07199C12.5053 7.9548 12.3647 7.9841 12.3354 8.10129C12.3237 8.1423 12.353 8.20676 12.3178 8.22434C12.2944 8.24777 12.2182 8.23605 12.2182 8.12473C12.2182 8.08957 12.1948 8.05441 12.1772 8.03098C12.1655 8.01926 12.1538 8.01926 12.1245 8.01926C12.0893 8.01926 12.0893 8.02512 12.0717 8.05441C12.0659 8.08371 12.0541 8.11301 12.0541 8.14816C12.0541 8.18918 12.0307 8.2009 12.0073 8.20676C11.9721 8.20676 11.978 8.20676 11.9487 8.19504C11.937 8.17746 11.9194 8.1716 11.9194 8.13645L11.9018 8.0427C11.8901 8.02512 11.8666 8.0134 11.8432 8.00754C11.7084 8.00754 11.6967 8.16574 11.7084 8.22434C11.6967 8.23606 11.6909 8.51145 11.8725 8.58762Z" fill="white"/>
<path fill-rule="evenodd" clip-rule="evenodd" d="M19.1089 11.6463C19.3549 11.7635 19.9467 11.699 19.8003 11.3182L19.7885 11.1307C19.7358 11.0135 19.601 11.0428 19.5717 11.1658C19.56 11.201 19.5893 11.2654 19.5483 11.283C19.5307 11.3065 19.4487 11.2947 19.4546 11.1893C19.4546 11.1541 19.4311 11.1131 19.4135 11.0897C19.396 11.0838 19.3901 11.0779 19.3549 11.0779C19.3256 11.0779 19.3256 11.0897 19.3081 11.119C19.2964 11.1482 19.2905 11.1775 19.2905 11.2127C19.2846 11.2479 19.2671 11.2596 19.2378 11.2713C19.2085 11.2713 19.2143 11.2713 19.1909 11.2537C19.1733 11.2361 19.1557 11.2303 19.1557 11.201L19.1381 11.1072C19.1264 11.0897 19.103 11.0779 19.0796 11.0721C18.9448 11.0721 18.9331 11.2244 18.9389 11.283C18.9331 11.2947 18.9272 11.576 19.1147 11.6463H19.1089ZM23.3276 10.3807C23.5737 10.4979 24.0366 10.4451 24.019 10.0525L24.0073 9.86505C23.9546 9.74786 23.8198 9.77716 23.7905 9.89434C23.7788 9.93536 23.8081 9.99981 23.7671 10.0232C23.7495 10.0408 23.6674 10.0291 23.6733 9.91778C23.6733 9.88262 23.6499 9.84747 23.6323 9.82403C23.6147 9.81231 23.6089 9.81231 23.5737 9.81231C23.5444 9.81231 23.5444 9.82403 23.5268 9.85333L23.5092 9.94122C23.5034 9.98223 23.4858 9.99981 23.4565 9.99981C23.4272 9.99981 23.4331 9.99981 23.4096 9.98809C23.3921 9.97052 23.3745 9.96466 23.3745 9.93536C23.3745 9.90606 23.3686 9.85919 23.3569 9.83575C23.3452 9.81817 23.3217 9.81231 23.2983 9.80645C23.1635 9.80645 23.1518 9.9588 23.1577 10.0174C23.1518 10.0291 23.146 10.3045 23.3335 10.3807H23.3276ZM25.5131 13.5623C25.0854 14.0486 25.2729 14.8514 25.3725 15.0272C25.5131 15.3084 25.6245 15.49 25.8999 15.6307C26.1518 15.8123 26.351 15.701 26.4565 15.5721C26.7085 15.3084 26.7143 14.6346 26.8315 14.5057C26.9135 14.2596 27.1245 14.3006 27.2241 14.4119C27.3173 14.5442 27.4422 14.651 27.5874 14.7225C27.8217 14.9275 28.103 14.9686 28.3842 14.7811C28.5717 14.6697 28.6948 14.535 28.8061 14.2596C28.9233 13.9315 28.8647 12.408 28.8354 11.5057L28.5893 10.2459C28.5893 10.2342 28.56 9.64825 28.5307 9.51348C28.5307 9.45489 28.5131 9.43731 28.5717 9.44317C28.6362 9.50177 28.6421 9.50177 28.6889 9.51934C28.7475 9.53106 28.8061 9.41973 28.7651 9.32598L28.1792 8.23614C28.1323 8.18927 28.0678 8.14239 27.9917 8.24786C27.9467 8.28854 27.9109 8.33832 27.8867 8.39387C27.8625 8.44943 27.8503 8.50951 27.851 8.57012C27.8686 8.82794 27.9096 9.09161 27.9272 9.34942L28.1616 10.6736C28.2378 11.6111 28.2553 12.3846 28.3315 13.3279C28.3198 13.7264 28.1967 14.0721 28.0796 14.1248C28.0796 14.1248 27.9038 14.2244 27.7866 14.1131C27.6987 14.0779 27.353 13.533 27.353 13.533C27.1772 13.3748 27.06 13.4158 26.937 13.533C26.5854 13.8729 26.4331 14.494 26.1928 14.9275C26.1342 15.0272 25.9585 15.1033 25.771 14.9217C25.2905 14.2596 25.5717 13.3221 25.5131 13.5623ZM23.4389 8.07208C23.6616 8.15997 23.8139 8.61114 23.7671 8.8338C23.7202 9.09747 23.603 9.39044 23.521 9.35528C23.4272 9.32013 23.5796 9.08575 23.4917 8.83966C23.4448 8.67559 23.1401 8.38263 23.1753 8.30059C23.1167 8.11895 23.3042 8.03692 23.4389 8.06622V8.07208Z" fill="white"/>
<path fill-rule="evenodd" clip-rule="evenodd" d="M26.2279 13.8316C26.2689 13.2926 26.1928 12.9645 26.1811 12.648C26.1693 12.3316 25.8236 9.91758 25.7533 9.6832C25.6654 9.22617 26.0873 9.62461 26.0404 9.35508C25.8939 9.02695 25.5365 8.54063 25.4252 8.25352C25.3549 8.13633 25.3842 8.01914 25.2318 8.22422C25.1007 8.58378 25.0545 8.96884 25.0971 9.34922C25.4604 11.2418 25.8295 12.8121 25.7709 14.6109C25.9467 14.6109 26.14 14.2184 26.2279 13.8316ZM30.0014 8.83359C30.2064 8.9332 30.3236 9.4957 30.3002 9.65391C30.2592 9.94687 30.1537 10.2633 30.0775 10.2223C29.9896 10.1871 30.0951 9.78867 30.0541 9.66562C30.0072 9.48984 29.7318 9.17344 29.7611 9.07969C29.7025 8.88047 29.8783 8.79844 30.0014 8.83359ZM15.019 12.8121C15.2123 12.8883 15.3295 13.2984 15.3119 13.4156C15.265 13.6324 15.1654 13.8668 15.0893 13.8316C15.0131 13.8082 15.1068 13.5152 15.0717 13.4215C15.0541 13.2047 14.7846 13.0875 14.7904 12.9937C14.7436 12.818 14.9076 12.7887 15.0248 12.8121H15.019Z" fill="white"/>
<path fill-rule="evenodd" clip-rule="evenodd" d="M19.6831 13.4333C19.9292 13.4451 20.0522 13.6443 19.8237 13.7263C19.5894 13.8025 19.3726 13.8669 19.3667 14.1951C19.4546 14.6638 19.2495 14.4997 19.1323 14.4411C18.9917 14.3357 18.5933 14.0896 18.5347 13.5622C18.5288 13.4392 18.6284 13.3279 18.7866 13.3279C19.021 13.3923 19.3726 13.3982 19.6831 13.4333Z" fill="#1B9D00"/>
<path fill-rule="evenodd" clip-rule="evenodd" d="M9.86848 7.93722C10.1497 8.01925 10.1673 8.44113 10.1497 8.56418C10.1087 8.78683 10.0091 9.02707 9.93879 8.99777C9.85676 8.96847 9.93879 8.66378 9.89777 8.57003C9.85676 8.44113 9.61652 8.19503 9.63996 8.12472C9.58723 7.97824 9.75715 7.90793 9.86848 7.93722ZM15.4876 9.90597C15.265 10.0232 15.1829 10.3747 15.3177 10.5857C15.4466 10.7614 15.6458 10.697 15.6693 10.697C15.8861 10.7204 16.015 10.2927 16.015 10.2927C16.015 10.2927 16.0208 10.1755 15.7689 10.404C15.6575 10.4216 15.6517 10.3806 15.6224 10.322C15.5956 10.2104 15.6058 10.0932 15.6517 9.988C15.6927 9.88253 15.6107 9.83566 15.4876 9.90597ZM17.1282 7.77316C17.0111 7.84933 16.7943 8.07785 16.7884 8.33566C16.7825 8.48214 16.7532 8.48214 16.847 8.57003C16.9232 8.6755 16.9876 8.66964 17.1282 8.59347C17.1633 8.57141 17.1934 8.54231 17.2166 8.50802C17.2398 8.47373 17.2556 8.43498 17.263 8.39425C17.2982 8.23019 17.0872 8.47628 17.0638 8.28878C17.0169 8.113 17.1517 8.04269 17.2806 7.87863C17.2806 7.76144 17.2806 7.68527 17.1224 7.77316H17.1282ZM18.4407 8.00753C18.3891 8.2209 18.3577 8.43866 18.347 8.65793C18.3118 8.82199 18.5228 8.8923 18.6107 8.68136C18.7513 8.3005 18.7513 8.13644 18.763 7.97824C18.722 7.72628 18.5521 7.73214 18.4407 8.00753ZM26.7611 12.2439C26.7845 12.2146 27.9329 11.4001 27.9329 11.4001C28.0501 11.3591 28.0208 11.822 27.9681 11.8161C27.6119 12.1594 27.2023 12.4424 26.7552 12.654C26.6966 12.695 26.6439 12.3435 26.7552 12.2439H26.7611ZM27.7982 12.2321C28.0032 12.3318 28.0853 12.9236 28.0618 13.0818C28.0618 13.3982 27.8685 13.6443 27.7864 13.6091C27.7044 13.5681 27.7982 13.2165 27.7571 13.0935C27.7103 12.9177 27.5403 12.5954 27.5696 12.5017C27.5111 12.3025 27.6751 12.197 27.804 12.2321H27.7982ZM21.0013 14.7751C21.0963 14.6642 21.2068 14.5675 21.3294 14.488C21.4466 14.4294 21.5521 14.5349 21.5462 14.529C21.5638 14.6462 21.4759 14.7458 21.5052 14.8982C21.5286 14.9568 21.5462 15.0271 21.6575 15.0036C21.8392 14.8571 22.0091 14.8454 22.1849 14.8396C22.3314 14.8454 22.3372 15.0857 22.2435 15.0857C21.9095 15.156 21.763 15.2497 21.5228 15.3376C21.4056 15.4079 21.3118 15.32 21.3118 15.3142C21.3118 15.3083 21.2474 15.2497 21.2884 15.0974C21.3001 14.9802 21.2532 14.9099 21.1478 14.9216C21.0775 14.9685 21.0071 14.9919 20.972 14.904C20.9544 14.8454 20.9486 14.8103 21.0013 14.7751ZM29.0052 15.0915C29.0521 15.1501 29.0872 15.2087 28.9993 15.3142L28.7825 15.5017C28.7474 15.5603 28.7239 15.6657 28.8411 15.695C29.0521 15.7536 29.5443 15.4314 29.5443 15.4255C29.6263 15.3669 29.6028 15.2497 29.5911 15.2497C29.5443 15.197 29.4388 15.2321 29.3685 15.2204C29.3333 15.2204 29.222 15.2087 29.2747 15.1032C29.3141 15.0515 29.3457 14.9942 29.3685 14.9333C29.3978 14.863 29.3685 14.8161 29.2513 14.7751C29.1282 14.7517 29.0755 14.7634 28.9407 14.7751C28.8704 14.7868 28.847 14.822 28.8294 14.9099C28.8353 15.0446 28.9173 15.0388 29.0052 15.0857V15.0915Z" fill="white"/>
<path fill-rule="evenodd" clip-rule="evenodd" d="M21.0425 11.7636C21.0132 11.8222 20.9077 11.8222 20.8081 11.7636C20.7085 11.705 20.6499 11.6112 20.685 11.5585C20.7202 11.5058 20.8198 11.5058 20.9194 11.5585C21.019 11.6112 21.0717 11.7109 21.0425 11.7636ZM15.8276 8.62297C15.769 8.64054 15.687 8.58781 15.6518 8.50578C15.6167 8.42375 15.6342 8.35343 15.6928 8.33586C15.7514 8.31828 15.8276 8.37687 15.8686 8.45304C15.9096 8.52922 15.8862 8.61125 15.8217 8.62883L15.8276 8.62297Z" fill="#259F00"/>
<path fill-rule="evenodd" clip-rule="evenodd" d="M26.1459 22.6208C26.6967 22.6443 27.2123 22.6208 27.7572 22.6501C27.8568 22.738 27.7865 22.9431 27.7221 22.9314L27.265 22.9138C27.2592 22.738 26.8139 22.7673 26.8256 22.9197C26.5854 22.949 26.3686 22.9138 26.1225 22.9021C26.0521 22.8142 26.0639 22.656 26.1459 22.6208Z" fill="#209000"/>
</g>
<defs>
<clipPath id="clip0_270506_2471">
<rect width="40" height="30" fill="white" transform="translate(0.333374 0.648132)"/>
</clipPath>
</defs>
</svg>
