<svg width="41" height="31" viewBox="0 0 41 31" fill="none" xmlns="http://www.w3.org/2000/svg">
<g clip-path="url(#clip0_270506_2474)">
<path d="M0.333252 0.648132H40.3333V30.6481H0.333252V0.648132Z" fill="#74ACDF"/>
<path d="M0.333374 10.6481H40.3334V20.6481H0.333374V10.6481Z" fill="white"/>
<path d="M20.1415 15.7262L21.8515 19.4462C21.8515 19.4462 21.8815 19.5182 21.9295 19.5002C21.9775 19.4762 21.9475 19.4042 21.9475 19.4042L20.5255 15.5642M20.4835 17.0162C20.4595 17.5802 20.8075 17.8922 20.7655 18.3962C20.7175 18.9062 20.9935 19.1882 21.0655 19.3862C21.1255 19.5842 20.9935 19.6982 21.0475 19.7282C21.1075 19.7582 21.2275 19.6022 21.1915 19.3202C21.1495 19.0442 20.9395 18.9602 20.9875 18.3422C21.0355 17.7242 20.7355 17.5802 20.8075 17.0222" fill="#F6B40E"/>
<path d="M20.1415 15.7262L21.8515 19.4462C21.8515 19.4462 21.8815 19.5182 21.9295 19.5002C21.9775 19.4762 21.9475 19.4042 21.9475 19.4042L20.5255 15.5642M20.4835 17.0162C20.4595 17.5802 20.8075 17.8922 20.7655 18.3962C20.7175 18.9062 20.9935 19.1882 21.0655 19.3862C21.1255 19.5842 20.9935 19.6982 21.0475 19.7282C21.1075 19.7582 21.2275 19.6022 21.1915 19.3202C21.1495 19.0442 20.9395 18.9602 20.9875 18.3422C21.0355 17.7242 20.7355 17.5802 20.8075 17.0222" stroke="#85340A" stroke-width="0.109046"/>
<path d="M20.1261 15.6466L20.2824 19.7379C20.2824 19.7379 20.2825 19.8159 20.3338 19.8176C20.3873 19.8138 20.3871 19.7358 20.3871 19.7358L20.5429 15.6439M19.9484 16.9693C19.7104 17.4812 19.9125 17.9026 19.6809 18.3522C19.4413 18.805 19.5884 19.1712 19.5792 19.3816C19.5588 19.5875 19.3932 19.6423 19.4317 19.6907C19.4756 19.7414 19.6462 19.6432 19.7208 19.3689C19.7876 19.0978 19.6258 18.9399 19.9066 18.3873C20.1875 17.8347 19.9654 17.5868 20.2455 17.0989" fill="#F6B40E"/>
<path d="M20.1261 15.6466L20.2824 19.7379C20.2824 19.7379 20.2825 19.8159 20.3338 19.8176C20.3873 19.8138 20.3871 19.7358 20.3871 19.7358L20.5429 15.6439M19.9484 16.9693C19.7104 17.4812 19.9125 17.9026 19.6809 18.3522C19.4413 18.805 19.5884 19.1712 19.5792 19.3816C19.5588 19.5875 19.3932 19.6423 19.4317 19.6907C19.4756 19.7414 19.6462 19.6432 19.7208 19.3689C19.7876 19.0978 19.6258 18.9399 19.9066 18.3873C20.1875 17.8347 19.9654 17.5868 20.2455 17.0989" stroke="#85340A" stroke-width="0.109046"/>
<path d="M20.1424 15.5676L18.7211 19.4072C18.7211 19.4072 18.6914 19.4793 18.7381 19.5005C18.789 19.5175 18.8187 19.4454 18.8187 19.4454L20.5285 15.7246M19.4721 16.7216C19.0563 17.1034 19.0817 17.5701 18.6957 17.8968C18.3011 18.2235 18.2969 18.618 18.2078 18.809C18.1102 18.9914 17.9362 18.9787 17.9532 19.0381C17.9744 19.1017 18.1696 19.0762 18.3435 18.8514C18.509 18.6265 18.4199 18.4186 18.8908 18.0156C19.3618 17.6125 19.2515 17.2986 19.6969 16.9549" fill="#F6B40E"/>
<path d="M20.1424 15.5676L18.7211 19.4072C18.7211 19.4072 18.6914 19.4793 18.7381 19.5005C18.789 19.5175 18.8187 19.4454 18.8187 19.4454L20.5285 15.7246M19.4721 16.7216C19.0563 17.1034 19.0817 17.5701 18.6957 17.8968C18.3011 18.2235 18.2969 18.618 18.2078 18.809C18.1102 18.9914 17.9362 18.9787 17.9532 19.0381C17.9744 19.1017 18.1696 19.0762 18.3435 18.8514C18.509 18.6265 18.4199 18.4186 18.8908 18.0156C19.3618 17.6125 19.2515 17.2986 19.6969 16.9549" stroke="#85340A" stroke-width="0.109046"/>
<path d="M20.1881 15.5004L17.4057 18.5038C17.4057 18.5038 17.3506 18.5591 17.3856 18.5966C17.4262 18.6317 17.4812 18.5765 17.4812 18.5765L20.4847 15.7932M19.1272 16.3101C18.5969 16.5037 18.4418 16.9446 17.9601 17.0987C17.4706 17.2495 17.3157 17.6124 17.1603 17.7547C17.0003 17.8859 16.8445 17.8076 16.8374 17.869C16.8327 17.9359 17.0227 17.987 17.2695 17.8459C17.5084 17.7014 17.5057 17.4753 18.095 17.2831C18.6843 17.091 18.7025 16.7587 19.2456 16.6117" fill="#F6B40E"/>
<path d="M20.1881 15.5004L17.4057 18.5038C17.4057 18.5038 17.3506 18.5591 17.3856 18.5966C17.4262 18.6317 17.4812 18.5765 17.4812 18.5765L20.4847 15.7932M19.1272 16.3101C18.5969 16.5037 18.4418 16.9446 17.9601 17.0987C17.4706 17.2495 17.3157 17.6124 17.1603 17.7547C17.0003 17.8859 16.8445 17.8076 16.8374 17.869C16.8327 17.9359 17.0227 17.987 17.2695 17.8459C17.5084 17.7014 17.5057 17.4753 18.095 17.2831C18.6843 17.091 18.7025 16.7587 19.2456 16.6117" stroke="#85340A" stroke-width="0.109046"/>
<path d="M20.5914 17.1122C20.6214 17.6522 20.9274 17.8922 20.8674 18.3902C20.9994 18.0002 20.6814 17.6942 20.6994 17.1182M20.2374 15.6902L21.4074 18.2462L20.4294 15.6122" fill="#85340A"/>
<path d="M20.0115 17.0993C19.8325 17.6097 20.0234 17.9485 19.7774 18.3856C20.0486 18.0758 19.8719 17.6714 20.1089 17.1462M20.2286 15.6501L20.3314 18.4592L20.4358 15.6515" fill="#85340A"/>
<path d="M19.4807 16.8657C19.12 17.2688 19.1667 17.6549 18.7721 17.9646C19.1413 17.7822 19.1328 17.3409 19.5528 16.9464M20.2359 15.6099L19.2558 18.2446L20.4268 15.6905" fill="#85340A"/>
<path d="M19.0796 16.4468C18.5922 16.6812 18.4876 17.0557 18.0045 17.1909C18.4153 17.1636 18.5764 16.7527 19.1154 16.5489M20.2579 15.5756L18.3442 17.6346L20.4034 15.7231" fill="#85340A"/>
<path d="M20.2555 15.4563L16.5355 17.1663C16.5355 17.1663 16.4635 17.1963 16.4815 17.2443C16.5055 17.2923 16.5775 17.2623 16.5775 17.2623L20.4175 15.8403M18.9655 15.7983C18.4015 15.7743 18.0895 16.1223 17.5855 16.0803C17.0755 16.0323 16.7935 16.3083 16.5955 16.3803C16.3975 16.4403 16.2835 16.3083 16.2535 16.3623C16.2235 16.4223 16.3795 16.5423 16.6615 16.5063C16.9375 16.4643 17.0215 16.2543 17.6395 16.3023C18.2575 16.3503 18.4015 16.0503 18.9595 16.1223" fill="#F6B40E"/>
<path d="M20.2555 15.4563L16.5355 17.1663C16.5355 17.1663 16.4635 17.1963 16.4815 17.2443C16.5055 17.2923 16.5775 17.2623 16.5775 17.2623L20.4175 15.8403M18.9655 15.7983C18.4015 15.7743 18.0895 16.1223 17.5855 16.0803C17.0755 16.0323 16.7935 16.3083 16.5955 16.3803C16.3975 16.4403 16.2835 16.3083 16.2535 16.3623C16.2235 16.4223 16.3795 16.5423 16.6615 16.5063C16.9375 16.4643 17.0215 16.2543 17.6395 16.3023C18.2575 16.3503 18.4015 16.0503 18.9595 16.1223" stroke="#85340A" stroke-width="0.109046"/>
<path d="M20.3348 15.441L16.2436 15.5972C16.2436 15.5972 16.1656 15.5974 16.1639 15.6486C16.1677 15.7022 16.2457 15.702 16.2457 15.702L20.3375 15.8578M19.0121 15.2633C18.5003 15.0253 18.0788 15.2274 17.6293 14.9957C17.1765 14.7562 16.8103 14.9033 16.5998 14.894C16.3939 14.8737 16.3391 14.7081 16.2908 14.7465C16.2401 14.7905 16.3383 14.961 16.6126 15.0357C16.8837 15.1025 17.0416 14.9407 17.5942 15.2215C18.1468 15.5023 18.3946 15.2803 18.8826 15.5603" fill="#F6B40E"/>
<path d="M20.3348 15.441L16.2436 15.5972C16.2436 15.5972 16.1656 15.5974 16.1639 15.6486C16.1677 15.7022 16.2457 15.702 16.2457 15.702L20.3375 15.8578M19.0121 15.2633C18.5003 15.0253 18.0788 15.2274 17.6293 14.9957C17.1765 14.7562 16.8103 14.9033 16.5998 14.894C16.3939 14.8737 16.3391 14.7081 16.2908 14.7465C16.2401 14.7905 16.3383 14.961 16.6126 15.0357C16.8837 15.1025 17.0416 14.9407 17.5942 15.2215C18.1468 15.5023 18.3946 15.2803 18.8826 15.5603" stroke="#85340A" stroke-width="0.109046"/>
<path d="M20.414 15.4573L16.5744 14.036C16.5744 14.036 16.5023 14.0064 16.4811 14.053C16.4641 14.1039 16.5362 14.1336 16.5362 14.1336L20.257 15.8434M19.26 14.787C18.8782 14.3712 18.4115 14.3967 18.0848 14.0106C17.7581 13.616 17.3636 13.6118 17.1726 13.5227C16.9902 13.4251 17.0029 13.2512 16.9435 13.2681C16.8799 13.2893 16.9053 13.4845 17.1302 13.6585C17.3551 13.8239 17.563 13.7348 17.966 14.2058C18.3691 14.6767 18.683 14.5664 19.0267 15.0119" fill="#F6B40E"/>
<path d="M20.414 15.4573L16.5744 14.036C16.5744 14.036 16.5023 14.0064 16.4811 14.053C16.4641 14.1039 16.5362 14.1336 16.5362 14.1336L20.257 15.8434M19.26 14.787C18.8782 14.3712 18.4115 14.3967 18.0848 14.0106C17.7581 13.616 17.3636 13.6118 17.1726 13.5227C16.9902 13.4251 17.0029 13.2512 16.9435 13.2681C16.8799 13.2893 16.9053 13.4845 17.1302 13.6585C17.3551 13.8239 17.563 13.7348 17.966 14.2058C18.3691 14.6767 18.683 14.5664 19.0267 15.0119" stroke="#85340A" stroke-width="0.109046"/>
<path d="M20.4809 15.5027L17.4774 12.7202C17.4774 12.7202 17.4222 12.6652 17.3847 12.7002C17.3495 12.7407 17.4048 12.7958 17.4048 12.7958L20.1881 15.7993M19.6712 14.4417C19.4776 13.9115 19.0367 13.7564 18.8826 13.2747C18.7318 12.7852 18.3689 12.6303 18.2266 12.4749C18.0954 12.3149 18.1737 12.1591 18.1123 12.152C18.0454 12.1473 17.9942 12.3373 18.1354 12.5841C18.2798 12.823 18.506 12.8202 18.6981 13.4096C18.8903 13.9989 19.2226 14.0171 19.3696 14.5602" fill="#F6B40E"/>
<path d="M20.4809 15.5027L17.4774 12.7202C17.4774 12.7202 17.4222 12.6652 17.3847 12.7002C17.3495 12.7407 17.4048 12.7958 17.4048 12.7958L20.1881 15.7993M19.6712 14.4417C19.4776 13.9115 19.0367 13.7564 18.8826 13.2747C18.7318 12.7852 18.3689 12.6303 18.2266 12.4749C18.0954 12.3149 18.1737 12.1591 18.1123 12.152C18.0454 12.1473 17.9942 12.3373 18.1354 12.5841C18.2798 12.823 18.506 12.8202 18.6981 13.4096C18.8903 13.9989 19.2226 14.0171 19.3696 14.5602" stroke="#85340A" stroke-width="0.109046"/>
<path d="M18.8694 15.9062C18.3294 15.9362 18.0894 16.2422 17.5914 16.1822C17.9814 16.3142 18.2874 15.9962 18.8634 16.0142M20.2914 15.5522L17.7354 16.7222L20.3694 15.7442" fill="#85340A"/>
<path d="M18.8823 15.3264C18.3719 15.1474 18.0331 15.3383 17.5959 15.0923C17.9057 15.3635 18.3101 15.1868 18.8354 15.4239M20.3315 15.5435L17.5223 15.6463L20.3301 15.7507" fill="#85340A"/>
<path d="M19.1158 14.7952C18.7127 14.4346 18.3266 14.4813 18.0169 14.0867C18.1994 14.4558 18.6406 14.4474 19.0352 14.8674M20.3716 15.5504L17.7369 14.5704L20.291 15.7414" fill="#85340A"/>
<path d="M19.535 14.3943C19.3006 13.9069 18.926 13.8023 18.7909 13.3192C18.8182 13.73 19.2291 13.891 19.4329 14.4301M20.4062 15.5726L18.3471 13.6589L20.2586 15.7181" fill="#85340A"/>
<path d="M20.5255 15.5701L18.8155 11.8501C18.8155 11.8501 18.7855 11.7781 18.7375 11.7961C18.6895 11.8201 18.7195 11.8921 18.7195 11.8921L20.1415 15.7321M20.1835 14.2801C20.2075 13.7161 19.8595 13.4041 19.9015 12.9001C19.9495 12.3901 19.6735 12.1081 19.6015 11.9101C19.5415 11.7121 19.6735 11.5981 19.6195 11.5681C19.5595 11.5381 19.4395 11.6941 19.4755 11.9761C19.5175 12.2521 19.7275 12.3361 19.6795 12.9541C19.6315 13.5721 19.9315 13.7161 19.8595 14.2741" fill="#F6B40E"/>
<path d="M20.5255 15.5701L18.8155 11.8501C18.8155 11.8501 18.7855 11.7781 18.7375 11.7961C18.6895 11.8201 18.7195 11.8921 18.7195 11.8921L20.1415 15.7321M20.1835 14.2801C20.2075 13.7161 19.8595 13.4041 19.9015 12.9001C19.9495 12.3901 19.6735 12.1081 19.6015 11.9101C19.5415 11.7121 19.6735 11.5981 19.6195 11.5681C19.5595 11.5381 19.4395 11.6941 19.4755 11.9761C19.5175 12.2521 19.7275 12.3361 19.6795 12.9541C19.6315 13.5721 19.9315 13.7161 19.8595 14.2741" stroke="#85340A" stroke-width="0.109046"/>
<path d="M20.5408 15.6498L20.3845 11.5586C20.3845 11.5586 20.3843 11.4805 20.3331 11.4788C20.2796 11.4826 20.2797 11.5606 20.2797 11.5606L20.124 15.6525M20.7184 14.3271C20.9565 13.8152 20.7543 13.3938 20.986 12.9442C21.2255 12.4914 21.0785 12.1253 21.0877 11.9148C21.108 11.7089 21.2736 11.6541 21.2352 11.6057C21.1913 11.555 21.0207 11.6532 20.946 11.9275C20.8792 12.1986 21.0411 12.3566 20.7603 12.9092C20.4794 13.4617 20.7015 13.7096 20.4214 14.1976" fill="#F6B40E"/>
<path d="M20.5408 15.6498L20.3845 11.5586C20.3845 11.5586 20.3843 11.4805 20.3331 11.4788C20.2796 11.4826 20.2797 11.5606 20.2797 11.5606L20.124 15.6525M20.7184 14.3271C20.9565 13.8152 20.7543 13.3938 20.986 12.9442C21.2255 12.4914 21.0785 12.1253 21.0877 11.9148C21.108 11.7089 21.2736 11.6541 21.2352 11.6057C21.1913 11.555 21.0207 11.6532 20.946 11.9275C20.8792 12.1986 21.0411 12.3566 20.7603 12.9092C20.4794 13.4617 20.7015 13.7096 20.4214 14.1976" stroke="#85340A" stroke-width="0.109046"/>
<path d="M20.5242 15.7288L21.9455 11.8892C21.9455 11.8892 21.9752 11.8171 21.9285 11.7959C21.8776 11.7789 21.8479 11.8511 21.8479 11.8511L20.1381 15.5719M21.1946 14.5748C21.6103 14.193 21.5849 13.7263 21.971 13.3996C22.3655 13.0729 22.3698 12.6784 22.4589 12.4875C22.5564 12.305 22.7304 12.3177 22.7134 12.2584C22.6922 12.1947 22.497 12.2202 22.3231 12.445C22.1576 12.6699 22.2467 12.8778 21.7758 13.2808C21.3049 13.6839 21.4152 13.9978 20.9697 14.3415" fill="#F6B40E"/>
<path d="M20.5242 15.7288L21.9455 11.8892C21.9455 11.8892 21.9752 11.8171 21.9285 11.7959C21.8776 11.7789 21.8479 11.8511 21.8479 11.8511L20.1381 15.5719M21.1946 14.5748C21.6103 14.193 21.5849 13.7263 21.971 13.3996C22.3655 13.0729 22.3698 12.6784 22.4589 12.4875C22.5564 12.305 22.7304 12.3177 22.7134 12.2584C22.6922 12.1947 22.497 12.2202 22.3231 12.445C22.1576 12.6699 22.2467 12.8778 21.7758 13.2808C21.3049 13.6839 21.4152 13.9978 20.9697 14.3415" stroke="#85340A" stroke-width="0.109046"/>
<path d="M20.479 15.7957L23.2615 12.7923C23.2615 12.7923 23.3165 12.737 23.2815 12.6996C23.241 12.6644 23.1859 12.7197 23.1859 12.7197L20.1824 15.5029M21.5399 14.9861C22.0702 14.7924 22.2253 14.3515 22.707 14.1975C23.1965 14.0466 23.3514 13.6837 23.5068 13.5414C23.6668 13.4102 23.8226 13.4886 23.8297 13.4272C23.8344 13.3603 23.6444 13.3091 23.3976 13.4503C23.1587 13.5947 23.1615 13.8209 22.5721 14.013C21.9828 14.2052 21.9646 14.5374 21.4215 14.6845" fill="#F6B40E"/>
<path d="M20.479 15.7957L23.2615 12.7923C23.2615 12.7923 23.3165 12.737 23.2815 12.6996C23.241 12.6644 23.1859 12.7197 23.1859 12.7197L20.1824 15.5029M21.5399 14.9861C22.0702 14.7924 22.2253 14.3515 22.707 14.1975C23.1965 14.0466 23.3514 13.6837 23.5068 13.5414C23.6668 13.4102 23.8226 13.4886 23.8297 13.4272C23.8344 13.3603 23.6444 13.3091 23.3976 13.4503C23.1587 13.5947 23.1615 13.8209 22.5721 14.013C21.9828 14.2052 21.9646 14.5374 21.4215 14.6845" stroke="#85340A" stroke-width="0.109046"/>
<path d="M20.0753 14.1843C20.0453 13.6443 19.7393 13.4043 19.7993 12.9063C19.6673 13.2963 19.9853 13.6023 19.9673 14.1783M20.4293 15.6063L19.2593 13.0503L20.2373 15.6843" fill="#85340A"/>
<path d="M20.6554 14.197C20.8344 13.6867 20.6435 13.3478 20.8895 12.9107C20.6183 13.2205 20.795 13.6249 20.5579 14.1502M20.4383 15.6463L20.3355 12.8371L20.2311 15.6448" fill="#85340A"/>
<path d="M21.1862 14.4306C21.5468 14.0275 21.5002 13.6415 21.8947 13.3317C21.5256 13.5142 21.5341 13.9554 21.1141 14.35M20.431 15.6864L21.4111 13.0517L20.2401 15.6058" fill="#85340A"/>
<path d="M21.5871 14.8495C22.0746 14.6152 22.1792 14.2406 22.6622 14.1055C22.2514 14.1328 22.0904 14.5437 21.5514 14.7475M20.4089 15.7208L22.3226 13.6617L20.2633 15.5732" fill="#85340A"/>
<path d="M20.4116 15.84L24.1316 14.13C24.1316 14.13 24.2036 14.1 24.1856 14.052C24.1616 14.004 24.0896 14.034 24.0896 14.034L20.2496 15.456M21.7016 15.498C22.2656 15.522 22.5776 15.174 23.0816 15.216C23.5916 15.264 23.8736 14.988 24.0716 14.916C24.2696 14.856 24.3836 14.988 24.4136 14.934C24.4436 14.874 24.2876 14.754 24.0056 14.79C23.7296 14.832 23.6456 15.042 23.0276 14.994C22.4096 14.946 22.2656 15.246 21.7076 15.174" fill="#F6B40E"/>
<path d="M20.4116 15.84L24.1316 14.13C24.1316 14.13 24.2036 14.1 24.1856 14.052C24.1616 14.004 24.0896 14.034 24.0896 14.034L20.2496 15.456M21.7016 15.498C22.2656 15.522 22.5776 15.174 23.0816 15.216C23.5916 15.264 23.8736 14.988 24.0716 14.916C24.2696 14.856 24.3836 14.988 24.4136 14.934C24.4436 14.874 24.2876 14.754 24.0056 14.79C23.7296 14.832 23.6456 15.042 23.0276 14.994C22.4096 14.946 22.2656 15.246 21.7076 15.174" stroke="#85340A" stroke-width="0.109046"/>
<path d="M20.3322 15.8555L24.4234 15.6993C24.4234 15.6993 24.5014 15.6991 24.5031 15.6479C24.4993 15.5944 24.4213 15.5945 24.4213 15.5945L20.3294 15.4388M21.6548 16.0332C22.1667 16.2712 22.5882 16.0691 23.0377 16.3008C23.4905 16.5403 23.8567 16.3932 24.0672 16.4025C24.2731 16.4228 24.3279 16.5884 24.3762 16.55C24.4269 16.5061 24.3287 16.3355 24.0544 16.2608C23.7833 16.194 23.6254 16.3559 23.0728 16.075C22.5202 15.7942 22.2724 16.0163 21.7844 15.7362" fill="#F6B40E"/>
<path d="M20.3322 15.8555L24.4234 15.6993C24.4234 15.6993 24.5014 15.6991 24.5031 15.6479C24.4993 15.5944 24.4213 15.5945 24.4213 15.5945L20.3294 15.4388M21.6548 16.0332C22.1667 16.2712 22.5882 16.0691 23.0377 16.3008C23.4905 16.5403 23.8567 16.3932 24.0672 16.4025C24.2731 16.4228 24.3279 16.5884 24.3762 16.55C24.4269 16.5061 24.3287 16.3355 24.0544 16.2608C23.7833 16.194 23.6254 16.3559 23.0728 16.075C22.5202 15.7942 22.2724 16.0163 21.7844 15.7362" stroke="#85340A" stroke-width="0.109046"/>
<path d="M20.2529 15.8393L24.0924 17.2606C24.0924 17.2606 24.1646 17.2903 24.1858 17.2436C24.2028 17.1927 24.1306 17.163 24.1306 17.163L20.4098 15.4532M21.4069 16.5097C21.7887 16.9254 22.2554 16.9 22.5821 17.2861C22.9088 17.6806 23.3033 17.6849 23.4942 17.774C23.6767 17.8716 23.6639 18.0455 23.7233 18.0285C23.787 18.0073 23.7615 17.8122 23.5367 17.6382C23.3118 17.4727 23.1039 17.5618 22.7009 17.0909C22.2978 16.62 21.9839 16.7303 21.6402 16.2848" fill="#F6B40E"/>
<path d="M20.2529 15.8393L24.0924 17.2606C24.0924 17.2606 24.1646 17.2903 24.1858 17.2436C24.2028 17.1927 24.1306 17.163 24.1306 17.163L20.4098 15.4532M21.4069 16.5097C21.7887 16.9254 22.2554 16.9 22.5821 17.2861C22.9088 17.6806 23.3033 17.6849 23.4942 17.774C23.6767 17.8716 23.6639 18.0455 23.7233 18.0285C23.787 18.0073 23.7615 17.8122 23.5367 17.6382C23.3118 17.4727 23.1039 17.5618 22.7009 17.0909C22.2978 16.62 21.9839 16.7303 21.6402 16.2848" stroke="#85340A" stroke-width="0.109046"/>
<path d="M20.186 15.7937L23.1894 18.5762C23.1894 18.5762 23.2447 18.6312 23.2822 18.5962C23.3173 18.5557 23.2621 18.5006 23.2621 18.5006L20.4788 15.4971M20.9956 16.8547C21.1893 17.3849 21.6302 17.54 21.7843 18.0217C21.9351 18.5113 22.298 18.6662 22.4403 18.8215C22.5715 18.9815 22.4932 19.1373 22.5546 19.1444C22.6215 19.1492 22.6726 18.9591 22.5315 18.7123C22.387 18.4734 22.1609 18.4762 21.9687 17.8869C21.7766 17.2975 21.4443 17.2793 21.2973 16.7362" fill="#F6B40E"/>
<path d="M20.186 15.7937L23.1894 18.5762C23.1894 18.5762 23.2447 18.6312 23.2822 18.5962C23.3173 18.5557 23.2621 18.5006 23.2621 18.5006L20.4788 15.4971M20.9956 16.8547C21.1893 17.3849 21.6302 17.54 21.7843 18.0217C21.9351 18.5113 22.298 18.6662 22.4403 18.8215C22.5715 18.9815 22.4932 19.1373 22.5546 19.1444C22.6215 19.1492 22.6726 18.9591 22.5315 18.7123C22.387 18.4734 22.1609 18.4762 21.9687 17.8869C21.7766 17.2975 21.4443 17.2793 21.2973 16.7362" stroke="#85340A" stroke-width="0.109046"/>
<path d="M21.7975 15.39C22.3375 15.36 22.5775 15.054 23.0755 15.114C22.6855 14.982 22.3795 15.3 21.8035 15.282M20.3755 15.744L22.9315 14.574L20.2975 15.552" fill="#85340A"/>
<path d="M21.785 15.9699C22.2953 16.1489 22.6342 15.958 23.0713 16.204C22.7615 15.9328 22.3571 16.1095 21.8318 15.8724M20.3357 15.7528L23.1449 15.65L20.3371 15.5456" fill="#85340A"/>
<path d="M21.5511 16.501C21.9541 16.8616 22.3402 16.815 22.6499 17.2095C22.4675 16.8404 22.0263 16.8489 21.6317 16.4289M20.2953 15.7458L22.9299 16.7259L20.3759 15.5549" fill="#85340A"/>
<path d="M21.1323 16.902C21.3666 17.3894 21.7412 17.4941 21.8763 17.9771C21.849 17.5663 21.4382 17.4053 21.2344 16.8662M20.2611 15.7237L22.3201 17.6374L20.4086 15.5782" fill="#85340A"/>
<path d="M20.3334 17.3169C21.255 17.3169 22.0022 16.5698 22.0022 15.6482C22.0022 14.7266 21.255 13.9794 20.3334 13.9794C19.4118 13.9794 18.6647 14.7266 18.6647 15.6482C18.6647 16.5698 19.4118 17.3169 20.3334 17.3169Z" fill="#F6B40E" stroke="#85340A" stroke-width="0.144568"/>
<path d="M20.896 15.292C20.7897 15.292 20.6772 15.342 20.6147 15.442C20.7397 15.5608 21.0272 15.567 21.221 15.4295C21.1801 15.3861 21.1307 15.3514 21.0758 15.3278C21.021 15.3041 20.9619 15.292 20.9022 15.292H20.896ZM20.896 15.317C21.0085 15.317 21.1147 15.367 21.1272 15.417C21.0022 15.5608 20.796 15.542 20.6647 15.442C20.7272 15.3545 20.8147 15.317 20.9022 15.317H20.896Z" fill="#843511"/>
<path d="M20.9209 15.2108C20.7522 15.2108 20.7147 15.2483 20.6397 15.317C20.5647 15.3795 20.5209 15.367 20.5147 15.3795C20.4959 15.392 20.5147 15.4295 20.5334 15.417C20.5647 15.4045 20.6147 15.3795 20.6897 15.317C20.7647 15.2545 20.8459 15.2545 20.9209 15.2545C21.1522 15.2545 21.2772 15.442 21.3022 15.4295C21.3334 15.417 21.1772 15.2108 20.9209 15.2108Z" fill="#85340A"/>
<path d="M21.3834 15.2918C21.0897 15.0356 20.7147 14.9918 20.5084 15.1856C20.4609 15.2481 20.4288 15.3209 20.4147 15.3981C20.3897 15.5481 20.4334 15.7043 20.5459 15.8668L20.4959 15.8918C20.3959 15.6981 20.3584 15.4981 20.3959 15.3043L20.4334 15.1606C20.7147 14.9293 21.1022 14.9106 21.3834 15.2856V15.2918Z" fill="#85340A"/>
<path d="M20.8952 15.528C20.957 15.528 21.007 15.4779 21.007 15.4161C21.007 15.3543 20.957 15.3042 20.8952 15.3042C20.8334 15.3042 20.7833 15.3543 20.7833 15.4161C20.7833 15.4779 20.8334 15.528 20.8952 15.528Z" fill="#85340A"/>
<path d="M21.2273 15.4919C21.0085 15.6606 20.7898 15.6481 20.6648 15.5731C20.5398 15.4919 20.5398 15.4669 20.5648 15.4669C20.5898 15.4669 20.6148 15.4919 20.7148 15.5481C20.821 15.5981 20.971 15.5981 21.2273 15.4919Z" fill="#85340A"/>
<path d="M20.0836 15.8795C20.0662 15.8836 20.0501 15.8918 20.0365 15.9033C20.0229 15.9149 20.0123 15.9295 20.0054 15.946C19.9986 15.9625 19.9958 15.9804 19.9973 15.9982C19.9988 16.016 20.0044 16.0331 20.0138 16.0483C20.0233 16.0635 20.0361 16.0762 20.0514 16.0854C20.0667 16.0946 20.084 16.1 20.1018 16.1012C20.1196 16.1024 20.1374 16.0994 20.1538 16.0924C20.1702 16.0853 20.1847 16.0745 20.1961 16.0607C20.2373 16.0863 20.2851 16.0993 20.3336 16.0982H20.3461C20.3836 16.0982 20.4461 16.092 20.4898 16.0607C20.5086 16.092 20.5461 16.1045 20.5836 16.1045C20.6134 16.107 20.643 16.0975 20.6659 16.0782C20.6887 16.0588 20.703 16.0312 20.7054 16.0014C20.7079 15.9715 20.6985 15.9419 20.6791 15.9191C20.6598 15.8962 20.6322 15.882 20.6023 15.8795C20.6336 15.892 20.6523 15.917 20.6523 15.9545C20.6523 15.9744 20.6444 15.9935 20.6304 16.0075C20.6163 16.0216 20.5972 16.0295 20.5773 16.0295C20.5574 16.0295 20.5384 16.0216 20.5243 16.0075C20.5102 15.9935 20.5023 15.9744 20.5023 15.9545C20.4875 15.9853 20.4645 16.0116 20.4359 16.0303C20.4072 16.049 20.374 16.0595 20.3398 16.0607C20.3067 16.0584 20.2748 16.0474 20.2473 16.0287C20.2199 16.0101 20.1979 15.9844 20.1836 15.9545C20.1836 15.9982 20.1461 16.0295 20.1023 16.0295C20.0648 16.0295 20.0273 15.992 20.0273 15.9545C20.0273 15.917 20.0461 15.892 20.0773 15.8795H20.0836ZM20.2086 16.217C20.0773 16.217 20.0211 16.342 19.9086 16.4107C19.9711 16.3857 20.0211 16.3357 20.1148 16.2857C20.2023 16.2357 20.2773 16.2982 20.3336 16.2982C20.3836 16.2982 20.4586 16.2357 20.5523 16.2857C20.6398 16.3357 20.6961 16.3857 20.7586 16.4107C20.6398 16.3357 20.5898 16.2232 20.4586 16.2232C20.4336 16.2232 20.3836 16.2357 20.3336 16.2607L20.2086 16.217Z" fill="#85340A"/>
<path d="M20.1584 16.3732C20.1084 16.3732 20.0459 16.3857 19.9459 16.4107C20.1772 16.3607 20.2272 16.4419 20.3334 16.4419C20.4334 16.4419 20.4897 16.3607 20.7147 16.4107C20.4647 16.3357 20.4084 16.3857 20.3334 16.3857C20.2834 16.3857 20.2459 16.3669 20.1584 16.3732Z" fill="#85340A"/>
<path d="M19.9586 16.4107H19.9086C20.1773 16.4419 20.0523 16.5982 20.3336 16.5982C20.6148 16.5982 20.4898 16.4419 20.7586 16.4107C20.4773 16.3857 20.5648 16.5544 20.3336 16.5544C20.1148 16.5544 20.1836 16.4107 19.9586 16.4107Z" fill="#85340A"/>
<path d="M20.5646 16.8295C20.5646 16.7681 20.5402 16.7093 20.4968 16.666C20.4535 16.6226 20.3946 16.5982 20.3333 16.5982C20.272 16.5982 20.2132 16.6226 20.1698 16.666C20.1264 16.7093 20.1021 16.7681 20.1021 16.8295C20.1143 16.7773 20.1438 16.7308 20.1857 16.6975C20.2277 16.6642 20.2797 16.6461 20.3333 16.6461C20.3869 16.6461 20.4389 16.6642 20.4809 16.6975C20.5228 16.7308 20.5523 16.7773 20.5646 16.8295Z" fill="#85340A"/>
<path d="M19.2959 15.2918C19.5896 15.0356 19.9646 14.9918 20.1709 15.1856C20.2184 15.2481 20.2505 15.3209 20.2646 15.3981C20.2896 15.5481 20.2459 15.7043 20.1334 15.8668L20.1834 15.8918C20.2834 15.6981 20.3209 15.4981 20.2834 15.3043L20.2459 15.1606C19.9646 14.9293 19.5771 14.9106 19.2959 15.2856V15.2918Z" fill="#85340A"/>
<path d="M19.7585 15.2108C19.9272 15.2108 19.9647 15.2483 20.0397 15.317C20.1147 15.3795 20.1585 15.367 20.1647 15.3795C20.1835 15.392 20.1647 15.4295 20.146 15.417C20.1147 15.4045 20.0647 15.3795 19.9897 15.317C19.9147 15.2545 19.8335 15.2545 19.7585 15.2545C19.5272 15.2545 19.4022 15.442 19.3772 15.4295C19.346 15.417 19.5022 15.2108 19.7585 15.2108Z" fill="#85340A"/>
<path d="M19.7458 15.292C19.6396 15.292 19.5271 15.342 19.4646 15.442C19.5896 15.5608 19.8771 15.567 20.0709 15.4295C20.0299 15.3861 19.9805 15.3514 19.9257 15.3278C19.8709 15.3041 19.8118 15.292 19.7521 15.292H19.7458ZM19.7458 15.317C19.8583 15.317 19.9646 15.367 19.9771 15.417C19.8521 15.5608 19.6458 15.542 19.5146 15.442C19.5771 15.3545 19.6646 15.317 19.7521 15.317H19.7458Z" fill="#843511"/>
<path d="M19.764 15.528C19.8257 15.528 19.8758 15.4779 19.8758 15.4161C19.8758 15.3543 19.8257 15.3042 19.764 15.3042C19.7022 15.3042 19.6521 15.3543 19.6521 15.4161C19.6521 15.4779 19.7022 15.528 19.764 15.528Z" fill="#85340A"/>
<path d="M19.4521 15.4919C19.6709 15.6606 19.8896 15.6481 20.0146 15.5731C20.1396 15.4919 20.1396 15.4669 20.1146 15.4669C20.0896 15.4669 20.0646 15.4919 19.9646 15.5481C19.8584 15.5981 19.7084 15.5981 19.4521 15.4919Z" fill="#85340A"/>
</g>
<defs>
<clipPath id="clip0_270506_2474">
<rect width="40" height="30" fill="white" transform="translate(0.333374 0.648132)"/>
</clipPath>
</defs>
</svg>
