<svg width="40" height="31" viewBox="0 0 40 31" fill="none" xmlns="http://www.w3.org/2000/svg">
<g clip-path="url(#clip0_270506_2436)">
<path fill-rule="evenodd" clip-rule="evenodd" d="M0 0.648132H40V30.6481H0V0.648132Z" fill="#FFE800"/>
<path fill-rule="evenodd" clip-rule="evenodd" d="M-3.05176e-05 15.6482H40V30.6482H-3.05176e-05V15.6482Z" fill="#00148E"/>
<path fill-rule="evenodd" clip-rule="evenodd" d="M-3.05176e-05 23.1481H40V30.6481H-3.05176e-05V23.1481Z" fill="#DA0010"/>
<path fill-rule="evenodd" clip-rule="evenodd" d="M16.8499 18.8231L12.3124 23.6043L12.2374 23.5043L16.7624 18.7231L16.8374 18.8231H16.8499ZM19.9999 19.6043L14.0749 25.8543L13.9749 25.7543L19.8937 19.5043L19.9999 19.6043Z" fill="#1F1E1E"/>
<path fill-rule="evenodd" clip-rule="evenodd" d="M14.0933 25.7812L13.5395 26.3349L12.9083 26.8112L13.3847 26.18L13.9384 25.6263L14.0933 25.7812Z" fill="#808080" stroke="#1F1E1E" stroke-width="0.0613628"/>
<path fill-rule="evenodd" clip-rule="evenodd" d="M12.5682 23.3375L12.0145 23.8912L11.3833 24.3676L11.8596 23.7364L12.4134 23.1826L12.5682 23.3375Z" fill="#808080" stroke="#1F1E1E" stroke-width="0.0613628"/>
<path fill-rule="evenodd" clip-rule="evenodd" d="M12.9963 7.82251C12.9963 7.82251 12.4984 21.2865 14.4897 21.2865C16.4809 21.2865 17.4794 19.8705 17.4794 19.8705L17.4569 12.4705L12.9963 7.82251V7.82251Z" fill="#FFDF00" stroke="#1F1E1E" stroke-width="0.0905091"/>
<path fill-rule="evenodd" clip-rule="evenodd" d="M14.2141 9.07846C14.2141 9.78646 13.9919 19.8705 14.9876 19.8705C15.9832 19.8705 17.4794 19.1625 17.4794 19.1625L17.4569 12.4705L14.2141 9.07846V9.07846Z" fill="#0000C4" stroke="#1F1E1E" stroke-width="0.0905091"/>
<path fill-rule="evenodd" clip-rule="evenodd" d="M14.8609 9.75851C14.8609 10.4665 14.9875 18.4545 15.9859 18.4545H17.4794L17.4569 12.4705L14.8609 9.75851Z" fill="#E10000" stroke="#1F1E1E" stroke-width="0.0905091"/>
<path fill-rule="evenodd" clip-rule="evenodd" d="M12.8876 7.89791L17.4126 12.6792L17.4938 12.5792L12.9688 7.79791L12.8876 7.89791V7.89791Z" fill="#1F1E1E"/>
<path fill-rule="evenodd" clip-rule="evenodd" d="M11.5185 10.5817C11.5185 10.5817 10.2352 23.6249 14.085 23.6249C17.2931 23.6249 17.2931 21.5673 17.9347 21.5673L17.2931 16.7623L11.5149 10.5817H11.5185Z" fill="#FFDF00" stroke="#1F1E1E" stroke-width="0.101136"/>
<path d="M14.6988 12.7501C14.7263 12.748 15.7 10.6407 18.1338 9.30693" stroke="#1F1E1E" stroke-width="0.10956"/>
<path fill-rule="evenodd" clip-rule="evenodd" d="M14.3004 10.7637C14.6398 10.922 14.8545 11.1043 15.05 11.3168C14.6617 11.2354 14.4613 11.2025 14.1219 11.0442C13.7825 10.8858 13.5233 10.6435 13.3173 10.4475C13.5699 10.5244 13.9592 10.6044 14.3004 10.7637V10.7637Z" fill="#005B00" stroke="#1F1E1E" stroke-width="0.0495537"/>
<path fill-rule="evenodd" clip-rule="evenodd" d="M15.1502 12.0546C15.1751 12.0968 15.1537 12.1564 15.1011 12.1856C15.0486 12.2148 14.9855 12.2035 14.9601 12.1602C14.9346 12.1169 14.9572 12.0595 15.0098 12.0303C15.0624 12.0011 15.1254 12.0123 15.1502 12.0546Z" fill="#FF0000" stroke="#1F1E1E" stroke-width="0.0339879"/>
<path fill-rule="evenodd" clip-rule="evenodd" d="M16.2183 9.41498C16.0712 9.78829 15.9089 10.0343 15.7219 10.2638C15.806 9.84848 15.8417 9.63529 15.9888 9.26198C16.1358 8.88866 16.3504 8.58904 16.5239 8.35054C16.4491 8.62354 16.3661 9.0396 16.2183 9.41498V9.41498Z" fill="#005B00" stroke="#1F1E1E" stroke-width="0.0467173"/>
<path fill-rule="evenodd" clip-rule="evenodd" d="M15.7218 9.39542C15.6878 9.76873 15.6134 10.0579 15.5157 10.3511C15.4901 9.98829 15.4711 9.80698 15.505 9.43367C15.5389 9.06035 15.6431 8.69698 15.7281 8.40598C15.7293 8.65742 15.7559 9.02004 15.7218 9.39542V9.39542Z" fill="#005B00" stroke="#1F1E1E" stroke-width="0.0403367"/>
<path fill-rule="evenodd" clip-rule="evenodd" d="M16.046 9.82246C15.8537 10.0487 15.6919 10.1468 15.5219 10.2106C15.6932 9.89683 15.7772 9.72996 15.9695 9.50371C16.1618 9.27746 16.3679 9.17121 16.5334 9.08871C16.4103 9.27965 16.2393 9.59496 16.046 9.82246V9.82246Z" fill="#005B00" stroke="#1F1E1E" stroke-width="0.0438128"/>
<path fill-rule="evenodd" clip-rule="evenodd" d="M14.4075 10.1386C14.6338 10.4101 14.7463 10.6716 14.8313 10.9606C14.535 10.7591 14.3788 10.6651 14.1525 10.3936C13.9263 10.1221 13.7988 9.78209 13.6988 9.50809C13.8825 9.66534 14.18 9.86559 14.4075 10.1386V10.1386Z" fill="#005B00" stroke="#1F1E1E" stroke-width="0.0501338"/>
<path fill-rule="evenodd" clip-rule="evenodd" d="M13.9521 12.2312C14.2349 12.4574 14.3842 12.6907 14.5032 12.9542C14.1434 12.8049 13.9544 12.7379 13.6716 12.5117C13.3888 12.2854 13.2167 11.9794 13.0812 11.7324C13.3065 11.8558 13.6677 12.0037 13.9521 12.2312V12.2312Z" fill="#005B00" stroke="#1F1E1E" stroke-width="0.0532287"/>
<path fill-rule="evenodd" clip-rule="evenodd" d="M15.2764 12.1072C15.0502 12.4692 14.8054 12.7124 14.5249 12.9419C14.6602 12.5449 14.7187 12.3417 14.9449 11.9797C15.1712 11.6177 15.4942 11.3202 15.7552 11.0832C15.6376 11.3456 15.5039 11.7432 15.2764 12.1072V12.1072Z" fill="#005B00" stroke="#1F1E1E" stroke-width="0.0546813"/>
<path fill-rule="evenodd" clip-rule="evenodd" d="M15.5128 12.0927C15.1508 12.3416 14.8357 12.4711 14.5 12.5731C14.8095 12.2542 14.9596 12.0866 15.3216 11.8377C15.6836 11.5888 16.0873 11.4401 16.4118 11.3231C16.1854 11.5223 15.8768 11.8425 15.5128 12.0927V12.0927Z" fill="#005B00" stroke="#1F1E1E" stroke-width="0.0525492"/>
<path fill-rule="evenodd" clip-rule="evenodd" d="M17.9534 9.49133C17.795 9.67233 17.653 9.77958 17.5 9.87308C17.6304 9.65708 17.693 9.54483 17.8514 9.36383C18.0098 9.18283 18.1925 9.05533 18.3395 8.95433C18.2425 9.09271 18.1127 9.30933 17.9534 9.49133V9.49133Z" fill="#005B00" stroke="#1F1E1E" stroke-width="0.0278286"/>
<path fill-rule="evenodd" clip-rule="evenodd" d="M17.6102 8.9575C17.5197 9.14981 17.423 9.29431 17.3125 9.43881C17.368 9.2465 17.3922 9.14981 17.4827 8.9575C17.5732 8.76519 17.7007 8.58456 17.8037 8.44006C17.7561 8.57181 17.7012 8.76413 17.6102 8.9575V8.9575Z" fill="#005B00" stroke="#1F1E1E" stroke-width="0.0231174"/>
<path fill-rule="evenodd" clip-rule="evenodd" d="M18.1402 9.30249C17.9818 9.39299 17.8628 9.42074 17.7438 9.42924C17.9022 9.28974 17.9818 9.21449 18.1402 9.12399C18.2985 9.03349 18.4473 9.00799 18.5663 8.98899C18.4578 9.07112 18.2994 9.21149 18.1402 9.30249V9.30249Z" fill="#005B00" stroke="#1F1E1E" stroke-width="0.0253398"/>
<path fill-rule="evenodd" clip-rule="evenodd" d="M15.9546 10.3164C15.6718 10.4861 15.4391 10.5849 15.1969 10.6699C15.4552 10.4652 15.5825 10.3586 15.8653 10.1889C16.1481 10.0192 16.4435 9.90236 16.6805 9.80986C16.4968 9.94049 16.2389 10.1458 15.9546 10.3164V10.3164Z" fill="#005B00" stroke="#1F1E1E" stroke-width="0.0318161"/>
<path fill-rule="evenodd" clip-rule="evenodd" d="M16.7801 10.57C16.4068 10.7962 16.0889 10.903 15.7531 10.9795C16.0809 10.6762 16.241 10.5157 16.6143 10.2895C16.9876 10.0632 17.3935 9.94422 17.7195 9.85122C17.4824 10.0378 17.1554 10.3425 16.7801 10.57V10.57Z" fill="#005B00" stroke="#1F1E1E" stroke-width="0.05296"/>
<path d="M14.2431 14.2316C14.2671 14.2178 14.0396 12.2328 15.5582 10.1681" stroke="#1F1E1E" stroke-width="0.107842"/>
<path fill-rule="evenodd" clip-rule="evenodd" d="M16.5691 10.0481C16.5939 10.0903 16.5725 10.1499 16.52 10.1791C16.4674 10.2083 16.4044 10.197 16.3789 10.1537C16.3534 10.1104 16.376 10.053 16.4286 10.0238C16.4812 9.99457 16.5442 10.0058 16.5691 10.0481Z" fill="#FF0000" stroke="#1F1E1E" stroke-width="0.0339879"/>
<path fill-rule="evenodd" clip-rule="evenodd" d="M17.2441 9.65437C17.2689 9.69663 17.2476 9.75616 17.195 9.78536C17.1424 9.81457 17.0794 9.80332 17.0539 9.76001C17.0284 9.7167 17.0511 9.65928 17.1036 9.63007C17.1562 9.60086 17.2192 9.61211 17.2441 9.65437Z" fill="#FF0000" stroke="#1F1E1E" stroke-width="0.0339879"/>
<path fill-rule="evenodd" clip-rule="evenodd" d="M15.3605 10.9778C15.3779 11.0101 15.3454 11.0612 15.287 11.0904C15.2286 11.1196 15.167 11.1166 15.1492 11.0834C15.1313 11.0503 15.1646 11.0009 15.2231 10.9717C15.2815 10.9424 15.3431 10.9455 15.3605 10.9778Z" fill="#FF0000" stroke="#1F1E1E" stroke-width="0.0306445"/>
<path fill-rule="evenodd" clip-rule="evenodd" d="M15.5605 10.8901C15.5779 10.9224 15.5455 10.9735 15.487 11.0027C15.4286 11.0319 15.367 11.0289 15.3492 10.9958C15.3314 10.9626 15.3647 10.9132 15.4231 10.884C15.4815 10.8548 15.5431 10.8578 15.5605 10.8901Z" fill="#FF0000" stroke="#1F1E1E" stroke-width="0.0306445"/>
<path fill-rule="evenodd" clip-rule="evenodd" d="M15.4417 11.078C15.4591 11.1103 15.4266 11.1614 15.3682 11.1906C15.3098 11.2198 15.2482 11.2167 15.2304 11.1836C15.2125 11.1505 15.2459 11.101 15.3043 11.0718C15.3627 11.0426 15.4243 11.0457 15.4417 11.078Z" fill="#FF0000" stroke="#1F1E1E" stroke-width="0.0306445"/>
<path fill-rule="evenodd" clip-rule="evenodd" d="M15.7925 11.104C15.8174 11.1537 15.7925 11.2159 15.7304 11.247C15.6682 11.278 15.6061 11.2594 15.5812 11.2035C15.5564 11.1475 15.5812 11.0916 15.6434 11.0605C15.7055 11.0295 15.7677 11.0481 15.7863 11.104H15.7925Z" fill="#FF0000" stroke="#1F1E1E" stroke-width="0.0379471"/>
<path fill-rule="evenodd" clip-rule="evenodd" d="M15.9376 10.9543C15.9563 11.0043 15.9376 11.0668 15.8751 11.098C15.8126 11.1293 15.7501 11.1105 15.7188 11.0605C15.6876 11.0105 15.7188 10.9418 15.7813 10.9105C15.8438 10.8793 15.9063 10.9043 15.9313 10.9543H15.9376Z" fill="#FF0000" stroke="#1F1E1E" stroke-width="0.0379471"/>
<path fill-rule="evenodd" clip-rule="evenodd" d="M15.9675 11.0227C15.9923 11.0724 15.9675 11.1407 15.9053 11.1656C15.8432 11.1904 15.7811 11.178 15.7562 11.1283C15.7313 11.0786 15.7562 11.0164 15.8183 10.9854C15.8805 10.9543 15.9426 10.9729 15.9675 11.0227Z" fill="#FF0000" stroke="#1F1E1E" stroke-width="0.0379471"/>
<path fill-rule="evenodd" clip-rule="evenodd" d="M12.8017 11.9571C12.8017 12.643 11.5185 20.1954 14.7302 22.253C16.0135 22.9389 17.9384 21.5671 17.9384 22.253L17.2967 16.7621L12.8017 11.9571Z" fill="#0000C4" stroke="#1F1E1E" stroke-width="0.101136"/>
<path fill-rule="evenodd" clip-rule="evenodd" d="M14.085 13.3289C14.085 14.0147 13.4434 19.5056 15.3719 20.8812C16.6552 22.253 19.8669 21.881 19.8669 21.881L17.2968 16.7621L14.085 13.3289V13.3289Z" fill="#E10000" stroke="#1F1E1E" stroke-width="0.101136"/>
<path fill-rule="evenodd" clip-rule="evenodd" d="M11.4876 10.5229L17.4126 16.7729L17.5188 16.6729L11.5938 10.4292L11.4938 10.5292L11.4876 10.5229Z" fill="#1F1E1E"/>
<path fill-rule="evenodd" clip-rule="evenodd" d="M10.5758 9.78214L10.9519 9.84851L11.0626 9.95914C11.0474 9.95801 11.1732 10.0698 11.0183 10.2246C10.8634 10.3795 10.6431 10.1574 10.6431 10.1574C10.6431 10.1574 10.7094 10.5335 10.9313 10.7554C11.1532 10.9773 11.4181 10.9324 11.4181 10.9324C11.4181 10.9324 11.1659 10.7258 11.3517 10.5563C11.5377 10.3853 11.6172 10.512 11.6172 10.512L11.8384 10.7333L11.9942 10.5775L11.1086 9.69189L11.0422 9.31576L10.4717 9.22126L10.5761 9.78064L10.5758 9.78214Z" fill="#CECECC" stroke="#1F1E1E" stroke-width="0.0282212"/>
<path fill-rule="evenodd" clip-rule="evenodd" d="M11.4486 7.15563L11.9038 7.86113L12.4799 8.01663L12.1038 8.26L12.7896 8.23788L13.1003 8.45975L13.2115 8.28175L12.9 8.05925L12.6573 7.37238L12.5903 7.838L12.236 7.3275L11.4484 7.154L11.4486 7.15563Z" fill="#CECECC" stroke="#1F1E1E" stroke-width="0.0303866"/>
<path fill-rule="evenodd" clip-rule="evenodd" d="M13.3 7.57941C13.3 7.61691 13.25 7.64879 13.1925 7.64879C13.135 7.64879 13.0825 7.61691 13.0825 7.57941C13.0825 7.54191 13.1325 7.50816 13.1925 7.50816C13.2525 7.50816 13.3 7.54004 13.3 7.57941ZM13.145 7.72754C13.145 8.39879 13.6675 11.2488 13.71 11.3182C13.7125 11.4025 13.59 11.4382 13.5325 11.335C13.3675 11.0088 13.0125 8.33504 13 7.71066C12.9925 7.45379 13.0925 7.43316 13.2075 7.43879C13.3 7.44254 13.415 7.50816 13.415 7.58691C13.415 7.68066 13.27 7.75004 13.145 7.72754V7.72754Z" fill="#E10000" stroke="#1F1E1E" stroke-width="0.0584234"/>
<path fill-rule="evenodd" clip-rule="evenodd" d="M13.5 8.24494C13.4813 8.28244 13.4178 8.30181 13.3632 8.28744C13.3086 8.27306 13.2746 8.22806 13.2934 8.19056C13.3121 8.15306 13.3765 8.13181 13.4335 8.14681C13.4905 8.16181 13.5197 8.20556 13.5 8.24494ZM13.2787 8.35431C13.4512 9.70244 12.8725 11.7843 12.8773 11.8662C12.8384 11.9493 12.7033 11.9562 12.7011 11.8368C12.6727 11.7593 13.3389 9.87869 13.1494 8.30119C13.2707 8.04244 13.376 8.04681 13.4824 8.08119C13.5684 8.10806 13.6449 8.20244 13.6055 8.28119C13.5586 8.37494 13.3862 8.40806 13.2787 8.35431V8.35431Z" fill="#0000C4" stroke="#1F1E1E" stroke-width="0.0612274"/>
<path fill-rule="evenodd" clip-rule="evenodd" d="M11.6688 10.1168C11.6688 10.1793 11.6063 10.2418 11.5313 10.2418C11.4563 10.2418 11.3938 10.1793 11.3938 10.1168C11.3938 10.0543 11.4563 10.0043 11.5313 10.0043C11.6063 10.0043 11.6626 10.0543 11.6626 10.1168H11.6688ZM11.4688 10.3668C11.4688 11.4856 12.1251 16.2356 12.1751 16.3543C12.1751 16.4918 12.0313 16.5543 11.9563 16.3793C11.7501 15.8356 11.3063 11.3793 11.2876 10.3418C11.2813 9.91056 11.4063 9.87931 11.5501 9.88556C11.6688 9.89181 11.8063 10.0043 11.8063 10.1356C11.8063 10.2856 11.6251 10.4043 11.4688 10.3668Z" fill="#E10000" stroke="#1F1E1E" stroke-width="0.0885432"/>
<path fill-rule="evenodd" clip-rule="evenodd" d="M12.0062 10.6939C11.9812 10.7539 11.9 10.7862 11.831 10.7646C11.762 10.7431 11.7202 10.6724 11.7452 10.6124C11.7702 10.5524 11.8527 10.5171 11.9247 10.5396C11.9967 10.5621 12.0325 10.6309 12.0062 10.6939ZM11.7215 10.8728C11.899 13.0101 11.0987 16.3304 11.1022 16.4603C11.0502 16.5932 10.8782 16.6073 10.8792 16.4177C10.8455 16.2953 11.7507 13.2927 11.5587 10.7914C11.721 10.3776 11.8547 10.3821 11.989 10.4342C12.0975 10.4749 12.1917 10.6231 12.1392 10.7491C12.0767 10.8991 11.8565 10.9557 11.7215 10.8728V10.8728Z" fill="#0000C4" stroke="#1F1E1E" stroke-width="0.0862452"/>
<path fill-rule="evenodd" clip-rule="evenodd" d="M23.15 18.8231L27.6813 23.6043L27.7625 23.5043L23.2313 18.7231L23.15 18.8231ZM20 19.6043L25.925 25.8543L26.025 25.7543L20.1063 19.5043L20 19.6043V19.6043Z" fill="#1F1E1E"/>
<path fill-rule="evenodd" clip-rule="evenodd" d="M25.9067 25.7812L26.4605 26.3349L27.0917 26.8112L26.6154 26.18L26.0616 25.6263L25.9067 25.7812Z" fill="#808080" stroke="#1F1E1E" stroke-width="0.0613628"/>
<path fill-rule="evenodd" clip-rule="evenodd" d="M27.4318 23.3375L27.9856 23.8912L28.6167 24.3676L28.1404 23.7364L27.5867 23.1826L27.4318 23.3375Z" fill="#808080" stroke="#1F1E1E" stroke-width="0.0613628"/>
<path fill-rule="evenodd" clip-rule="evenodd" d="M27.0038 7.82239C27.0038 7.82239 27.5016 21.2864 25.5104 21.2864C23.5191 21.2864 22.5207 19.8704 22.5207 19.8704L22.5432 12.4704L27.0038 7.82239V7.82239Z" fill="#FFDF00" stroke="#1F1E1E" stroke-width="0.0905091"/>
<path fill-rule="evenodd" clip-rule="evenodd" d="M25.786 9.07846C25.786 9.78646 26.0082 19.8705 25.0125 19.8705C24.0169 19.8705 22.5207 19.1625 22.5207 19.1625L22.5432 12.4705L25.786 9.07846V9.07846Z" fill="#0000C4" stroke="#1F1E1E" stroke-width="0.0905091"/>
<path fill-rule="evenodd" clip-rule="evenodd" d="M25.1392 9.75858C25.1392 10.4666 25.0127 18.4546 24.0142 18.4546H22.5208L22.5433 12.4706L25.1392 9.75858Z" fill="#E10000" stroke="#1F1E1E" stroke-width="0.0905091"/>
<path fill-rule="evenodd" clip-rule="evenodd" d="M27.1126 7.89797L22.5876 12.6792L22.5063 12.5792L27.0313 7.79797L27.1126 7.89797Z" fill="#1F1E1E"/>
<path fill-rule="evenodd" clip-rule="evenodd" d="M23.5408 11.5901C23.5408 11.5901 24.8093 13.2176 25.4213 14.4755C26.0328 15.7359 26.7468 17.6565 26.7468 17.6565C26.7468 17.6565 26.3388 15.7656 25.5688 14.2497C24.5598 12.3426 23.5403 11.6986 23.5408 11.5901Z" fill="#005B00" stroke="#1F1E1E" stroke-width="0.0422313"/>
<path fill-rule="evenodd" clip-rule="evenodd" d="M23.4969 10.2976C23.4969 10.2976 24.9124 12.3104 25.5585 13.8033C26.2039 15.2989 26.9224 17.5408 26.9224 17.5408C26.9224 17.5408 26.5736 15.3839 25.7555 13.5792C24.6772 11.302 23.4878 10.4173 23.4969 10.2976Z" fill="#005B00" stroke="#1F1E1E" stroke-width="0.0487976"/>
<path fill-rule="evenodd" clip-rule="evenodd" d="M24.7186 8.30731C24.7186 8.30731 25.7201 11.2879 26.0252 13.1311C26.3288 14.9758 26.5142 17.5146 26.5142 17.5146C26.5142 17.5146 26.7071 15.3838 26.298 13.1219C25.7321 10.2261 24.6771 8.39969 24.7186 8.30731Z" fill="#005B00" stroke="#1F1E1E" stroke-width="0.0554268"/>
<path fill-rule="evenodd" clip-rule="evenodd" d="M23.8194 8.17084C23.8194 8.17084 25.2062 10.8179 25.7464 12.6167C26.2851 14.4181 26.7917 17.017 26.7917 17.017C26.7917 17.017 26.7186 14.6561 26.0208 12.4664C25.0847 9.68471 23.789 8.29028 23.8194 8.17084Z" fill="#005B00" stroke="#1F1E1E" stroke-width="0.0561654"/>
<path fill-rule="evenodd" clip-rule="evenodd" d="M25.4848 9.01328C25.4848 9.01328 26.1749 11.8633 26.3483 13.5636C26.5203 15.265 26.5696 17.5607 26.5696 17.5607C26.5696 17.5607 26.8093 15.7028 26.5687 13.6093C26.2266 10.9208 25.4477 9.08728 25.4848 9.01328Z" fill="#005B00" stroke="#1F1E1E" stroke-width="0.0498086"/>
<path fill-rule="evenodd" clip-rule="evenodd" d="M23.661 9.09164C23.661 9.09164 25.0027 11.3591 25.5456 12.9441C26.0873 14.5316 26.6207 16.8516 26.6207 16.8516C26.6207 16.8516 26.491 14.7016 25.7932 12.7766C24.8613 10.3366 23.6364 9.20414 23.661 9.09164Z" fill="#005B00" stroke="#1F1E1E" stroke-width="0.051227"/>
<path fill-rule="evenodd" clip-rule="evenodd" d="M23.4093 10.6711C23.4093 10.6711 24.8249 12.4686 25.471 13.8453C26.1163 15.2248 26.8348 17.3195 26.8348 17.3195C26.8348 17.3195 26.4861 15.2673 25.6679 13.607C24.5897 11.517 23.4003 10.788 23.4093 10.6711Z" fill="#005B00" stroke="#1F1E1E" stroke-width="0.0482584"/>
<path fill-rule="evenodd" clip-rule="evenodd" d="M23.5931 9.84521C23.5931 9.84521 24.8953 11.9599 25.4622 13.4896C26.0281 15.022 26.6306 17.2951 26.6306 17.2951C26.6306 17.2951 26.3894 15.141 25.6675 13.2882C24.7112 10.9458 23.5784 9.96203 23.5931 9.84521Z" fill="#005B00" stroke="#1F1E1E" stroke-width="0.0481549"/>
<path fill-rule="evenodd" clip-rule="evenodd" d="M25.0034 8.35257C25.0034 8.35257 25.8405 11.2708 26.048 13.0531C26.2539 14.8368 26.3076 17.2752 26.3076 17.2752C26.3076 17.2752 26.6066 15.2533 26.3179 13.0636C25.9065 10.2572 24.9577 8.43788 25.0034 8.35257Z" fill="#005B00" stroke="#1F1E1E" stroke-width="0.0538782"/>
<path fill-rule="evenodd" clip-rule="evenodd" d="M23.8543 7.62515C23.8543 7.62515 25.0768 10.3741 25.5193 12.2098C25.9603 14.0479 26.3353 16.678 26.3353 16.678C26.3353 16.678 26.3683 14.3199 25.7908 12.0821C25.0093 9.23528 23.8198 7.74172 23.8543 7.62515Z" fill="#005B00" stroke="#1F1E1E" stroke-width="0.0553912"/>
<path fill-rule="evenodd" clip-rule="evenodd" d="M25.8009 9.22208C25.8009 9.22208 26.3267 11.9587 26.4024 13.5798C26.4767 15.2018 26.3943 17.3815 26.3943 17.3815C26.3943 17.3815 26.7402 15.6311 26.6198 13.6339C26.4323 11.0673 25.7596 9.29045 25.8009 9.22208Z" fill="#005B00" stroke="#1F1E1E" stroke-width="0.0478924"/>
<path fill-rule="evenodd" clip-rule="evenodd" d="M23.6981 8.75842C23.6981 8.75842 24.9206 11.1278 25.3631 12.7497C25.8041 14.3739 26.1791 16.7252 26.1791 16.7252C26.1791 16.7252 26.2121 14.5779 25.6346 12.6048C24.8531 10.0997 23.6636 8.86805 23.6981 8.75842Z" fill="#005B00" stroke="#1F1E1E" stroke-width="0.0523459"/>
<path fill-rule="evenodd" clip-rule="evenodd" d="M28.4816 10.5817C28.4816 10.5817 29.7648 23.6249 25.9151 23.6249C22.707 23.6249 22.707 21.5673 22.0653 21.5673L22.707 16.7623L28.4852 10.5817H28.4816Z" fill="#FFDF00" stroke="#1F1E1E" stroke-width="0.101136"/>
<path fill-rule="evenodd" clip-rule="evenodd" d="M27.1983 11.9572C27.1983 12.6431 28.4816 20.1954 25.2698 22.2531C23.9866 22.9389 22.0617 21.5672 22.0617 22.2531L22.7033 16.7622L27.1983 11.9572Z" fill="#0000C4" stroke="#1F1E1E" stroke-width="0.101136"/>
<path fill-rule="evenodd" clip-rule="evenodd" d="M25.9151 13.3289C25.9151 14.0147 26.5568 19.5056 24.6283 20.8812C23.345 22.253 20.1333 21.881 20.1333 21.881L22.7034 16.7621L25.9151 13.3289V13.3289Z" fill="#E10000" stroke="#1F1E1E" stroke-width="0.101136"/>
<path fill-rule="evenodd" clip-rule="evenodd" d="M28.5126 10.523L22.5876 16.773L22.4813 16.673L28.4063 10.4293L28.5126 10.5293V10.523Z" fill="#1F1E1E"/>
<path fill-rule="evenodd" clip-rule="evenodd" d="M29.4243 9.7822L29.0481 9.84858L28.9375 9.9592C28.9526 9.95808 28.8269 10.0698 28.9818 10.2247C29.1366 10.3796 29.357 10.1575 29.357 10.1575C29.357 10.1575 29.2906 10.5336 29.0688 10.7555C28.8469 10.9773 28.582 10.9324 28.582 10.9324C28.582 10.9324 28.8341 10.7258 28.6484 10.5563C28.4624 10.3853 28.3829 10.5121 28.3829 10.5121L28.1616 10.7333L28.0059 10.5776L28.8915 9.69195L28.9579 9.31583L29.5284 9.22133L29.424 9.7807L29.4243 9.7822Z" fill="#CECECC" stroke="#1F1E1E" stroke-width="0.0282212"/>
<path fill-rule="evenodd" clip-rule="evenodd" d="M28.5515 7.1555L28.0963 7.861L27.5202 8.0165L27.8963 8.25988L27.2105 8.23775L26.8998 8.45963L26.7886 8.28163L27.1001 8.05913L27.3428 7.37225L27.4098 7.83788L27.7641 7.32738L28.5517 7.15388L28.5515 7.1555Z" fill="#CECECC" stroke="#1F1E1E" stroke-width="0.0303866"/>
<path fill-rule="evenodd" clip-rule="evenodd" d="M26.7063 7.57929C26.7063 7.61679 26.7563 7.64867 26.8138 7.64867C26.8713 7.64867 26.9238 7.61679 26.9238 7.57929C26.9238 7.54179 26.8738 7.50804 26.8138 7.50804C26.7538 7.50804 26.7063 7.53992 26.7063 7.57929ZM26.8613 7.72742C26.8613 8.39867 26.3388 11.2487 26.2963 11.318C26.2938 11.4024 26.4163 11.438 26.4738 11.3349C26.6388 11.0087 26.9938 8.33492 27.0063 7.71054C27.0138 7.45367 26.9138 7.43304 26.7988 7.43867C26.7063 7.44242 26.5913 7.50804 26.5913 7.58679C26.5913 7.68054 26.7363 7.74992 26.8613 7.72742V7.72742Z" fill="#E10000" stroke="#1F1E1E" stroke-width="0.0584234"/>
<path fill-rule="evenodd" clip-rule="evenodd" d="M26.5001 8.24481C26.5188 8.28231 26.5823 8.30169 26.6369 8.28731C26.6915 8.27294 26.7255 8.22794 26.7067 8.19044C26.688 8.15294 26.6236 8.13169 26.5666 8.14669C26.5096 8.16169 26.4804 8.20544 26.5001 8.24481ZM26.7214 8.35419C26.5489 9.70231 27.1276 11.7842 27.1228 11.8661C27.1617 11.9492 27.2968 11.9561 27.299 11.8367C27.3274 11.7592 26.6612 9.87856 26.8507 8.30106C26.7294 8.04231 26.6241 8.04669 26.5177 8.08106C26.4317 8.10794 26.3552 8.20231 26.3946 8.28106C26.4415 8.37481 26.6139 8.40794 26.7214 8.35419V8.35419Z" fill="#0000C4" stroke="#1F1E1E" stroke-width="0.0612274"/>
<path fill-rule="evenodd" clip-rule="evenodd" d="M28.3376 10.1167C28.3376 10.1792 28.4001 10.2417 28.4689 10.2417C28.5439 10.2417 28.6064 10.1792 28.6064 10.1167C28.6064 10.0542 28.5439 10.0042 28.4689 10.0042C28.3939 10.0042 28.3376 10.0542 28.3376 10.1167ZM28.5251 10.3667C28.3755 12.3714 28.1419 14.369 27.8251 16.3542C27.8251 16.4917 27.9689 16.5542 28.0439 16.3792C28.2501 15.8354 28.6939 11.3792 28.7126 10.3417C28.7189 9.91044 28.5939 9.87919 28.4501 9.88544C28.3314 9.89169 28.1939 10.0042 28.1939 10.1354C28.1939 10.2854 28.3751 10.4042 28.5314 10.3667H28.5251Z" fill="#E10000" stroke="#1F1E1E" stroke-width="0.0885432"/>
<path fill-rule="evenodd" clip-rule="evenodd" d="M27.9939 10.694C28.0189 10.754 28.1001 10.7862 28.1691 10.7647C28.2381 10.7431 28.2799 10.6724 28.2549 10.6124C28.2299 10.5524 28.1474 10.5172 28.0754 10.5397C28.0034 10.5622 27.9676 10.631 27.9939 10.694ZM28.2786 10.8729C28.1011 13.0102 28.9014 16.3304 28.8979 16.4604C28.9499 16.5933 29.1219 16.6074 29.1209 16.4178C29.1546 16.2954 28.2494 13.2927 28.4414 10.7915C28.2791 10.3777 28.1454 10.3822 28.0111 10.4343C27.9026 10.475 27.8084 10.6231 27.8609 10.7491C27.9234 10.8991 28.1436 10.9557 28.2786 10.8729V10.8729Z" fill="#0000C4" stroke="#1F1E1E" stroke-width="0.0862452"/>
<path fill-rule="evenodd" clip-rule="evenodd" d="M17.942 27.058C18.2349 27.2378 18.5667 27.3324 18.9044 27.3324C19.2422 27.3324 19.574 27.2378 19.8669 27.058V21.5671H18.5836C19.2252 23.6247 19.2252 25.6862 17.9384 27.058H17.942Z" fill="#E10000" stroke="#1F1E1E" stroke-width="0.101136"/>
<path fill-rule="evenodd" clip-rule="evenodd" d="M18.9582 21.6884C18.9582 25.5603 18.0285 26.4221 18.0285 27.2009C18.4157 27.2009 18.6738 26.8378 18.9582 26.339C19.3453 25.5603 19.3825 21.6271 19.3453 21.6884H18.9582Z" fill="#0000C4" stroke="#1F1E1E" stroke-width="0.0834794"/>
<path fill-rule="evenodd" clip-rule="evenodd" d="M18.1838 21.6885C18.1641 23.9504 17.2038 26.046 17.3853 26.5098C17.5909 26.9254 18.1838 25.5604 18.9581 26.3348C19.3453 25.5604 19.3825 21.6273 19.3453 21.6842H18.1838V21.6885Z" fill="#0000C4" stroke="#1F1E1E" stroke-width="0.0834794"/>
<path fill-rule="evenodd" clip-rule="evenodd" d="M18.2706 21.3586C18.2706 23.903 17.3803 24.0726 17.3803 24.7511C17.7675 24.7511 18.2685 24.3802 18.2706 24.4147C18.6578 23.903 18.695 21.3184 18.6578 21.3586H18.2706Z" fill="#FFDF00" stroke="#1F1E1E" stroke-width="0.067672"/>
<path fill-rule="evenodd" clip-rule="evenodd" d="M17.4963 21.3587C17.4766 22.8451 16.5382 24.1101 16.7197 24.4148C16.9275 24.6851 17.4963 23.9031 18.2706 24.4148C18.6578 23.9031 18.695 21.3184 18.6578 21.3587H17.4963Z" fill="#FFDF00" stroke="#1F1E1E" stroke-width="0.067672"/>
<path fill-rule="evenodd" clip-rule="evenodd" d="M22.058 27.058C21.7651 27.2378 21.4333 27.3324 21.0956 27.3324C20.7578 27.3324 20.426 27.2378 20.1331 27.058V21.5671H21.4164C20.7747 23.6247 20.7747 25.6862 22.0616 27.058H22.058Z" fill="#E10000" stroke="#1F1E1E" stroke-width="0.101136"/>
<path fill-rule="evenodd" clip-rule="evenodd" d="M21.0419 21.6884C21.0419 25.5603 21.9716 26.4221 21.9716 27.2009C21.5844 27.2009 21.3263 26.8378 21.0419 26.339C20.6547 25.5603 20.6176 21.6271 20.6547 21.6884H21.0419Z" fill="#0000C4" stroke="#1F1E1E" stroke-width="0.0834794"/>
<path fill-rule="evenodd" clip-rule="evenodd" d="M21.8162 21.6885C21.8359 23.9504 22.7962 26.046 22.6147 26.5098C22.4091 26.9254 21.8162 25.5604 21.0419 26.3348C20.6547 25.5604 20.6175 21.6273 20.6547 21.6842H21.8162V21.6885Z" fill="#0000C4" stroke="#1F1E1E" stroke-width="0.0834794"/>
<path fill-rule="evenodd" clip-rule="evenodd" d="M21.7293 21.3586C21.7293 23.903 22.6197 24.0726 22.6197 24.7511C22.2325 24.7511 21.7315 24.3802 21.7293 24.4147C21.3422 23.903 21.305 21.3184 21.3422 21.3586H21.7293Z" fill="#FFDF00" stroke="#1F1E1E" stroke-width="0.067672"/>
<path fill-rule="evenodd" clip-rule="evenodd" d="M22.5037 21.3586C22.5234 22.845 23.4618 24.11 23.2803 24.4147C23.0725 24.685 22.5037 23.903 21.7293 24.4147C21.3421 23.903 21.305 21.3184 21.3421 21.3586H22.5037Z" fill="#FFDF00" stroke="#1F1E1E" stroke-width="0.067672"/>
<path fill-rule="evenodd" clip-rule="evenodd" d="M15.102 21.9954L14.4293 22.4821L15.102 22.9689L15.438 22.7255L15.606 22.9689L15.774 23.4556L15.9428 22.9689L16.1108 22.7255H25.125V22.2388H16.11L15.942 21.994C15.942 21.7506 15.9773 21.5073 16.1108 21.5073H16.7828C16.7828 21.2639 16.4468 20.7771 15.774 20.7771C15.102 20.7771 14.7653 21.2639 14.7653 21.5073H15.438C15.5708 21.5073 15.606 21.7506 15.606 21.9954L15.438 22.2388L15.1013 21.994L15.102 21.9954Z" fill="#908F8A" stroke="#1F1E1E" stroke-width="0.0924851"/>
<path fill-rule="evenodd" clip-rule="evenodd" d="M17.0752 23.1753H22.9675V23.474H17.077L17.0752 23.1753ZM17.0752 22.875H22.9675V23.1753H17.077L17.0752 22.875ZM17.0752 22.5763H22.9675V22.8767H17.077L17.0752 22.5763ZM17.0752 22.2776H22.9675V22.5763H17.077L17.0752 22.2776ZM17.0752 21.9789H22.9675V22.2776H17.077L17.0752 21.9789ZM17.0752 21.6785H22.9675V21.9789H17.077L17.0752 21.6785ZM17.0752 21.3815H22.9675V21.6785H17.077L17.0752 21.3815Z" fill="#B74D00" stroke="#1F1E1E" stroke-width="0.0626023"/>
<path fill-rule="evenodd" clip-rule="evenodd" d="M17.3563 21.364L19.5094 23.4565H19.8173L17.6657 21.3657H17.3579L17.3563 21.364Z" fill="#908F8A" stroke="#1F1E1E" stroke-width="0.108448"/>
<path fill-rule="evenodd" clip-rule="evenodd" d="M17.3563 23.5197L19.5094 21.4272H19.8173L17.6657 23.518H17.3579L17.3563 23.5197Z" fill="#908F8A" stroke="#1F1E1E" stroke-width="0.108448"/>
<path fill-rule="evenodd" clip-rule="evenodd" d="M17.416 21.364V23.4565H17.7258V21.364H17.416V21.364Z" fill="#908F8A" stroke="#1F1E1E" stroke-width="0.107815"/>
<path fill-rule="evenodd" clip-rule="evenodd" d="M20.125 21.364L22.2781 23.4565H22.5859L20.4344 21.3657H20.1266L20.125 21.364Z" fill="#908F8A" stroke="#1F1E1E" stroke-width="0.108448"/>
<path fill-rule="evenodd" clip-rule="evenodd" d="M20.125 23.5197L22.2781 21.4272H22.5859L20.4344 23.518H20.1266L20.125 23.5197Z" fill="#908F8A" stroke="#1F1E1E" stroke-width="0.108448"/>
<path fill-rule="evenodd" clip-rule="evenodd" d="M22.341 21.364V23.4565H22.6508V21.364H22.341V21.364Z" fill="#908F8A" stroke="#1F1E1E" stroke-width="0.107815"/>
<path fill-rule="evenodd" clip-rule="evenodd" d="M20.1911 21.364V23.4565H20.5008V21.364H20.1911V21.364Z" fill="#908F8A" stroke="#1F1E1E" stroke-width="0.107815"/>
<path fill-rule="evenodd" clip-rule="evenodd" d="M19.566 21.364V23.4565H19.8758V21.364H19.566V21.364Z" fill="#908F8A" stroke="#1F1E1E" stroke-width="0.107815"/>
<path fill-rule="evenodd" clip-rule="evenodd" d="M24.3619 15.3904C24.3619 18.8004 22.3464 21.5672 19.8669 21.5672C17.3874 21.5672 15.3719 18.8004 15.3719 15.3904C15.3719 11.9804 17.3838 9.20981 19.8669 9.20981C22.35 9.20981 24.3619 11.9766 24.3619 15.3866V15.3904ZM23.7203 15.3904C23.7203 18.4207 21.9948 20.8813 19.8669 20.8813C17.739 20.8813 16.0135 18.4207 16.0135 15.3904C16.0135 12.3563 17.739 9.89568 19.8669 9.89568C21.9948 9.89568 23.7203 12.3563 23.7203 15.3904V15.3904Z" fill="#FFDF00" stroke="#1F1E1E" stroke-width="0.101136"/>
<path fill-rule="evenodd" clip-rule="evenodd" d="M21.6178 9.698C21.0777 9.38412 20.4868 9.20975 19.8669 9.20975C19.2471 9.20975 18.6562 9.38412 18.1161 9.69412L18.3698 10.3296C18.8257 10.0487 19.3426 9.90088 19.8688 9.90088C20.3949 9.90088 20.9118 10.0487 21.3677 10.3296L21.6178 9.69412V9.698Z" fill="#FFDF00" stroke="#1F1E1E" stroke-width="0.101136"/>
<path fill-rule="evenodd" clip-rule="evenodd" d="M21.6302 20.9167C21.0901 21.2306 20.4992 21.405 19.8794 21.405C19.2595 21.405 18.6686 21.2306 18.1285 20.9206L18.3822 20.2851C18.8381 20.566 19.355 20.7139 19.8812 20.7139C20.4073 20.7139 20.9242 20.566 21.3801 20.2851L21.6302 20.9206V20.9167Z" fill="#FFDF00" stroke="#1F1E1E" stroke-width="0.101136"/>
<path fill-rule="evenodd" clip-rule="evenodd" d="M23.725 15.3918C23.725 18.423 21.9938 20.8793 19.8688 20.8793C17.7438 20.8793 16.0188 18.423 16.0188 15.3918C16.0188 12.3605 17.7438 9.89175 19.8688 9.89175C21.9938 9.89175 23.725 12.3543 23.725 15.3918V15.3918Z" fill="#A7CFFF"/>
<path fill-rule="evenodd" clip-rule="evenodd" d="M23.7203 15.3904C23.7601 16.4212 23.5535 16.9249 23.2889 17.9983C23.22 18.1145 22.8901 17.7464 22.6944 17.5643C22.4986 17.3822 22.4116 17.727 22.1651 17.448C21.9223 17.1613 21.7664 17.5255 21.5851 17.2853C21.4039 17.045 19.7255 17.014 19.7255 16.9908C19.8923 16.9055 20.7478 16.9985 20.61 16.5607C20.4541 16.1034 19.4863 16.5452 19.3558 15.9639C19.2651 15.3827 17.4128 15.3594 17.2786 15.2199C17.333 15.4369 18.7214 15.5299 18.6888 16.0918C18.6561 16.3243 17.3221 16.3902 17.1916 16.5839C17.0829 16.828 18.2429 16.518 18.2828 16.8164C18.2828 16.9404 18.1124 16.8164 17.5106 17.0102C17.2061 17.107 18.0689 17.4093 17.7426 17.5759C17.4164 17.7425 16.7168 17.8162 16.7458 17.8859C16.8545 18.2347 18.3661 18.6454 18.2175 18.7035C17.681 18.9593 17.3983 19.1259 17.1409 19.2732C16.3867 18.1409 15.9917 16.7802 16.0135 15.3904C17.1626 14.9487 16.9198 14.8557 19.044 14.8557C21.1683 14.8557 21.8715 14.9448 23.7203 15.3904V15.3904Z" fill="#AFFF7B" stroke="#1F1E1E" stroke-width="0.101136"/>
<path fill-rule="evenodd" clip-rule="evenodd" d="M23.7202 15.3902C23.4302 15.3902 23.1257 15.522 22.814 15.522C22.4986 15.522 22.1796 15.3864 21.8533 15.3864C21.5271 15.3864 21.1537 15.5646 20.8202 15.5646C20.4831 15.5646 20.1895 15.3902 19.8523 15.3902C19.5152 15.3902 19.1781 15.522 18.8446 15.522C18.5111 15.522 18.1812 15.3864 17.8586 15.3864C17.536 15.3864 17.217 15.522 16.9088 15.522C16.6007 15.522 16.2998 15.3864 16.0135 15.3864C16.0135 14.6307 16.1222 13.91 16.318 13.2512C17.2967 13.3287 16.7167 12.6429 17.2967 12.6429C17.466 12.6331 17.6354 12.6619 17.7935 12.7273C17.9516 12.7928 18.0949 12.8935 18.2138 13.0226C18.3008 13.0226 18.7358 12.5809 19.2252 12.6429C19.711 12.7049 19.5333 13.7007 20.1822 13.7511C20.5085 14.0146 20.7006 14.1812 21.1501 14.2897C21.7917 14.3517 23.6296 14.1929 23.6405 14.282C23.6934 14.6487 23.72 15.0192 23.7202 15.3902V15.3902Z" fill="white" stroke="#1F1E1E" stroke-width="0.101136"/>
<path fill-rule="evenodd" clip-rule="evenodd" d="M20.4488 18.5868C20.4488 18.4158 20.6175 18.3018 20.6175 18.0288C20.6175 17.7558 20.4675 17.7498 20.4625 17.4948C20.46 17.3898 20.5913 17.2848 20.6488 17.2728C20.7063 17.2608 20.755 17.4948 20.755 17.5458C20.755 17.5968 20.6963 17.4198 20.6475 17.4168C20.5988 17.4138 20.4938 17.4348 20.4938 17.4858C20.4938 17.5878 20.6788 17.7138 20.665 18.0558C20.6513 18.3918 20.5063 18.4938 20.5063 18.5958C20.5063 18.6978 20.5688 18.9798 20.5688 18.9798C20.5688 18.9798 20.4475 18.7548 20.4475 18.5838L20.4488 18.5868Z" fill="#1F1E1E" stroke="#1F1E1E" stroke-width="0.0522555"/>
<path fill-rule="evenodd" clip-rule="evenodd" d="M20.9887 18.5617C20.9887 18.3907 20.82 18.2767 20.82 18.0037C20.82 17.7307 20.97 17.7247 20.975 17.4697C20.9875 17.3497 20.8275 17.2717 20.77 17.2627C20.7125 17.2537 20.645 17.5027 20.645 17.5507C20.645 17.5987 20.7125 17.3947 20.7612 17.3917C20.81 17.3887 20.9437 17.4097 20.9437 17.4607C20.9437 17.5627 20.7587 17.6887 20.7725 18.0307C20.7862 18.3667 20.9312 18.4687 20.9312 18.5707C20.9312 18.6727 20.8687 18.9547 20.8687 18.9547C20.8687 18.9547 20.99 18.7297 20.99 18.5587L20.9887 18.5617Z" fill="#1F1E1E" stroke="#1F1E1E" stroke-width="0.0522555"/>
<path fill-rule="evenodd" clip-rule="evenodd" d="M20.8126 17.2043C20.8126 17.2856 20.7688 17.3543 20.7188 17.3543C20.6688 17.3543 20.6313 17.2856 20.6313 17.1981C20.6313 17.1106 20.6688 17.0481 20.7188 17.0481C20.7688 17.0481 20.8126 17.1168 20.8126 17.2043ZM21.8751 17.7668H21.9001V18.9856H21.8688L21.8751 17.7668ZM22.1313 17.6668H22.1626V18.8981H22.1313V17.6668Z" fill="#1F1E1E"/>
<path fill-rule="evenodd" clip-rule="evenodd" d="M22.0375 18.2231V18.1919L22.2875 18.2356V18.2669L22.0375 18.2231Z" fill="#1F1E1E"/>
<path fill-rule="evenodd" clip-rule="evenodd" d="M18.4647 18.5767C18.4647 18.5767 19.4072 19.0185 19.6139 19.282C19.8169 19.5455 19.7371 19.5455 19.7371 19.5455L21.8287 19.6346C21.8287 19.5029 22.1985 19.5029 22.2819 19.1929C22.3652 18.8867 22.3652 18.7976 22.3652 18.7976L21.7091 19.0185L21.7454 18.6232H21.1726L21.0892 19.0185L19.8567 18.9759L19.9401 17.918L19.6936 17.9606L19.6574 18.9681C19.6139 18.9681 18.5046 18.662 18.4611 18.5767H18.4647Z" fill="#B74D00" stroke="#1F1E1E" stroke-width="0.101136"/>
<path fill-rule="evenodd" clip-rule="evenodd" d="M16.5681 12.2672C16.5681 12.2672 17.9347 11.8332 19.9067 11.8642C21.8787 11.8952 23.2454 12.3602 23.2164 12.3602C23.1874 12.3602 22.8393 11.6472 22.8393 11.6472C22.8393 11.6472 21.4473 11.2403 19.8777 11.2093C18.3117 11.1783 16.9451 11.5193 16.9777 11.5503L16.5681 12.2672V12.2672Z" fill="#FEDE00" stroke="#FEDE00" stroke-width="0.101136"/>
<path fill-rule="evenodd" clip-rule="evenodd" d="M19.125 11.2605L19.975 11.248L19.9875 11.7418L19.1375 11.7605L19.125 11.2605ZM17.175 11.5293L16.875 12.023L17.8875 11.898L17.8063 11.4168L17.175 11.5418V11.5293ZM18.0313 11.3418L18.8813 11.273L18.9188 11.7605L18.075 11.8355L18.0313 11.3418ZM21.0875 11.298L20.2438 11.2355L20.2125 11.7355L21.0563 11.7855L21.0875 11.298ZM22.9125 11.6105L23.2188 12.2105L22.3063 11.9855L22.4063 11.5043L22.9063 11.6043L22.9125 11.6105ZM22.175 11.423L21.3375 11.3168L21.275 11.8043L22.1188 11.9168L22.175 11.423Z" fill="#38A9F9"/>
<path fill-rule="evenodd" clip-rule="evenodd" d="M19.9068 12.5462L19.8162 12.0231L19.5407 12.4687L19.6422 11.9456L19.2325 12.2439L19.508 11.8061L19.0223 11.9146L19.4392 11.6201L18.9498 11.5232L19.4392 11.4224L19.0223 11.1279L19.508 11.2364L19.2289 10.7986L19.6422 11.0969L19.5407 10.5738L19.8162 11.0194L19.9068 10.4963L20.001 11.0194L20.2729 10.5738L20.175 11.0969L20.5847 10.7986L20.3055 11.2364L20.7949 11.1279L20.378 11.4224L20.8674 11.5232L20.378 11.6201L20.7949 11.9146L20.3055 11.8061L20.5847 12.2439L20.175 11.9456L20.2765 12.4687L20.001 12.0231L19.9068 12.5462Z" fill="#FFDF00" stroke="#1F1E1E" stroke-width="0.101136"/>
<path fill-rule="evenodd" clip-rule="evenodd" d="M20.6306 11.195C20.6306 11.4856 20.3955 11.72 20.1034 11.72C19.8112 11.72 19.5761 11.4856 19.5761 11.195C19.5761 10.9043 19.8112 10.6668 20.1034 10.6668C20.3955 10.6668 20.6306 10.9043 20.6306 11.1981V11.195Z" fill="#FFDF00" stroke="#1F1E1E" stroke-width="0.0900365"/>
<path fill-rule="evenodd" clip-rule="evenodd" d="M20.0439 11.3105C20.0439 11.3417 19.9626 11.373 19.8689 11.373C19.7751 11.373 19.6939 11.3417 19.6939 11.3105C19.6939 11.2792 19.7689 11.248 19.8689 11.248C19.9689 11.248 20.0439 11.273 20.0439 11.3105ZM20.4189 11.3105C20.4189 11.3417 20.3626 11.373 20.2939 11.373C20.2251 11.373 20.1564 11.3417 20.1564 11.3105C20.1564 11.273 20.2189 11.248 20.2876 11.248C20.3564 11.248 20.4189 11.273 20.4189 11.3105V11.3105Z" fill="#1F1E1E"/>
<path d="M20.0255 11.526L20.062 11.547C19.9742 11.4934 20.0142 11.5133 20.152 11.649C20.2306 11.6033 20.2456 11.5616 20.2945 11.505" stroke="#1F1E1E" stroke-width="0.102147"/>
<path d="M19.6764 11.8021L19.7054 11.8331C19.6365 11.7556 19.6691 11.7943 19.8214 11.8951C19.9664 11.9145 20.115 11.8486 20.202 11.7401" stroke="#1F1E1E" stroke-width="0.101136"/>
<path fill-rule="evenodd" clip-rule="evenodd" d="M17.5875 12.8229C17.5875 12.8229 17.65 13.3229 17.2687 13.9479C16.8937 14.5667 16.95 14.3479 16.95 14.3479C16.95 14.3479 17.125 14.6917 17.0937 14.6917C17.0625 14.6917 16.8 14.3792 16.8 14.3792L16.4875 14.7229C16.4875 14.7229 16.775 14.1917 16.7437 14.1917C16.7125 14.1917 16.6562 14.0042 16.6562 14.0042L16.8875 13.9104C16.8875 13.9104 17.2375 13.2604 17.2375 13.2917C17.2375 13.3229 16.1937 14.0042 16.1937 14.0042L17.5875 12.8292V12.8229ZM17.8187 13.0104C17.7875 13.0104 17.9625 13.5104 18.1125 13.7604C18.2562 14.0104 18.2562 14.3167 18.2562 14.3167L18.75 14.5667L18.1125 13.6042L18.5187 13.7542L17.8187 13.0104ZM17.8187 14.3167C17.8187 14.3167 18.1687 14.6917 18.1937 14.8167C18.2187 14.9417 18.225 15.2167 18.225 15.2167L18.0812 14.9042L17.875 15.1854C17.875 15.1854 18.025 14.7479 17.9937 14.7167C17.9625 14.6854 17.7625 14.8729 17.7625 14.8729C17.7625 14.8729 17.85 14.6229 17.85 14.5979C17.85 14.5729 17.85 14.4104 17.8187 14.3167V14.3167ZM16.075 15.1854C16.1937 15.0917 16.425 15.0292 16.425 15.0292C16.425 15.0292 16.2812 15.2792 16.25 15.2792C16.2187 15.2792 16.1375 15.2792 16.075 15.1854ZM20.0812 13.8229C20.0812 13.8229 20.8375 14.2854 20.8375 14.3167C20.8375 14.3479 20.3437 14.0979 20.3437 14.0979L20.0812 13.8229V13.8229ZM18.7187 12.8542C18.7812 12.8854 19.825 13.7542 19.7937 13.7542C19.7625 13.7542 19.3312 13.5042 19.3312 13.5417V13.7542L19.0937 13.2604L19.0375 13.4479L18.725 12.8542H18.7187ZM18.9812 14.2542L19.2687 14.8417L19.5625 14.7792C19.5625 14.7792 19.0125 14.2542 18.9812 14.2542ZM19.8812 13.8792L19.9125 14.4417C19.9125 14.4417 20.0812 14.5979 20.0812 14.5667C20.0812 14.5354 19.9125 13.9104 19.8812 13.8792Z" fill="#B7E1FF"/>
<path fill-rule="evenodd" clip-rule="evenodd" d="M11.4125 6.24185C11.4125 6.24185 12.725 5.51685 14.2188 4.97935C15.3178 4.57554 16.4518 4.27426 17.6063 4.07935C18.0438 4.07935 18.8063 5.19185 18.9313 5.19185C19.0563 5.19185 19.5625 4.87935 20.2 4.87935C20.8375 4.87935 21.2063 5.37935 21.3375 5.37935H22.475C22.6 5.37935 22.0938 4.14185 22.475 4.20435C22.6625 4.2356 24.275 4.4856 25.775 4.96685C27.275 5.45435 29.4 6.31685 29.4 6.31685C29.4 6.31685 25.9313 6.7731 25 6.64185C24.875 6.70435 25 7.45435 24.8125 7.1231C24.525 7.0606 23.4563 6.89185 23.2688 6.89185C23.0813 6.89185 22.725 7.10435 22.2188 7.22935C21.7188 7.35435 21.0813 7.54185 21.0813 7.54185L21.9063 8.8356L20.8938 9.3356C20.8938 9.3356 20.2625 7.8481 20.0063 7.8481C19.75 7.8481 19.6313 8.8981 19.3125 8.8356C19 8.7731 18.875 7.8481 18.6188 7.5981C18.3688 7.35435 17.0313 7.2606 16.525 7.14185C16.025 7.01685 15.2063 6.9231 14.7625 6.7981C14.325 6.6731 13.875 7.1106 13.6875 7.1106C13.5 7.1106 13.9375 6.7356 13.75 6.6731C13.5625 6.6106 13.4375 6.8606 13.3125 6.8606C13.1875 6.8606 11.8563 6.6106 11.7313 6.5481C11.6063 6.4856 12.0438 6.24185 11.9188 6.24185H11.4125Z" fill="#984000"/>
<path fill-rule="evenodd" clip-rule="evenodd" d="M20.8413 5.62302C20.8413 5.96752 20.558 6.24702 20.2102 6.24702C19.8623 6.24702 19.5804 5.96752 19.5804 5.62302C19.5804 5.27852 19.8623 5.00064 20.2102 5.00064C20.558 5.00064 20.8413 5.28014 20.8413 5.62302Z" fill="#808080" stroke="#772600" stroke-width="0.111933"/>
<path fill-rule="evenodd" clip-rule="evenodd" d="M17.6418 5.74184C17.7549 5.60984 17.895 5.40984 18.2612 5.40984C18.3455 5.37584 18.3455 5.17584 18.5413 5.17584C18.7387 5.17584 18.6813 5.37584 18.8231 5.44384C18.9632 5.50984 20.1157 5.37584 20.1157 5.37584C20.1157 5.37584 20.2271 5.47584 20.2271 5.60984C20.2271 5.74384 20.1427 5.84184 20.1157 5.84184C20.0887 5.84184 18.9632 5.74184 18.8788 5.77584C18.7944 5.80984 18.7387 5.84184 18.5413 5.84184C18.3455 5.84184 18.2882 5.60984 18.1481 5.60984C18.008 5.60984 17.868 5.57584 17.6418 5.74384V5.74184Z" fill="#984000" stroke="#772600" stroke-width="0.197056"/>
<path d="M21.0708 5.67218H21.5197C21.6817 5.67418 21.7374 5.73218 21.8859 5.73818H22.2791C22.4225 5.73218 22.4985 5.69218 22.6436 5.67218C22.8883 5.66818 22.8056 5.64618 22.7567 5.47218C22.7128 5.34218 22.706 5.28018 22.6436 5.20618C22.62 5.04618 22.566 4.99018 22.5592 4.80618C22.5339 4.66618 22.4867 4.57218 22.5322 4.40618C22.5963 4.52018 22.6217 4.56618 22.7853 4.57418C22.9541 4.57418 23.0199 4.56818 23.1228 4.64018C23.2005 4.73818 23.3051 4.70618 23.4603 4.70618C23.5886 4.73418 23.6105 4.81218 23.7118 4.87218C23.8316 4.95218 23.9092 4.97218 24.0763 4.97218C24.2113 5.00218 24.3294 5.02418 24.4138 5.07218C24.4863 5.17418 24.5994 5.20018 24.7513 5.20618C24.8357 5.20618 24.9032 5.19618 24.9757 5.17218C25.1057 5.18018 25.2373 5.17218 25.3976 5.17218C25.5022 5.31618 25.5258 5.37018 25.7064 5.37218C25.8313 5.47618 25.9359 5.49218 26.0439 5.53818H26.4658C26.6177 5.55218 26.6649 5.62618 26.8033 5.67218C26.922 5.73577 27.0437 5.79119 27.1678 5.83818C27.2886 5.8641 27.4113 5.87549 27.534 5.87218C27.6369 5.93618 27.7635 5.94018 27.8428 6.00418C27.9592 6.03418 28.1178 6.07018 28.2073 6.10418C28.3558 6.12818 28.4132 6.18418 28.5448 6.20418C28.6578 6.24418 28.5077 6.27618 28.4317 6.30418C28.2663 6.29818 28.2545 6.22418 28.0942 6.20418C28.0098 6.14618 27.8816 6.15418 27.7567 6.10418H27.7297C27.8411 6.18418 27.9491 6.23418 27.8985 6.37218C27.755 6.37218 27.6386 6.35018 27.5053 6.33818C27.3635 6.30618 27.2994 6.27218 27.1408 6.27218C27.2994 6.22618 27.3399 6.27618 27.4496 6.33818C27.4901 6.49818 27.4023 6.43818 27.2522 6.43818C27.1239 6.38418 27.0463 6.31818 26.8877 6.30418H26.5502C26.7172 6.31218 26.7527 6.38618 26.859 6.47218C26.8674 6.52418 26.8573 6.52018 26.7746 6.53818C26.6868 6.44818 26.5738 6.41818 26.4371 6.37218C26.3038 6.36618 26.1637 6.35218 26.0439 6.30418C25.9612 6.29818 25.9747 6.18218 26.157 6.37218C26.2667 6.44818 26.3055 6.51218 26.297 6.57218C26.1519 6.52818 26.081 6.46018 25.9882 6.40418C25.862 6.35229 25.7285 6.32988 25.595 6.33818C25.4499 6.29218 25.6102 6.26618 25.7064 6.43818C25.9157 6.61418 25.6794 6.53818 25.595 6.50418C25.4685 6.46218 25.3368 6.40018 25.2288 6.37218C25.1445 6.34218 25.0702 6.31418 24.9757 6.30418C25.1225 6.32018 25.1715 6.38218 25.2288 6.50418C25.3773 6.62418 25.2221 6.56618 25.0888 6.53818C25.0044 6.45018 24.8947 6.40418 24.8357 6.30418C24.6956 6.22218 24.6905 6.12418 24.78 6.33818C24.8019 6.40618 24.7968 6.55418 24.807 6.57218C24.704 6.43818 24.726 6.40418 24.6112 6.40418C24.5319 6.34018 24.4172 6.29018 24.3581 6.20418C24.2501 6.19218 24.2433 6.14618 24.1337 6.10418C24.2231 6.23018 24.3429 6.35418 24.4138 6.47218C24.542 6.55618 24.5775 6.63218 24.6669 6.70418C24.7023 6.77818 24.8019 6.83818 24.6956 6.73818C24.5741 6.59818 24.4847 6.56418 24.3024 6.47218C24.1978 6.37218 24.1607 6.33218 24.0493 6.23818C23.8974 6.18018 23.9565 6.14818 24.0493 6.33818C24.1556 6.45418 24.2366 6.58218 24.3294 6.67218C24.4022 6.77522 24.4875 6.86487 24.5825 6.93818C24.6078 6.98218 24.6838 6.99018 24.5825 7.00418C24.4982 6.91218 24.3733 6.85418 24.2737 6.77018C24.1337 6.72418 24.0678 6.63818 23.9649 6.53818C23.8974 6.42018 23.7894 6.33018 23.7118 6.23818C23.5498 6.16218 23.7438 6.31018 23.7962 6.40418C23.8316 6.52618 23.8772 6.62418 23.9075 6.73818C23.9548 6.84818 23.7658 6.71218 23.7118 6.67218C23.6008 6.58693 23.4761 6.52974 23.3456 6.50418C23.2338 6.47765 23.1212 6.45564 23.0081 6.43818C22.8815 6.39818 23.0773 6.53418 23.1498 6.67218C23.2916 6.83018 23.0098 6.70018 22.9254 6.67218C22.7861 6.64413 22.6448 6.63274 22.5035 6.63818C22.323 6.65018 22.4529 6.67818 22.5035 6.77018C22.5592 6.82218 22.598 6.93018 22.5879 6.97018C22.4698 6.95018 22.3685 6.91018 22.2217 6.90418C22.1036 6.95018 21.9635 6.93818 21.8285 6.93818C21.8235 7.02218 21.8538 6.95018 21.9129 7.03818C22.0108 7.08418 22.0749 7.14018 22.0547 7.20418H21.2396C21.1502 7.23218 21.2582 7.21818 21.324 7.33818C21.2868 7.44618 21.2396 7.40418 21.1265 7.40418C21.0506 7.36818 20.897 7.35218 20.8177 7.30418C20.7384 7.30418 20.7452 7.28018 20.6777 7.27018C20.9139 7.47018 20.7958 7.42018 20.9308 7.57018C20.9527 7.58018 21.0067 7.60418 20.9578 7.60418M19.1032 8.67018C19.0863 8.67018 19.0492 8.56218 18.9918 8.47018C18.9513 8.35018 18.9007 8.41818 18.8501 8.23618C18.8568 8.04818 18.8619 8.01618 18.8501 7.83618C18.7353 7.74018 18.6864 7.71218 18.597 7.53618C18.4552 7.39618 18.6189 7.15618 18.6459 6.98018C18.521 6.94818 18.4603 7.21018 18.2696 7.30418C18.1312 7.41418 18.2527 7.07618 18.1852 6.88018C18.1397 6.60218 18.003 7.02018 17.9523 7.13818C17.8595 7.21218 17.8308 7.30818 17.6992 7.17018C17.6992 7.06818 17.7819 6.78018 17.7465 6.72418C17.6148 6.80218 17.4427 7.03418 17.306 7.07018C17.1677 7.03618 17.3347 6.77418 17.3347 6.58018C17.2841 6.56018 17.0867 7.09618 17.0057 7.10018C16.9247 7.10418 16.9601 6.58018 16.9213 6.59218C16.8622 6.69218 16.7424 6.90018 16.6597 6.97218C16.4994 6.94618 16.6833 6.62218 16.707 6.50218C16.734 6.35818 16.5568 6.77818 16.4623 6.80418C16.3931 6.87618 16.2564 6.92418 16.2092 6.93818C16.2632 6.81418 16.5298 6.56418 16.5129 6.49218C16.356 6.49818 16.118 6.74218 15.9847 6.77218C15.897 6.77218 15.7755 6.80618 15.7603 6.80418C15.767 6.64418 16.0877 6.51218 16.1383 6.41418C15.9813 6.44418 15.6793 6.60818 15.5915 6.73818C15.4869 6.76418 15.3553 6.79818 15.254 6.73818C15.2692 6.58818 15.5055 6.29818 15.5578 6.20218C15.4143 6.27618 15.3435 6.33418 15.1916 6.36818C15.1629 6.40218 15.0819 6.47418 15.1072 6.40218C15.1528 6.26218 15.2203 6.20218 15.276 6.10218C15.1494 6.13018 15.1022 6.21618 14.9672 6.30218C14.8811 6.30618 14.6347 6.60018 14.552 6.60418C14.4121 6.73493 14.2487 6.82593 14.0745 6.87018C13.9462 6.89818 13.8838 6.93018 13.8213 7.00418C13.8855 6.87018 13.9833 6.74418 14.0745 6.67218C14.1301 6.55078 14.2196 6.45604 14.3276 6.40418C14.3597 6.35818 14.4474 6.34618 14.3546 6.33818C14.2753 6.42218 14.1403 6.51818 14.0745 6.57218C13.9884 6.63618 13.8888 6.70018 13.8483 6.67218C13.8939 6.52818 13.9749 6.49218 14.0458 6.37218C14.1943 6.26018 14.0458 6.33218 13.9327 6.37218C13.8602 6.44818 13.7302 6.50618 13.6239 6.57218C13.5058 6.60818 13.4265 6.69218 13.2864 6.73818C13.2864 6.78618 13.3269 6.65218 13.3438 6.60418C13.4585 6.45618 13.4889 6.41418 13.6239 6.37218C13.6577 6.31418 13.6982 6.33818 13.5969 6.33818C13.5193 6.41818 13.4147 6.46218 13.3151 6.53818C13.2155 6.56418 13.0856 6.57218 12.9506 6.57218C12.7751 6.59618 12.7903 6.61218 12.9506 6.50418C13.04 6.40418 13.1143 6.43018 13.1193 6.30418C13.013 6.39618 12.8831 6.46418 12.7532 6.53818C12.6452 6.54218 12.6165 6.57218 12.5 6.57218C12.5557 6.50418 12.5895 6.41818 12.6688 6.37218C12.7869 6.21818 12.5945 6.34218 12.5557 6.37218H12.1338C12.0596 6.48418 12.1305 6.37218 12.1912 6.30418C12.2638 6.26018 12.3397 6.20218 12.3313 6.17218C12.2469 6.25818 12.1507 6.29818 12.0782 6.37218C12.0005 6.40018 11.9094 6.41218 11.9094 6.43818C11.9718 6.33218 12.0714 6.26618 12.1355 6.17218C12.23 6.14818 12.311 6.11218 12.3313 6.07218H11.9381H12.2182C12.3617 6.07218 12.4832 6.05618 12.6131 6.03818C12.8358 5.99418 12.5928 5.97218 12.4713 5.97218C12.4494 5.92018 12.5422 5.89218 12.6401 5.87218C12.7245 5.82418 12.8308 5.78218 12.9219 5.73818C13.0023 5.70914 13.0782 5.66454 13.1463 5.60618C13.062 5.61018 13.062 5.63418 12.9776 5.63818C13.1042 5.62818 13.1936 5.60618 13.3438 5.60618C13.4675 5.55785 13.5891 5.50245 13.7083 5.44018C13.7589 5.36818 13.7792 5.37218 13.6526 5.37218C13.7657 5.33018 13.926 5.30818 14.0171 5.27218C14.1334 5.2433 14.2466 5.19902 14.3546 5.14018C14.4373 5.07418 14.4845 4.99618 14.579 4.94018C14.6887 5.02818 14.6904 5.04018 14.8878 5.04018C15.0465 5.03818 15.1443 4.99218 15.2253 4.90618C15.3468 4.86618 15.3688 4.79818 15.5072 4.77418C15.6372 4.79839 15.7687 4.80909 15.9003 4.80618C16.0353 4.76418 16.1653 4.68618 16.2648 4.60618C16.3509 4.55618 16.4538 4.48418 16.5467 4.44018C16.6479 4.50218 16.7289 4.55218 16.8555 4.57418C16.9854 4.55018 17.0546 4.47418 17.1643 4.44018C17.2319 4.35484 17.3205 4.29679 17.4174 4.27418C17.5811 4.17818 17.5693 4.30418 17.6418 4.40618C17.7262 4.51018 17.8342 4.46018 17.9507 4.50618C18.0165 4.62618 18.0637 4.70618 18.1481 4.77218C18.2139 4.86818 18.2915 4.89218 18.4299 4.90618C18.4805 4.98618 18.44 5.04218 18.5413 5.07218C18.5818 5.12418 18.651 5.14418 18.71 5.17218" stroke="#772600" stroke-width="0.130131"/>
<path d="M20.7469 7.82018V7.83618C20.7469 7.79018 20.7469 7.81618 20.7756 7.90418C20.7857 7.97618 20.7621 7.96818 20.7334 8.02018C20.7283 8.09418 20.7199 8.14818 20.7199 8.23618C20.7098 8.30818 20.676 8.37618 20.649 8.43618C20.622 8.49818 20.5056 8.53418 20.509 8.62018C20.4415 8.64218 20.4398 8.59018 20.4381 8.50218C20.3976 8.44818 20.3841 8.37418 20.3537 8.30218C20.3368 8.23418 20.2963 8.18218 20.2693 8.10218C20.2288 8.02818 20.1934 8.00618 20.158 7.92018C20.1428 7.88018 20.1462 7.82818 20.1158 7.80418C20.0702 7.73418 20.0398 7.72418 19.9605 7.72018C19.8998 7.73618 19.8762 7.76818 19.8205 7.78618C19.7766 7.80418 19.6922 7.79818 19.6382 7.82018C19.6247 7.84618 19.6652 7.86018 19.6804 7.92018C19.6433 7.95618 19.6298 8.01818 19.6095 8.07018C19.5758 8.12018 19.5538 8.14418 19.5387 8.22018C19.5623 8.26618 19.542 8.32818 19.5117 8.37018C19.5015 8.44618 19.4695 8.48818 19.4543 8.55218C19.4104 8.59018 19.3935 8.62418 19.3564 8.68618C19.3243 8.74018 19.2957 8.73618 19.2163 8.73618C19.1539 8.71618 19.1455 8.67618 19.0898 8.65218C19.0847 8.63218 19.0797 8.62618 19.0611 8.62018" stroke="#782600" stroke-width="0.115259"/>
<path fill-rule="evenodd" clip-rule="evenodd" d="M19.225 8.4917C19.225 8.4917 19.2 8.8042 19 9.01045C18.8 9.2167 18.3875 9.4542 18.3875 9.4542C18.3875 9.4542 18.9437 9.1917 19 9.24795C19.0625 9.31045 18.6437 9.7667 18.6437 9.7667C18.6437 9.7667 19.1875 9.28545 19.2562 9.28545C19.325 9.28545 19.4812 9.7542 19.5437 9.7417C19.6 9.7292 19.4187 9.14795 19.4437 9.0542C19.4687 8.9667 19.4437 8.47295 19.4437 8.47295L19.2312 8.4917H19.225ZM20.5062 8.4542C20.5062 8.4542 20.4812 8.78545 20.2812 9.0042C20.0812 9.22295 19.6687 9.4792 19.6687 9.4792C19.6687 9.4792 20.225 9.19795 20.2812 9.26045C20.3437 9.32295 19.925 9.81045 19.925 9.81045C19.925 9.81045 20.4687 9.29795 20.5375 9.29795C20.6062 9.29795 20.7625 9.79795 20.825 9.78545C20.8812 9.77295 20.7 9.14795 20.725 9.0542C20.75 8.9542 20.725 8.4292 20.725 8.4292L20.5062 8.4542V8.4542ZM18.7125 5.4542C18.7125 5.51045 18.65 5.56045 18.5812 5.56045C18.5125 5.56045 18.4437 5.51045 18.4437 5.44795C18.4437 5.38545 18.5062 5.33545 18.5812 5.33545C18.6562 5.33545 18.7125 5.38545 18.7125 5.44795V5.4542Z" fill="#812E00"/>
</g>
<defs>
<clipPath id="clip0_270506_2436">
<rect width="40" height="30" fill="white" transform="translate(0 0.648132)"/>
</clipPath>
</defs>
</svg>
