<svg width="41" height="31" viewBox="0 0 41 31" fill="none" xmlns="http://www.w3.org/2000/svg">
<g clip-path="url(#clip0_270506_2455)">
<path fill-rule="evenodd" clip-rule="evenodd" d="M0.666626 0.648071H57.6666V2.96057H0.666626V0.648071ZM0.666626 5.26682H57.6666V7.57932H0.666626V5.26682ZM0.666626 9.87932H57.6666V12.1918H0.666626V9.87932ZM0.666626 14.4918H57.6666V16.8043H0.666626V14.4918ZM0.666626 19.1168H57.6666V21.4168H0.666626V19.1168ZM0.666626 23.7231H57.6666V26.0356H0.666626V23.7231ZM0.666626 28.3356H57.6666V30.6481H0.666626V28.3356Z" fill="#BD3D44"/>
<path fill-rule="evenodd" clip-rule="evenodd" d="M0.666565 2.96063H57.6665V5.26688H0.666565V2.96063ZM0.666565 7.57313H57.6665V9.87938H0.666565V7.57313ZM0.666565 12.1856H57.6665V14.4981H0.666565V12.1856ZM0.666565 16.8044H57.6665V19.1169H0.666565V16.8044ZM0.666565 21.4169H57.6665V23.7294H0.666565V21.4169ZM0.666565 26.0294H57.6665V28.3419H0.666565V26.0294Z" fill="white"/>
<path fill-rule="evenodd" clip-rule="evenodd" d="M0.666626 0.648071H23.4666V16.8043H0.666626V0.648071Z" fill="#192F5D"/>
<path fill-rule="evenodd" clip-rule="evenodd" d="M2.56643 1.33553L2.77893 1.97928H3.44143L2.90393 2.37303L3.11018 3.01678L2.56643 2.61678L2.02893 3.01053L2.22893 2.37303L1.68518 1.97928H2.36643L2.56643 1.33553ZM6.36643 1.33553L6.57268 1.97928H7.24768L6.70393 2.37303L6.90393 3.01678L6.36643 2.61678L5.82268 3.01053L6.02893 2.37303L5.49143 1.97928H6.15393L6.36643 1.33553ZM10.1664 1.33553L10.3727 1.97928H11.0414L10.5039 2.37303L10.7102 3.01678L10.1664 2.61678L9.62268 3.01053L9.82893 2.37303L9.28518 1.97928H9.96018L10.1664 1.33553ZM13.9664 1.33553L14.1727 1.97928H14.8477L14.3039 2.37303L14.5102 3.01678L13.9664 2.61678L13.4227 3.01053L13.6352 2.37303L13.0852 1.97928H13.7539L13.9664 1.33553ZM17.7664 1.33553L17.9727 1.97928H18.6414L18.1039 2.37303L18.3102 3.01678L17.7664 2.61678L17.2227 3.01053L17.4289 2.37303L16.8914 1.97928H17.5602L17.7664 1.33553ZM21.5664 1.33553L21.7727 1.97928H22.4477L21.8977 2.37303L22.1102 3.01678L21.5664 2.61678L21.0227 3.01053L21.2352 2.37303L20.6852 1.97928H21.3602L21.5664 1.33553ZM4.46643 2.96053L4.67268 3.59803H5.35393L4.81018 3.98553L5.01018 4.62928L4.47893 4.23553L3.93518 4.62928L4.12893 3.98553L3.60393 3.59803H4.27268L4.46643 2.96053ZM8.26643 2.96053L8.47893 3.59803H9.14768L8.59768 3.98553L8.81018 4.62928L8.26643 4.23553L7.72268 4.62928L7.92893 3.98553L7.38518 3.59803H8.06018L8.26643 2.96053ZM12.0664 2.96053L12.2727 3.59803H12.9477L12.4039 3.98553L12.6102 4.62928L12.0664 4.23553L11.5227 4.62928L11.7289 3.98553L11.1914 3.59803H11.8539L12.0664 2.96053ZM15.8664 2.96053L16.0789 3.59803H16.7477L16.1977 3.98553L16.4102 4.62928L15.8664 4.23553L15.3289 4.62928L15.5289 3.98553L14.9852 3.59803H15.6664L15.8664 2.96053ZM19.6664 2.96053L19.8727 3.59803H20.5477L20.0039 3.98553L20.2102 4.62928L19.6664 4.23553L19.1227 4.62928L19.3289 3.98553L18.7914 3.59803H19.4602L19.6664 2.96053ZM2.56643 4.56053L2.77893 5.21053H3.44143L2.90393 5.60428L3.11018 6.24178L2.56643 5.84803L2.02893 6.24178L2.22893 5.60428L1.68518 5.21053H2.36643L2.56643 4.56053ZM6.36643 4.56053L6.57268 5.21053H7.24768L6.70393 5.60428L6.90393 6.24178L6.36643 5.84803L5.82268 6.24178L6.02893 5.59803L5.49143 5.20428H6.15393L6.36643 4.56053ZM10.1664 4.56053L10.3727 5.20428H11.0414L10.5039 5.59803L10.7102 6.23553L10.1664 5.84178L9.62268 6.23553L9.82893 5.59178L9.28518 5.19803H9.96018L10.1664 4.56053ZM13.9664 4.56053L14.1727 5.20428H14.8477L14.3039 5.59803L14.5102 6.23553L13.9664 5.84178L13.4227 6.23553L13.6352 5.59178L13.0852 5.19803H13.7539L13.9664 4.56053ZM17.7664 4.56053L17.9727 5.20428H18.6414L18.1039 5.59803L18.3102 6.23553L17.7664 5.84178L17.2227 6.23553L17.4289 5.59178L16.8914 5.19803H17.5602L17.7664 4.56053ZM21.5664 4.56053L21.7727 5.20428H22.4477L21.8977 5.59803L22.1102 6.23553L21.5664 5.84178L21.0227 6.23553L21.2352 5.59178L20.6852 5.19803H21.3602L21.5664 4.56053ZM4.46643 6.18553L4.67268 6.82303H5.35393L4.81018 7.21678L5.01643 7.86053L4.47268 7.46053L3.92893 7.85428L4.13518 7.21678L3.59768 6.82303H4.26643L4.46643 6.18553ZM8.26643 6.18553L8.47893 6.82303H9.14768L8.59768 7.21678L8.81018 7.86053L8.26643 7.46053L7.72268 7.85428L7.92893 7.21678L7.38518 6.82303H8.06018L8.26643 6.18553ZM12.0664 6.18553L12.2727 6.82303H12.9477L12.4039 7.21678L12.6102 7.86053L12.0664 7.46053L11.5227 7.85428L11.7289 7.21678L11.1914 6.82303H11.8539L12.0664 6.18553ZM15.8664 6.18553L16.0789 6.82303H16.7477L16.2039 7.21678L16.4102 7.86053L15.8664 7.46053L15.3289 7.85428L15.5289 7.21678L14.9852 6.82303H15.6664L15.8664 6.18553ZM19.6664 6.18553L19.8727 6.82303H20.5477L20.0039 7.21678L20.2102 7.86053L19.6664 7.46053L19.1227 7.85428L19.3289 7.21678L18.7914 6.82303H19.4602L19.6664 6.18553ZM2.56643 7.80428L2.77893 8.44178H3.44143L2.90393 8.83553L3.11018 9.47928L2.56643 9.07928L2.02893 9.47303L2.22893 8.83553L1.68518 8.44178H2.36643L2.56643 7.80428ZM6.36643 7.80428L6.57268 8.44178H7.24768L6.70393 8.83553L6.90393 9.47303L6.36643 9.07928L5.82268 9.47303L6.02893 8.83553L5.49143 8.44178H6.15393L6.36643 7.80428ZM10.1664 7.80428L10.3727 8.44178H11.0414L10.5039 8.83553L10.7102 9.47928L10.1664 9.07928L9.62268 9.47303L9.82893 8.83553L9.28518 8.44178H9.96018L10.1664 7.80428ZM13.9664 7.80428L14.1727 8.44178H14.8477L14.3039 8.83553L14.5102 9.47928L13.9664 9.07928L13.4227 9.47303L13.6352 8.83553L13.0852 8.44178H13.7539L13.9664 7.80428ZM17.7664 7.80428L17.9727 8.44178H18.6414L18.1039 8.83553L18.3102 9.47928L17.7664 9.07928L17.2227 9.47303L17.4289 8.83553L16.8914 8.44178H17.5602L17.7664 7.80428ZM21.5664 7.80428L21.7727 8.44178H22.4477L21.8977 8.83553L22.1102 9.47928L21.5664 9.07928L21.0227 9.47303L21.2289 8.83553L20.6789 8.44178H21.3539L21.5664 7.80428ZM4.46643 9.41678L4.67268 10.0605H5.35393L4.81018 10.448L5.01643 11.0918L4.47268 10.6918L3.92893 11.0918L4.13518 10.448L3.59768 10.0543H4.26643L4.46643 9.41678ZM8.26643 9.41678L8.47893 10.0605H9.14768L8.59768 10.448L8.81018 11.0918L8.26643 10.6918L7.72268 11.0918L7.92893 10.448L7.38518 10.0543H8.06018L8.26643 9.41678ZM12.0664 9.41678L12.2727 10.0605H12.9477L12.4039 10.448L12.6102 11.0918L12.0664 10.6918L11.5227 11.0918L11.7289 10.448L11.1914 10.0543H11.8539L12.0664 9.41678ZM15.8664 9.41678L16.0789 10.0605H16.7477L16.2039 10.448L16.4102 11.0918L15.8664 10.6918L15.3289 11.0918L15.5289 10.448L14.9852 10.0543H15.6664L15.8664 9.41678ZM19.6664 9.41678L19.8727 10.0605H20.5477L20.0039 10.448L20.2102 11.0918L19.6664 10.6918L19.1227 11.0918L19.3289 10.448L18.7914 10.0543H19.4602L19.6664 9.41678ZM2.56643 11.0293L2.77893 11.673H3.44143L2.90393 12.0668L3.11018 12.698L2.56643 12.3105L2.02893 12.698L2.22893 12.0605L1.68518 11.6668H2.36643L2.56643 11.0293ZM6.36643 11.0293L6.57268 11.673H7.24768L6.70393 12.0668L6.91018 12.698L6.36643 12.3105L5.82268 12.698L6.03518 12.0605L5.49143 11.6668H6.15393L6.36643 11.0293ZM10.1664 11.0293L10.3727 11.673H11.0414L10.5039 12.0668L10.7102 12.698L10.1664 12.3105L9.62268 12.698L9.82893 12.0605L9.28518 11.6668H9.96018L10.1664 11.0293ZM13.9664 11.0293L14.1727 11.673H14.8477L14.3039 12.0668L14.5102 12.698L13.9664 12.3105L13.4227 12.698L13.6352 12.0605L13.0852 11.6668H13.7539L13.9664 11.0293ZM17.7664 11.0293L17.9727 11.673H18.6414L18.1039 12.0668L18.3102 12.698L17.7664 12.3105L17.2227 12.698L17.4289 12.0605L16.8914 11.6668H17.5602L17.7664 11.0293ZM21.5664 11.0293L21.7727 11.673H22.4477L21.8977 12.0668L22.1102 12.698L21.5664 12.3105L21.0227 12.698L21.2352 12.0605L20.6852 11.6668H21.3602L21.5664 11.0293ZM4.46643 12.648L4.67268 13.2855H5.35393L4.81018 13.6793L5.01643 14.323L4.47268 13.923L3.92893 14.3168L4.13518 13.6793L3.59768 13.2855H4.26643L4.46643 12.648ZM8.26643 12.648L8.47893 13.2855H9.14768L8.59768 13.6793L8.81018 14.323L8.26643 13.923L7.72268 14.3168L7.92893 13.6793L7.38518 13.2855H8.06018L8.26643 12.648ZM12.0664 12.648L12.2727 13.2855H12.9477L12.4039 13.6793L12.6102 14.323L12.0664 13.923L11.5227 14.3168L11.7289 13.6793L11.1914 13.2855H11.8539L12.0664 12.648ZM15.8664 12.648L16.0789 13.2855H16.7477L16.2039 13.6793L16.4102 14.323L15.8664 13.923L15.3289 14.3168L15.5289 13.6793L14.9852 13.2855H15.6664L15.8664 12.648ZM19.6664 12.648L19.8727 13.2855H20.5477L20.0039 13.6793L20.2102 14.323L19.6664 13.923L19.1227 14.3168L19.3289 13.6793L18.7914 13.2855H19.4602L19.6664 12.648ZM2.56643 14.2668L2.77893 14.9043H3.44143L2.90393 15.298L3.11018 15.9355L2.56643 15.5418L2.02893 15.9355L2.22893 15.2918L1.68518 14.898H2.36643L2.56643 14.2668ZM6.36643 14.2668L6.57268 14.9043H7.24768L6.70393 15.298L6.91018 15.9355L6.36643 15.5418L5.82268 15.9355L6.03518 15.2918L5.49143 14.898H6.15393L6.36643 14.2668ZM10.1664 14.2668L10.3727 14.9043H11.0414L10.5164 15.298L10.7227 15.9355L10.1789 15.5418L9.63518 15.9355L9.84143 15.2918L9.29768 14.898H9.97268L10.1664 14.2668ZM13.9664 14.2668L14.1727 14.9043H14.8477L14.3039 15.298L14.5102 15.9355L13.9664 15.5418L13.4227 15.9355L13.6352 15.2918L13.0852 14.898H13.7539L13.9664 14.2668ZM17.7664 14.2668L17.9727 14.9043H18.6414L18.1039 15.298L18.3102 15.9355L17.7664 15.5418L17.2227 15.9355L17.4289 15.2918L16.8914 14.898H17.5602L17.7664 14.2668ZM21.5664 14.2668L21.7727 14.9043H22.4477L21.8977 15.298L22.1102 15.9355L21.5664 15.5418L21.0227 15.9355L21.2352 15.2918L20.6852 14.898H21.3602L21.5664 14.2668Z" fill="white"/>
</g>
<defs>
<clipPath id="clip0_270506_2455">
<rect width="40" height="30" fill="white" transform="translate(0.666626 0.648132)"/>
</clipPath>
</defs>
</svg>
