<svg width="41" height="31" viewBox="0 0 41 31" fill="none" xmlns="http://www.w3.org/2000/svg">
<g clip-path="url(#clip0_270506_2458)">
<path d="M0.666504 15.6481H40.6665V30.6481H0.666504V15.6481Z" fill="#00AB39"/>
<path d="M0.666687 0.648132H40.6667V15.6481H0.666687V0.648132Z" fill="white"/>
<path d="M26.8539 5.07309H26.8476H26.8539ZM26.8476 5.07309C24.372 6.40538 22.0318 7.97527 19.8601 9.76059C18.7976 10.6918 19.0976 11.4293 19.0539 12.2606C19.0914 12.8231 18.9351 13.3481 18.5914 13.6606L16.2289 14.1356L16.0039 13.4856C16.0726 13.1481 16.3476 12.9856 16.9351 13.1918C16.9789 12.7668 16.6289 12.5918 16.2289 12.4418C16.0851 12.3293 15.9164 12.2543 15.9351 11.8793C15.8726 11.0356 17.2226 11.9418 17.2351 11.9418C17.2476 11.9418 17.1851 11.0856 16.5664 10.9168C16.2289 10.7981 16.0851 10.4418 16.2164 10.1793C16.4851 9.63559 16.9976 10.2168 17.3851 10.2418C17.3726 9.88559 17.2726 9.63559 16.9664 9.35434C16.8039 9.24809 16.4039 9.17309 16.3914 9.00434C16.3851 8.77934 16.7664 8.67934 17.2976 8.74184C17.1851 8.42309 16.8289 8.21684 16.3414 8.06684L16.0539 7.56059C15.9164 7.31059 15.8539 7.29809 16.1726 6.82309C16.4539 6.63559 16.8351 6.37309 17.1226 6.19184L16.8101 6.15434C16.8476 5.81059 16.8539 5.69184 16.9351 5.12309C16.6226 5.54184 16.2476 5.46684 15.8976 5.63559C15.8976 5.63559 14.9226 5.81059 14.6039 6.22934L12.1414 6.10434C11.6164 6.17309 11.1726 6.32309 11.0851 6.82934C9.89137 6.95434 8.64137 6.84809 7.72887 7.98559C8.35387 7.96059 8.89137 7.81059 9.59137 7.89809C9.59137 7.89809 10.1851 7.91059 10.3039 8.54184C10.3164 8.56684 10.5101 8.56684 10.5101 8.56684L10.7351 8.74184L10.8226 8.50434L11.0226 8.64184L11.0851 8.37934L11.2851 8.51684L11.2976 8.20434L11.5601 8.39184V7.97309C11.5601 7.97309 12.5351 7.97309 12.8351 8.59809C12.8476 8.60434 10.1039 9.09809 7.45387 8.86684L8.21637 8.49184C7.25387 8.29184 6.34137 8.11684 5.49137 7.44809C5.81012 8.66059 7.47262 10.0793 7.81637 10.0731L7.49137 9.48559L10.3664 9.61059C10.4726 9.92934 10.4289 10.2856 10.6789 10.5668C10.6789 10.5668 10.5226 11.0918 10.8789 11.3043C10.8914 11.3293 11.2976 10.2418 11.2976 10.2418C11.2976 10.2418 11.4226 10.5356 11.5476 10.7293C11.7351 9.79184 12.7601 9.63559 12.7601 9.63559L12.9726 10.1356C12.6539 10.1856 12.2539 10.8356 12.4726 11.1981C12.2539 11.1981 11.8726 11.8293 11.9914 12.1731C11.8101 12.3543 11.3664 12.5918 11.4726 13.3481C11.1226 13.4231 10.9101 14.0668 11.0226 14.7543C10.4726 15.2606 10.6101 16.1918 11.0976 16.5731C10.8976 16.7606 10.7726 16.8918 10.7726 17.1168C10.5789 17.0481 10.3976 17.1043 10.3164 17.2293C10.0789 16.9856 9.74137 16.7793 9.50387 17.0043C9.44137 16.7168 9.06637 16.4043 8.66012 16.4418C8.67682 16.2619 8.62958 16.0818 8.52672 15.9332C8.42385 15.7846 8.27193 15.6771 8.09762 15.6293C8.09762 15.6293 8.00387 14.2168 7.57887 13.7543C7.53512 13.5043 7.60387 13.3293 7.95387 13.1168C8.31012 12.9293 8.38512 12.7856 8.35387 12.2481C8.49762 11.8918 8.60387 11.5293 8.16637 11.2856C8.17887 11.7106 8.05387 11.9106 7.87887 12.0981C7.67262 12.0731 7.60387 12.3106 7.46637 12.4106C7.27262 12.1543 7.87262 11.7481 7.42887 11.1668C7.40387 11.1418 7.11637 10.4168 6.41012 10.4293C6.74137 10.6231 6.88512 10.9543 6.88512 11.2981C6.62463 11.8741 6.5846 12.5257 6.77262 13.1293C6.47887 12.6918 6.31012 11.8543 6.06637 11.7106C5.85387 11.6668 5.75387 11.1668 4.92262 11.3106C5.27887 11.4043 5.39762 11.6793 5.48512 11.9231C5.27262 12.0356 5.37887 12.3356 5.54137 12.5418C5.51012 13.0231 5.79762 13.3043 6.22887 13.4793L6.01637 15.4606C5.84762 15.4418 5.57887 16.1106 5.47887 16.1293C5.31012 16.2356 5.01637 16.5168 5.35387 16.5981C5.25387 16.9543 5.16012 17.1731 4.62262 17.2481C4.62262 17.2481 5.18512 17.5856 5.66012 17.0106C6.16012 16.9981 5.99762 16.3981 6.24137 16.1356C6.24137 16.1168 6.38512 16.0293 6.58512 15.4981C6.67262 15.9731 7.16012 17.4231 8.25387 18.1418C9.21012 19.1668 10.0039 20.1356 9.99137 21.4981C10.3586 21.0943 10.6224 20.6075 10.7601 20.0793C11.3837 19.8923 12.0352 19.8161 12.6851 19.8543C12.5726 20.0981 12.4414 20.3293 12.6039 20.4793C12.1414 20.6418 12.0414 20.9793 12.2289 21.3106C11.7414 21.6418 11.7101 21.8543 11.7039 22.4043C10.7976 23.5606 10.2414 23.5231 9.34762 23.2168C9.06012 23.0481 8.59762 22.8043 8.39137 22.9356C8.01012 22.6731 7.45387 22.6356 7.36012 23.2231C7.65387 22.9793 7.82262 23.0293 8.05387 23.2606C8.01012 23.3793 7.97262 23.4918 8.14137 23.5606L7.91637 23.8106C7.50387 23.7481 6.94137 23.7481 6.79762 24.3543C7.01012 24.1731 7.48512 24.1356 7.86012 24.3043L8.07887 24.3793L8.10387 24.6668C8.10387 24.6668 7.54137 24.5793 7.39137 25.4981C7.91637 24.9356 8.29137 25.0793 8.29137 25.0793C8.49762 25.3793 9.24762 25.3356 9.79137 24.8418C10.5476 24.4168 10.7726 25.0293 11.2601 24.6293C11.6664 24.3293 12.1476 24.5293 12.4789 24.8793C12.8601 25.0231 13.2601 25.1418 13.5726 24.8793C13.5726 24.8793 13.9601 24.6356 14.3414 25.0293C14.3414 24.5918 14.0289 24.3481 13.6039 24.3418L13.4789 24.2168C13.0726 24.1293 12.6226 24.1668 12.2664 23.9668C12.4045 23.3359 12.7088 22.7533 13.1476 22.2793C13.7289 21.6543 14.1601 21.3668 14.8976 20.4106C14.8664 20.9543 15.2789 21.5543 15.4976 22.0981C15.4976 22.0981 15.9351 21.4043 15.9976 20.8293C16.0164 20.8293 16.5539 20.5543 16.7789 20.3106C17.2664 20.6168 18.0539 20.0731 18.5664 19.6231C18.8789 19.7481 19.1226 19.7356 19.4851 19.6231C19.1914 20.2231 19.6539 20.7793 20.3914 21.0106C20.4539 21.5356 20.9914 21.6481 21.7976 21.6481C21.8351 21.9606 22.3164 22.0043 22.3164 22.0043C22.0039 22.1418 21.8539 22.2856 21.8601 22.6043C21.5476 22.6043 21.3164 22.6856 21.2351 23.0418C20.8039 23.0543 20.3664 23.0856 19.9976 23.2918C19.6039 23.2356 19.1226 23.0731 18.8164 22.7543C18.6601 22.6231 18.6164 22.4293 18.3414 22.3543C18.1664 22.1481 17.9539 22.1918 17.8851 22.3918C17.7039 22.2481 17.0226 22.1856 16.9039 22.8293C17.2289 22.5981 17.5101 22.5106 17.7164 22.7981C17.6039 22.9918 17.9789 23.1106 18.3039 23.1856C18.5351 23.1981 18.9414 23.4106 19.0664 23.7606C18.8911 23.8113 18.7068 23.8231 18.5265 23.795C18.3462 23.7669 18.1742 23.6997 18.0226 23.5981C17.9102 23.5043 17.7707 23.4489 17.6246 23.4399C17.4784 23.4309 17.3332 23.4688 17.2101 23.5481C16.9351 23.3731 16.2914 23.7043 16.2664 24.2293C16.5351 23.9793 16.7851 23.8543 17.0351 24.0168C16.9101 24.0418 16.9539 24.0543 16.9726 24.1293L17.5976 24.4918C17.2851 24.5731 16.9976 24.6981 17.1351 25.2731C17.1351 25.2731 17.3851 24.7731 17.9476 24.9606C17.9601 24.9418 18.0289 25.1356 18.1914 25.0043C18.4351 24.7293 18.9914 24.6043 19.4851 24.5543C19.8789 24.5106 20.2726 24.3918 20.6101 24.6168C20.9226 24.4606 21.2601 24.3543 21.6101 24.6043C22.0226 24.7293 22.3226 25.2168 22.8414 24.9981C23.1039 24.8106 23.4226 24.8106 23.7476 25.1731C23.7476 24.7106 23.4039 24.5543 22.9164 24.4543L22.5789 24.2543C22.2664 24.2043 21.9539 24.2606 21.6351 24.1106C22.3824 23.9314 23.0864 23.6046 23.7057 23.1495C24.325 22.6945 24.8471 22.1202 25.2414 21.4606L26.0226 21.7356C26.2101 21.7481 26.2226 21.8106 26.6039 21.9231C26.6164 21.3668 26.3726 20.7918 25.3664 20.7356L24.0539 20.2356C23.7664 19.9356 23.6414 19.3043 23.9976 18.9356C24.3476 18.6231 24.4101 18.6606 24.6414 18.2793C24.9226 18.2543 25.1851 18.5418 25.4414 18.5418C25.5664 18.9106 26.2789 19.2293 26.7289 19.1231C27.0101 19.3731 27.5414 19.5106 28.1351 19.3106C28.3043 19.4684 28.5175 19.5709 28.7465 19.6044C28.9754 19.6379 29.2091 19.6008 29.4164 19.4981C29.5539 19.6356 29.8414 19.7481 30.1664 19.6731C30.1976 19.6731 30.3414 20.0356 30.6976 20.1668C30.5414 20.3168 30.6351 20.9793 30.8039 21.2231C30.683 21.4704 30.6628 21.755 30.7476 22.0168C30.3851 22.2481 30.3101 22.4231 30.4726 22.8168C29.9976 23.5856 29.4289 23.6731 28.8914 23.4418L28.3101 23.0668L27.6976 22.4668C27.5914 22.3668 27.3726 22.3418 27.3289 22.5543C27.3289 22.5543 26.5414 22.3793 26.4726 23.0481C26.8039 22.7293 27.2664 23.0106 27.2664 23.0231C27.2664 23.0356 27.1539 23.1106 27.2414 23.2356C27.2601 23.2168 27.8226 23.4418 28.3164 23.6543C28.5851 23.7606 28.6476 23.7918 28.7664 23.8543C28.6171 23.7859 28.4671 23.7193 28.3164 23.6543C28.0995 23.5543 27.8668 23.493 27.6289 23.4731C27.3539 23.4481 27.0539 23.4106 26.9164 23.6231C26.6164 23.7481 26.1414 23.8543 26.1664 24.4168C26.3664 24.0793 26.6476 24.0981 27.0039 24.1293L26.9789 24.2043C27.3664 24.3793 27.2914 24.1543 27.6539 24.1231C27.9794 24.1182 28.3031 24.1711 28.6101 24.2793C28.3289 24.3606 27.9414 24.3231 27.7601 24.5293C27.7226 24.5918 27.6039 24.5668 27.6601 24.7293C27.6601 24.7293 27.0976 24.7168 26.9539 25.4793C27.5164 25.1231 27.9476 25.1356 27.9539 25.1356L28.1351 25.1731L28.8226 24.7168C28.8414 24.7168 29.4851 24.4293 29.7789 24.7543C30.0414 24.8793 30.3164 24.8918 30.5914 24.7293C31.1164 24.4981 31.6101 24.4793 32.0914 24.8043L32.5351 25.0668L32.7226 24.9418C32.7226 24.9418 33.2226 24.8043 33.5851 25.2481C33.4351 24.4793 32.8851 24.4543 32.8851 24.4543L32.7601 24.3418L31.9851 24.0356C31.8664 23.7543 31.5851 23.5356 31.8664 23.1981C32.1601 21.7543 32.5039 20.6731 31.9414 19.2106C32.4664 19.4356 32.8601 20.1356 33.5164 19.8918C33.5164 19.3043 31.3539 18.1856 29.7039 17.2918C32.4164 17.1481 35.6664 15.1543 34.4164 12.6168L35.0039 10.7793C35.2851 11.3418 35.8476 11.7668 36.3539 11.9481C35.9351 11.1543 35.6976 8.72309 35.9351 7.04809C34.8295 8.37538 33.6373 9.62811 32.3664 10.7981C32.9914 10.9481 33.5476 10.8418 34.1539 10.7668L33.6414 11.8293C31.9789 10.8481 30.0289 11.5793 30.0164 12.8793C30.0726 14.3918 31.9414 14.6106 33.0226 14.0793C32.8101 15.4606 29.6351 14.9543 29.6351 14.9543C28.5101 14.5668 27.4414 14.6293 26.2601 14.6418C26.5039 13.8856 27.8664 13.2106 28.9101 13.5106C27.4539 11.8731 29.1164 9.84184 31.1226 9.22309C28.9351 8.49809 30.8164 6.82934 32.4539 5.63559C32.4539 5.63559 27.7476 7.61684 27.3164 7.61059C25.9789 7.51059 26.3414 5.92309 26.8539 5.07309H26.8476ZM12.0726 6.97309C12.1851 6.97309 12.3101 6.98559 12.4164 7.01059C12.6289 7.06684 12.8851 7.09184 12.8851 7.16059C12.7851 7.32309 12.5414 7.51684 12.3039 7.51059C12.0664 7.49809 11.9289 7.35434 11.8539 6.99809C11.8789 6.98559 11.9664 6.97309 12.0726 6.97309ZM31.8851 12.5606C32.1976 12.5606 32.5664 12.6856 32.9226 13.0731C32.7539 13.5731 31.2476 13.8231 31.1476 13.0856C31.1164 12.8606 31.4351 12.5668 31.8851 12.5606Z" fill="#D21034" stroke="#1F1E1E" stroke-width="0.146398"/>
<path d="M13.6289 11.348L13.8601 11.6793M13.8476 11.6855C13.8476 11.6855 13.8476 12.1355 13.9414 12.1418M13.7351 12.3855L13.9726 12.7793M13.3164 12.8793C13.3289 12.8793 13.6101 13.2043 13.6101 13.2043M13.8539 12.9543C13.8539 12.9668 14.1164 13.4605 14.1351 13.4605M13.5101 13.298C13.5101 13.298 13.5976 13.898 13.6789 13.8793M13.1164 14.398L13.3789 14.8043M13.6101 13.973C13.6101 13.973 13.7539 14.5418 13.8664 14.4918M13.9851 13.6293C13.9914 13.6418 14.2539 14.0105 14.3226 13.9605M14.2601 14.1043L14.5101 14.6043M13.8476 14.4918L14.0539 15.0793M13.3664 14.7918C13.3664 14.7918 13.5539 15.423 13.7226 15.323M13.2976 15.6355C13.2976 15.6355 13.3101 15.9668 13.4726 15.9855M13.5851 15.4668C13.5851 15.4793 13.7539 15.7043 13.7539 15.7043M14.0664 15.073L14.1976 15.2918M14.5039 14.6668L14.7101 14.923M13.5414 11.6918C13.5476 11.973 13.9914 11.5918 14.1664 11.3543M13.3539 12.6668C13.3539 12.6668 13.8351 12.323 14.2101 11.8043M13.1914 13.4855C13.5351 13.3918 14.1664 12.6293 14.2914 12.223M13.1226 14.2418C13.2164 14.2855 14.3914 13.4293 14.4226 12.8105M13.0914 14.898C13.0914 14.8918 14.1664 14.623 14.6101 13.4418M13.0414 15.7918C13.0414 15.7918 14.7601 14.7605 14.8539 14.0043M26.4414 17.523C26.4414 17.523 26.3289 18.4105 25.4414 18.548M26.7226 19.1105C26.7289 19.098 27.5726 18.173 27.3539 17.8918M28.6726 18.2168C28.6726 18.2168 28.6601 18.8605 28.1351 19.3043M29.7226 18.4043C29.7226 18.4043 29.7414 19.1793 29.4101 19.4918M30.6851 18.8668C30.6851 18.8668 30.3101 19.598 30.1789 19.673M30.6726 20.1605C30.6726 20.1605 31.1601 20.2855 31.3164 19.9605M30.7976 21.2168C30.7976 21.2168 31.2476 21.298 31.4601 20.8668M30.7476 22.0355C30.7476 22.0355 31.1164 22.348 31.3664 21.9355M25.4914 16.0355C25.4914 16.0355 25.4476 17.6168 27.6664 17.9355C30.1476 18.623 31.3226 18.2605 31.4664 21.0418C31.3726 22.1043 31.2414 23.2918 30.4664 22.8355M23.1289 17.4918C23.1289 17.4918 23.4851 18.123 23.9101 18.0793C24.4726 17.9168 24.6789 18.2605 24.6789 18.2605M21.6164 18.123C21.6164 18.123 22.5539 18.5793 23.3476 17.8418M21.7226 17.4668C21.8039 18.5605 20.4664 19.1855 19.9351 19.0793M21.7851 21.6418C21.7914 21.6418 22.5101 21.2168 22.3664 20.9168M20.3601 21.0105C20.3789 20.9855 21.5664 20.873 21.7851 20.448M19.8101 19.2605C19.8101 19.2605 21.4914 19.273 21.6039 19.5793M22.0414 18.2668C22.0414 18.2668 20.4039 21.073 23.4289 21.073M20.3039 18.2293C20.3039 18.2293 19.9539 19.273 19.4539 19.6293M18.5664 17.8668C18.5664 17.8668 19.1726 19.0418 18.5664 19.623M16.9789 18.198C16.9851 18.2168 17.1726 19.8668 16.7601 20.3355M16.1851 18.248C16.1851 18.248 16.2476 19.298 15.9351 19.673C15.6226 20.048 16.0101 20.823 16.0101 20.823M12.2289 21.323C12.2289 21.323 12.4539 21.7168 12.7601 21.5793M12.6039 20.4668C12.6039 20.4668 13.1039 20.6855 13.2726 20.6043M13.1476 18.7043C13.1476 18.7043 12.4101 18.9105 12.6914 19.7855C13.1164 20.1293 13.5289 20.073 13.5289 20.073M11.6914 22.4105C11.6851 22.4105 11.7789 23.098 12.2539 22.5793C12.5851 21.8793 13.6289 19.9168 13.8726 19.2418M14.3601 18.923C14.3601 18.923 13.8539 18.5293 13.8726 19.0793C13.8601 19.423 14.0289 19.5043 14.0289 19.5043C14.0476 19.7543 14.2664 20.1043 14.4414 19.7855C14.5164 19.473 14.3914 19.3355 14.3914 19.3355M14.6851 18.773C14.2289 18.748 13.9789 19.7543 14.8601 19.123M15.1601 18.4355C15.1601 18.4355 15.0476 18.5918 14.8664 18.423C14.7726 18.2605 14.4414 19.173 15.0226 19.2043C15.1289 18.9355 15.4476 18.8605 15.4476 18.8605M15.7226 17.998C15.7226 17.998 15.4601 18.123 15.3664 18.1043C15.0539 18.173 15.1164 18.9043 15.5101 18.8605C15.6476 18.7043 15.7914 18.4855 15.7914 18.4855M13.2726 17.048C13.2601 17.048 12.2414 18.6543 13.8414 19.0793M26.2164 14.6418C26.2164 14.6418 25.5914 15.1668 26.1726 16.0168C24.2351 15.9855 23.2039 16.8793 23.1226 17.4793C20.6601 17.3043 21.1101 18.0293 20.3101 18.2668C19.2414 17.373 17.6726 17.873 17.7726 18.7668C17.0601 17.7605 15.9601 18.248 15.8226 18.498C15.6914 18.748 15.7414 17.2605 15.7414 17.2605C15.7414 17.2605 15.0226 17.5855 14.5289 18.173V16.9293C13.9289 17.0543 13.3476 17.0543 12.7289 17.0418M11.1101 16.5855C11.1101 16.5855 12.0039 17.0855 13.1101 16.4105M11.0414 14.7918C11.0414 14.7918 11.7289 15.4168 13.0414 15.2168M11.4789 13.3605C11.4789 13.3605 11.6289 13.8668 13.1226 13.898M11.9789 12.1855C11.9789 12.1855 12.5414 12.873 13.3039 12.7668M12.4601 11.2043C12.4601 11.2043 12.6789 11.5793 13.5101 11.6418M12.9476 10.1105C12.9476 10.1105 13.3851 10.5855 13.8851 10.5043M15.5414 6.22926C15.5414 6.22926 15.7351 6.04176 16.0601 6.13551M15.4039 7.24801C15.4039 7.24801 14.8039 7.22926 14.8414 6.99801C14.8914 6.72301 15.4789 6.52926 15.4789 6.52926C15.4789 6.52926 16.2601 6.02926 16.3789 5.85426M12.8414 8.60426L13.6039 10.0605L13.9664 9.51051L14.1539 9.88551L14.4664 9.34176L15.0039 9.68551L14.8039 9.01676L15.2539 8.98551C15.2539 8.98551 15.1289 8.66676 14.7289 8.59801C14.8351 8.51676 15.2101 8.26676 15.2101 8.26676C15.2101 8.26676 14.9976 8.01676 14.6601 8.01051C14.7726 7.89176 14.9226 7.60426 14.9101 7.60426L14.5789 7.52926C14.5789 7.52926 15.3414 7.77926 15.9289 7.42926M14.4789 6.25426C14.4851 6.26051 14.4351 6.55426 14.2726 6.72301M11.5414 7.05426C11.5414 7.05426 12.0101 6.92926 12.3601 6.99801C12.7101 7.07301 13.1789 7.19801 13.1789 7.19801C13.1789 7.19801 13.7414 7.12301 13.9226 6.99176M10.3726 7.36676C10.3726 7.36676 10.3101 7.59176 10.2851 7.74176C10.2851 7.84801 9.94137 7.99176 9.94137 7.99176M10.5851 6.90426C10.5851 6.90426 10.8851 7.27926 10.8976 7.49801C10.9039 7.71051 10.6726 7.87301 10.6726 7.87301M7.47887 9.46051L7.16637 8.96051L7.44762 8.86051M13.1039 16.423C12.8539 16.098 13.2914 11.1605 14.2101 9.87301C13.8914 12.198 14.9601 14.573 15.2289 14.5605M10.2914 8.49801C10.2914 8.49801 10.7164 8.65426 11.5851 7.96051M12.7664 9.63551L13.3914 9.64176M32.1601 5.76676C32.1601 5.76676 21.7414 10.6293 21.5914 10.8918C23.3476 10.3543 30.8101 9.11051 30.9914 9.21676C30.5539 9.32301 21.4976 11.4043 21.0726 11.9043C23.3351 11.8293 28.0664 12.6293 28.8101 13.4043C27.1976 13.0418 22.3914 12.3355 20.9164 12.648C21.9914 12.9043 26.1164 15.573 26.1164 15.998C25.4914 15.4043 20.5351 13.3605 20.3414 13.5605C21.4789 14.2418 23.0851 16.773 23.0851 17.3918C22.7539 16.8668 19.8851 13.7855 19.7164 13.9855C20.0226 14.4043 20.6226 18.0418 20.3164 18.2105C20.3164 17.773 19.2039 14.5855 19.1101 14.498C18.8851 14.5605 17.4664 18.373 17.7476 18.7355C17.5601 17.4605 17.7789 14.798 18.1226 14.9043C17.4976 14.998 15.5164 17.6168 15.7289 18.0293C15.7914 17.373 15.8789 16.9418 17.0039 14.773C15.7539 14.848 13.1789 16.4668 12.7414 17.048C13.0914 16.0168 15.2726 14.273 16.2289 14.148M20.7289 10.3543C21.8289 9.74176 25.2289 8.49801 27.5039 7.57926M18.5914 13.6418C18.5914 13.6418 19.3414 13.6293 20.0914 11.5918C20.8289 8.80426 26.6976 5.69801 26.8164 5.11676M8.66637 16.448C8.66637 16.448 8.49137 16.823 8.27887 16.923M9.51012 17.0105C9.51012 17.0105 9.27887 17.4605 9.22262 17.673M10.3164 17.2355C10.3164 17.2355 10.5039 17.848 10.3476 18.1355M8.07262 15.6293C7.48512 15.9605 8.41012 18.0668 11.2039 18.2668M10.7539 17.1293C10.7539 17.1293 10.6789 17.5043 11.2039 18.2543C11.0539 19.0918 11.8414 19.748 12.1539 19.8543M10.5289 9.59176L10.6164 9.36676L10.7101 9.61676L10.8664 9.61051L10.9664 9.36051L11.0539 9.61051H11.2039L11.2976 9.33551L11.4414 9.59801H11.5664L11.6601 9.28551L11.8476 9.51051L11.9226 9.48551L11.9851 9.16051L12.1789 9.38551L12.2414 9.35426L12.3289 9.04176L12.4851 9.27301L12.5664 9.24801L12.6414 8.97926L12.7914 9.22926M10.3539 9.61676L11.5289 9.59801C11.9039 9.59801 12.5164 9.07926 13.1976 9.24176M7.89137 12.1168C7.89137 12.1168 8.08512 12.5418 8.35387 12.3043M7.44137 12.398C7.44137 12.398 7.06637 13.4105 7.51637 13.648M6.90387 11.2855C6.90387 11.2855 6.90387 11.523 7.40387 11.1605M5.37262 16.5793C5.37262 16.5793 5.76637 16.7043 5.70387 16.998M5.51637 11.948C5.51637 11.948 5.76637 12.0668 6.00387 11.698M8.14137 23.5543C8.52262 23.5293 8.61012 23.7043 8.95387 23.7043C9.36637 23.7168 9.76012 23.5543 10.2664 23.4105M13.5851 24.348C13.5726 24.348 13.3976 24.7105 13.5539 24.8918M8.08512 24.3793C8.08512 24.3793 8.69762 23.8793 9.02262 24.1855C9.32887 24.2918 9.49762 24.273 9.49762 24.273M8.40387 22.9418C8.40387 22.9418 8.55387 23.3293 8.05387 23.273M7.90387 23.8355C7.90387 23.8355 8.22262 24.0355 7.86012 24.3043M8.09762 24.6668C8.09762 24.6668 8.53512 24.7293 8.27887 25.0855M21.8664 22.5918C22.3101 22.948 22.1289 23.1605 23.5289 22.223M21.2289 23.0355C21.2289 23.0355 21.8851 23.748 22.3664 22.8855M19.9726 23.2918L19.0789 23.7605M17.4789 24.4168C17.4789 24.4168 18.0226 23.9543 18.2726 24.198C18.5289 24.448 19.6039 23.9855 19.6039 23.9855M17.8851 22.398C17.8851 22.398 18.0726 22.773 17.7101 22.8168M17.1789 23.5605C17.1789 23.5605 17.3664 23.9105 17.0039 23.998M17.5976 24.5043C17.5976 24.5043 18.1601 24.5355 17.9601 24.9605M22.8601 24.4293C22.8601 24.4293 22.5476 24.6918 22.7789 24.9918M27.3414 22.5543C27.3414 22.5543 27.6976 22.7293 27.2726 23.023M26.9164 23.6418C26.9164 23.6418 27.1851 23.923 27.0039 24.1543M27.6664 24.7168C27.6664 24.7168 28.0351 24.823 27.9914 25.1293M32.8539 24.4418C32.8539 24.4418 32.5414 24.673 32.7101 24.9668M27.3539 15.4168C28.0914 15.3293 29.1539 16.9793 29.6976 17.298M32.9414 13.0855C32.9414 13.0855 33.3164 13.4168 32.9851 14.2105M33.6351 11.823C33.7414 11.9043 34.1414 12.123 34.4101 12.623M34.6664 9.36051L34.1476 10.7668M35.2476 9.29176C35.2476 9.29176 35.1476 10.5418 34.9976 10.7918M22.2914 21.998C22.2914 21.998 23.4789 22.123 23.5414 22.2105C23.6789 22.0668 24.7414 21.198 23.4351 21.0793C23.3749 21.3384 23.2295 21.5698 23.0221 21.7364C22.8147 21.903 22.5574 21.9951 22.2914 21.998V21.998ZM32.9164 13.073C32.7476 13.573 31.2414 13.823 31.1414 13.0855C31.0851 12.7105 32.0289 12.1293 32.9164 13.073Z" stroke="#1F1E1E" stroke-width="0.146398" stroke-linejoin="round"/>
<path d="M12.06 6.97934L12.6412 7.08559C12.6412 7.08559 12.235 7.63559 12.06 6.97934Z" fill="#1F1E1E" stroke="#1F1E1E" stroke-width="0.146398" stroke-linejoin="round"/>
</g>
<defs>
<clipPath id="clip0_270506_2458">
<rect width="40" height="30" fill="white" transform="translate(0.666626 0.648132)"/>
</clipPath>
</defs>
</svg>
