<svg width="41" height="31" viewBox="0 0 41 31" fill="none" xmlns="http://www.w3.org/2000/svg">
<g clip-path="url(#clip0_270506_2452)">
<path fill-rule="evenodd" clip-rule="evenodd" d="M-5.58337 0.648376H46.9166V30.6484H-5.58337V0.648376Z" fill="white"/>
<path fill-rule="evenodd" clip-rule="evenodd" d="M-5.58337 20.7928H46.9166V30.6483H-5.58337V20.7928Z" fill="#DA0000"/>
<path fill-rule="evenodd" clip-rule="evenodd" d="M4.40112 21.2149H7.27222V21.4083H4.40112V21.2149ZM4.82886 22.1993H5.02808V22.3926H4.82886V22.1993ZM7.28394 22.1993V22.3926H6.70972V22.1934L7.28394 22.1993ZM7.58862 21.2149H7.78784V22.3868H7.58862V21.2149Z" fill="white"/>
<path fill-rule="evenodd" clip-rule="evenodd" d="M8.737 22.1933V22.3925H7.64716V22.1933H8.737ZM6.70966 21.7304H6.89716V22.3925H6.7038L6.70966 21.7304Z" fill="white"/>
<path fill-rule="evenodd" clip-rule="evenodd" d="M8.573 21.2149H8.77222V22.3868H8.573V21.2149ZM8.08081 21.2149H8.27417V22.3868H8.08081V21.2149ZM5.45581 21.6837V21.8829H4.40112V21.6837H5.45581ZM7.75854 21.6837V21.8829H6.70386V21.6837H7.75854Z" fill="white"/>
<path fill-rule="evenodd" clip-rule="evenodd" d="M6.70966 21.7364H6.89716V22.3868H6.7038L6.70966 21.7364Z" fill="white"/>
<path fill-rule="evenodd" clip-rule="evenodd" d="M6.70966 21.7364H6.89716V22.3868H6.7038L6.70966 21.7364Z" fill="white"/>
<path fill-rule="evenodd" clip-rule="evenodd" d="M6.70972 21.7364H6.89722V22.3868H6.70386L6.70972 21.7364ZM4.40698 21.7364H4.60034V22.3868H4.40698V21.7364ZM6.09448 21.7364H6.2937V22.3868H6.09448V21.7364ZM5.25659 21.7364H5.45581V22.3868H5.25659V21.7364Z" fill="white"/>
<path fill-rule="evenodd" clip-rule="evenodd" d="M6.22913 22.1936V22.3928H5.34436V22.1936H6.22913ZM6.28772 21.6838V21.883H5.72522V21.6838H6.28772Z" fill="white"/>
<path fill-rule="evenodd" clip-rule="evenodd" d="M-0.321594 21.2149H2.5495V21.4083H-0.321594V21.2149ZM0.10614 22.1993H0.305359V22.3926H0.100281L0.10614 22.1993ZM2.56122 22.1993V22.3926H1.987V22.1934L2.56122 22.1993ZM2.86591 21.2149H3.06512V22.3868H2.86591V21.2149Z" fill="white"/>
<path fill-rule="evenodd" clip-rule="evenodd" d="M4.01447 22.1933V22.3925H2.92462V22.1933H4.01447ZM1.98712 21.7304H2.18048V22.3925H1.98712V21.7304Z" fill="white"/>
<path fill-rule="evenodd" clip-rule="evenodd" d="M3.85028 21.2149H4.0495V22.3868H3.85028V21.2149ZM3.35809 21.2149H3.55145V22.3868H3.35809V21.2149ZM0.733093 21.6837V21.8829H-0.321594V21.6837H0.733093ZM3.03583 21.6837V21.8829H1.98114V21.6837H3.03583Z" fill="white"/>
<path fill-rule="evenodd" clip-rule="evenodd" d="M1.98712 21.7364H2.18048V22.3868H1.98712V21.7364Z" fill="white"/>
<path fill-rule="evenodd" clip-rule="evenodd" d="M1.98712 21.7364H2.18048V22.3868H1.98712V21.7364Z" fill="white"/>
<path fill-rule="evenodd" clip-rule="evenodd" d="M1.98712 21.7364H2.18048V22.3868H1.98712V21.7364ZM-0.315613 21.7364H-0.122254V22.3868H-0.315613V21.7364ZM1.37189 21.7364H1.56525V22.3868H1.37189V21.7364ZM0.533997 21.7364H0.733215V22.3868H0.533997V21.7364Z" fill="white"/>
<path fill-rule="evenodd" clip-rule="evenodd" d="M1.50653 22.1936V22.3928H0.627625V22.1936H1.50653ZM1.56512 21.6838V21.883H1.00262V21.6838H1.56512Z" fill="white"/>
<path fill-rule="evenodd" clip-rule="evenodd" d="M9.08276 21.2149H11.9539V21.4083H9.08276V21.2149ZM9.5105 22.1993H9.70972V22.3926H9.5105V22.1993ZM11.9656 22.1993V22.3926H11.3914V22.1934L11.9656 22.1993ZM12.2761 21.2149H12.4753V22.3868H12.2761V21.2149Z" fill="white"/>
<path fill-rule="evenodd" clip-rule="evenodd" d="M13.4188 22.1933V22.3925H12.3289V22.1933H13.4188ZM11.3914 21.7304H11.5906V22.3925H11.3914V21.7304Z" fill="white"/>
<path fill-rule="evenodd" clip-rule="evenodd" d="M13.2546 21.2149H13.4539V22.3868H13.2546V21.2149ZM12.7625 21.2149H12.9617V22.3868H12.7566L12.7625 21.2149ZM10.1375 21.6837V21.8829H9.08276V21.6837H10.1375ZM12.4402 21.6837V21.8829H11.3855V21.6837H12.4402Z" fill="white"/>
<path fill-rule="evenodd" clip-rule="evenodd" d="M11.3914 21.7364H11.5906V22.3868H11.3914V21.7364Z" fill="white"/>
<path fill-rule="evenodd" clip-rule="evenodd" d="M11.3914 21.7364H11.5906V22.3868H11.3914V21.7364Z" fill="white"/>
<path fill-rule="evenodd" clip-rule="evenodd" d="M11.3915 21.7364H11.5907V22.3868H11.3915V21.7364ZM9.08875 21.7364H9.28796V22.3868H9.08875V21.7364ZM10.7762 21.7364H10.9755V22.3868H10.7762V21.7364ZM9.93835 21.7364H10.1376V22.3868H9.93835V21.7364Z" fill="white"/>
<path fill-rule="evenodd" clip-rule="evenodd" d="M10.9167 22.1936V22.3928H10.0261V22.1936H10.9167ZM10.9753 21.6838V21.883H10.4128V21.6838H10.9753Z" fill="white"/>
<path fill-rule="evenodd" clip-rule="evenodd" d="M13.7937 21.2149H16.6707V21.4083H13.7996L13.7937 21.2149ZM14.2273 22.1993H14.4207V22.3926H14.2273V22.1993ZM16.6765 22.1993V22.3926H16.1023V22.1934L16.6765 22.1993ZM16.9871 21.2149H17.1863V22.3868H16.9871V21.2149Z" fill="white"/>
<path fill-rule="evenodd" clip-rule="evenodd" d="M18.1354 22.1933V22.3925H17.0456V22.1933H18.1354ZM16.1022 21.7304H16.3015V22.3925H16.1022V21.7304Z" fill="white"/>
<path fill-rule="evenodd" clip-rule="evenodd" d="M17.9708 21.2149H18.17V22.3868H17.9708V21.2149ZM17.4727 21.2149H17.6719V22.3868H17.4727V21.2149ZM14.8477 21.6837V21.8829H13.7989V21.6837H14.8477ZM17.1505 21.6837V21.8829H16.1016V21.6837H17.1505Z" fill="white"/>
<path fill-rule="evenodd" clip-rule="evenodd" d="M16.1022 21.7364H16.3015V22.3868H16.1022V21.7364Z" fill="white"/>
<path fill-rule="evenodd" clip-rule="evenodd" d="M16.1022 21.7364H16.3015V22.3868H16.1022V21.7364Z" fill="white"/>
<path fill-rule="evenodd" clip-rule="evenodd" d="M16.1022 21.7364H16.3015V22.3868H16.1022V21.7364ZM13.7995 21.7364H13.9987V22.3868H13.7995V21.7364ZM15.487 21.7364H15.6862V22.3868H15.487V21.7364ZM14.655 21.7364H14.8483V22.3868H14.655V21.7364Z" fill="white"/>
<path fill-rule="evenodd" clip-rule="evenodd" d="M15.6277 22.1936V22.3928H14.7429V22.1936H15.6277ZM15.6863 21.6838V21.883H15.1238V21.6838H15.6863Z" fill="white"/>
<path fill-rule="evenodd" clip-rule="evenodd" d="M18.5281 21.2149H21.3992V21.4083H18.5281V21.2149ZM18.9558 22.1993H19.155V22.3926H18.9558V22.1993ZM21.4109 22.1993V22.3926H20.8367V22.1934L21.4109 22.1993ZM21.7214 21.2149H21.9148V22.3868H21.7214V21.2149Z" fill="white"/>
<path fill-rule="evenodd" clip-rule="evenodd" d="M22.8641 22.1933V22.3925H21.7743V22.1933H22.8641ZM20.8368 21.7304H21.036V22.3925H20.8368V21.7304Z" fill="white"/>
<path fill-rule="evenodd" clip-rule="evenodd" d="M22.7 21.2149H22.8992V22.3868H22.7V21.2149ZM22.2078 21.2149H22.407V22.3868H22.2078V21.2149ZM19.5828 21.6837V21.8829H18.5281V21.6837H19.5828ZM21.8855 21.6837V21.8829H20.8308V21.6837H21.8855Z" fill="white"/>
<path fill-rule="evenodd" clip-rule="evenodd" d="M20.8368 21.7364H21.036V22.3868H20.8368V21.7364Z" fill="white"/>
<path fill-rule="evenodd" clip-rule="evenodd" d="M20.8368 21.7364H21.036V22.3868H20.8368V21.7364Z" fill="white"/>
<path fill-rule="evenodd" clip-rule="evenodd" d="M20.8367 21.7364H21.0359V22.3868H20.8367V21.7364ZM18.5339 21.7364H18.7273V22.3868H18.5339V21.7364ZM20.2214 21.7364H20.4207V22.3868H20.2214V21.7364ZM19.3835 21.7364H19.5828V22.3868H19.3777L19.3835 21.7364Z" fill="white"/>
<path fill-rule="evenodd" clip-rule="evenodd" d="M20.3621 22.1936V22.3928H19.4715V22.1936H20.3621ZM20.4207 21.6838V21.883H19.8465V21.6838H20.4207Z" fill="white"/>
<path fill-rule="evenodd" clip-rule="evenodd" d="M-5.58337 0.648376H46.9166V10.5038H-5.58337V0.648376Z" fill="#239F40"/>
<path fill-rule="evenodd" clip-rule="evenodd" d="M23.2859 21.2149H26.157V21.4083H23.2859V21.2149ZM23.7136 22.1993H23.9128V22.3926H23.7136V22.1993ZM26.1687 22.1993V22.3926H25.5886V22.1934L26.1687 22.1993ZM26.4792 21.2149H26.6726V22.3868H26.4792V21.2149Z" fill="white"/>
<path fill-rule="evenodd" clip-rule="evenodd" d="M27.6218 22.1933V22.3925H26.5319V22.1933H27.6218ZM25.5944 21.7304H25.7936V22.3925H25.5886L25.5944 21.7304Z" fill="white"/>
<path fill-rule="evenodd" clip-rule="evenodd" d="M27.4636 21.2149H27.657V22.3868H27.4636V21.2149ZM26.9656 21.2149H27.1648V22.3868H26.9656V21.2149ZM24.3406 21.6837V21.8829H23.2859V21.6837H24.3406ZM26.6433 21.6837V21.8829H25.5886V21.6837H26.6433Z" fill="white"/>
<path fill-rule="evenodd" clip-rule="evenodd" d="M25.5886 21.7364H25.7936V22.3868H25.5886V21.7364Z" fill="white"/>
<path fill-rule="evenodd" clip-rule="evenodd" d="M25.5886 21.7364H25.7936V22.3868H25.5886V21.7364Z" fill="white"/>
<path fill-rule="evenodd" clip-rule="evenodd" d="M25.5886 21.7364H25.7936V22.3868H25.5886V21.7364ZM23.2917 21.7364H23.4909V22.3868H23.2917V21.7364ZM24.9792 21.7364H25.1784V22.3868H24.9792V21.7364ZM24.1413 21.7364H24.3405V22.3868H24.1413V21.7364Z" fill="white"/>
<path fill-rule="evenodd" clip-rule="evenodd" d="M25.1198 22.1936V22.3928H24.2291V22.1936H25.1198ZM25.1783 21.6838V21.883H24.6158V21.6838H25.1783Z" fill="white"/>
<path fill-rule="evenodd" clip-rule="evenodd" d="M28.0143 21.2149H30.8854V21.4083H28.0143V21.2149ZM28.442 22.1993H28.6412V22.3926H28.442V22.1993ZM30.903 22.1993V22.3926H30.3229V22.1934L30.903 22.1993ZM31.2076 21.2149H31.4069V22.3868H31.2076V21.2149Z" fill="white"/>
<path fill-rule="evenodd" clip-rule="evenodd" d="M32.3502 22.1933V22.3925H31.2604V22.1933H32.3502ZM30.3229 21.7304H30.5221V22.3925H30.3229V21.7304Z" fill="white"/>
<path fill-rule="evenodd" clip-rule="evenodd" d="M32.1914 21.2149H32.3848V22.3868H32.1914V21.2149ZM31.6934 21.2149H31.8926V22.3868H31.6934V21.2149ZM29.0684 21.6837V21.8829H28.0195V21.6837H29.0684ZM31.3711 21.6837V21.8829H30.3223V21.6837H31.3711Z" fill="white"/>
<path fill-rule="evenodd" clip-rule="evenodd" d="M30.3229 21.7364H30.5221V22.3868H30.3229V21.7364Z" fill="white"/>
<path fill-rule="evenodd" clip-rule="evenodd" d="M30.3229 21.7364H30.5221V22.3868H30.3229V21.7364Z" fill="white"/>
<path fill-rule="evenodd" clip-rule="evenodd" d="M30.3229 21.7364H30.5221V22.3868H30.3229V21.7364ZM28.0201 21.7364H28.2194V22.3868H28.0201V21.7364ZM29.7076 21.7364H29.9069V22.3868H29.7076V21.7364ZM28.8698 21.7364H29.069V22.3868H28.8756L28.8698 21.7364Z" fill="white"/>
<path fill-rule="evenodd" clip-rule="evenodd" d="M29.8481 22.1936V22.3928H28.9634V22.1936H29.8481ZM29.9067 21.6838V21.883H29.3384V21.6838H29.9067Z" fill="white"/>
<path fill-rule="evenodd" clip-rule="evenodd" d="M32.7488 21.2149H35.6199V21.4083H32.7488V21.2149ZM33.1765 22.1993H33.3757V22.3926H33.1765V22.1993ZM35.6316 22.1993V22.3926H35.0574V22.1934L35.6316 22.1993ZM35.9363 21.2149H36.1355V22.3868H35.9363V21.2149Z" fill="white"/>
<path fill-rule="evenodd" clip-rule="evenodd" d="M37.0847 22.1933V22.3925H35.9949V22.1933H37.0847ZM35.0515 21.7304H35.2507V22.3925H35.0515V21.7304Z" fill="white"/>
<path fill-rule="evenodd" clip-rule="evenodd" d="M36.9207 21.2149H37.1199V22.3868H36.9207V21.2149ZM36.4285 21.2149H36.6218V22.3868H36.4285V21.2149ZM33.8035 21.6837V21.8829H32.7488V21.6837H33.8035ZM36.1062 21.6837V21.8829H35.0515V21.6837H36.1062Z" fill="white"/>
<path fill-rule="evenodd" clip-rule="evenodd" d="M35.0573 21.7364H35.2507V22.3868H35.0573V21.7364Z" fill="white"/>
<path fill-rule="evenodd" clip-rule="evenodd" d="M35.0573 21.7364H35.2507V22.3868H35.0573V21.7364Z" fill="white"/>
<path fill-rule="evenodd" clip-rule="evenodd" d="M35.0574 21.7364H35.2507V22.3868H35.0574V21.7364ZM32.7488 21.7364H32.948V22.3868H32.7488V21.7364ZM34.4421 21.7364H34.6355V22.3868H34.4421V21.7364ZM33.6042 21.7364H33.8035V22.3868H33.6042V21.7364Z" fill="white"/>
<path fill-rule="evenodd" clip-rule="evenodd" d="M34.5768 22.1936V22.3928H33.6921V22.1936H34.5768ZM34.6354 21.6838V21.883H34.0729V21.6838H34.6354Z" fill="white"/>
<path fill-rule="evenodd" clip-rule="evenodd" d="M37.5066 21.2149H40.3777V21.4083H37.5066V21.2149ZM37.9343 22.1993H38.1335V22.3926H37.9343V22.1993ZM40.3894 22.1993V22.3926H39.8152V22.1934L40.3894 22.1993ZM40.6941 21.2149H40.8933V22.3868H40.6941V21.2149Z" fill="white"/>
<path fill-rule="evenodd" clip-rule="evenodd" d="M41.8425 22.1933V22.3925H40.7526V22.1933H41.8425ZM39.8151 21.7304H40.0085V22.3925H39.8151V21.7304Z" fill="white"/>
<path fill-rule="evenodd" clip-rule="evenodd" d="M41.6785 21.2149H41.8777V22.3868H41.6785V21.2149ZM41.1863 21.2149H41.3796V22.3868H41.1863V21.2149ZM38.5613 21.6837V21.8829H37.5066V21.6837H38.5613ZM40.864 21.6837V21.8829H39.8093V21.6837H40.864Z" fill="white"/>
<path fill-rule="evenodd" clip-rule="evenodd" d="M39.8151 21.7364H40.0085V22.3868H39.8151V21.7364Z" fill="white"/>
<path fill-rule="evenodd" clip-rule="evenodd" d="M39.8151 21.7364H40.0085V22.3868H39.8151V21.7364Z" fill="white"/>
<path fill-rule="evenodd" clip-rule="evenodd" d="M39.815 21.7364H40.0084V22.3868H39.815V21.7364ZM37.5123 21.7364H37.7056V22.3868H37.5123V21.7364ZM39.1998 21.7364H39.399V22.3868H39.1998V21.7364ZM38.3619 21.7364H38.5611V22.3868H38.3619V21.7364Z" fill="white"/>
<path fill-rule="evenodd" clip-rule="evenodd" d="M39.3346 22.1936V22.3928H38.4498V22.1936H39.3346ZM39.3932 21.6838V21.883H38.8307V21.6838H39.3932Z" fill="white"/>
<path fill-rule="evenodd" clip-rule="evenodd" d="M4.40112 9.05063H7.27222V9.24985H4.40112V9.05063ZM4.82886 10.0467H5.02808V10.2342H4.82886V10.0467ZM7.28394 10.035V10.2342H6.70972V10.035H7.28394ZM7.58862 9.05063H7.78784V10.2342H7.58862V9.05063Z" fill="white"/>
<path fill-rule="evenodd" clip-rule="evenodd" d="M8.737 10.0352V10.2345H7.64716V10.0352H8.737ZM6.70966 9.57236H6.89716V10.2345H6.7038L6.70966 9.57236Z" fill="white"/>
<path fill-rule="evenodd" clip-rule="evenodd" d="M8.573 9.05063H8.77222V10.2342H8.573V9.05063ZM8.08081 9.05063H8.27417V10.2342H8.08081V9.05063ZM5.45581 9.51938V9.7186H4.40112V9.52524L5.45581 9.51938ZM7.75854 9.51938V9.7186H6.70386V9.52524L7.75854 9.51938Z" fill="white"/>
<path fill-rule="evenodd" clip-rule="evenodd" d="M6.70966 9.57236H6.89716V10.2345H6.7038L6.70966 9.57236Z" fill="white"/>
<path fill-rule="evenodd" clip-rule="evenodd" d="M6.70966 9.57236H6.89716V10.2345H6.7038L6.70966 9.57236Z" fill="white"/>
<path fill-rule="evenodd" clip-rule="evenodd" d="M6.70972 9.57236H6.89722V10.2345H6.70386L6.70972 9.57236ZM4.40698 9.57236H4.60034V10.2345H4.40698V9.57236ZM6.09448 9.57236H6.2937V10.2345H6.09448V9.57236ZM5.25659 9.57236H5.45581V10.2345H5.25659V9.57236Z" fill="white"/>
<path fill-rule="evenodd" clip-rule="evenodd" d="M6.22913 10.0349V10.2341H5.34436V10.0349H6.22913ZM6.28772 9.52509V9.71845H5.72522V9.52509H6.28772Z" fill="white"/>
<path fill-rule="evenodd" clip-rule="evenodd" d="M-0.321594 9.05063H2.5495V9.24985H-0.321594V9.05063ZM0.10614 10.0467H0.305359V10.2342H0.100281L0.10614 10.0467ZM2.56122 10.035V10.2342H1.987V10.035H2.56122ZM2.86591 9.05063H3.06512V10.2342H2.86591V9.05063Z" fill="white"/>
<path fill-rule="evenodd" clip-rule="evenodd" d="M4.01447 10.0352V10.2345H2.92462V10.0352H4.01447ZM1.98712 9.57236H2.18048V10.2345H1.98712V9.57236Z" fill="white"/>
<path fill-rule="evenodd" clip-rule="evenodd" d="M3.85028 9.05063H4.0495V10.2342H3.85028V9.05063ZM3.35809 9.05063H3.55145V10.2342H3.35809V9.05063ZM0.733093 9.51938V9.7186H-0.321594V9.52524L0.733093 9.51938ZM3.03583 9.51938V9.7186H1.98114V9.52524L3.03583 9.51938Z" fill="white"/>
<path fill-rule="evenodd" clip-rule="evenodd" d="M1.98712 9.57236H2.18048V10.2345H1.98712V9.57236Z" fill="white"/>
<path fill-rule="evenodd" clip-rule="evenodd" d="M1.98712 9.57236H2.18048V10.2345H1.98712V9.57236Z" fill="white"/>
<path fill-rule="evenodd" clip-rule="evenodd" d="M1.98712 9.57236H2.18048V10.2345H1.98712V9.57236ZM-0.315613 9.57236H-0.122254V10.2345H-0.315613V9.57236ZM1.37189 9.57236H1.56525V10.2345H1.37189V9.57236ZM0.533997 9.57236H0.733215V10.2345H0.533997V9.57236Z" fill="white"/>
<path fill-rule="evenodd" clip-rule="evenodd" d="M1.50653 10.0349V10.2341H0.627625V10.0349H1.50653ZM1.56512 9.52509V9.71845H1.00262V9.52509H1.56512Z" fill="white"/>
<path fill-rule="evenodd" clip-rule="evenodd" d="M9.08276 9.05063H11.9539V9.24985H9.08276V9.05063ZM9.5105 10.0467H9.70972V10.2342H9.5105V10.0467ZM11.9656 10.035V10.2342H11.3914V10.035H11.9656ZM12.2761 9.05063H12.4753V10.2342H12.2761V9.05063Z" fill="white"/>
<path fill-rule="evenodd" clip-rule="evenodd" d="M13.4188 10.0352V10.2345H12.3289V10.0352H13.4188ZM11.3914 9.57236H11.5906V10.2345H11.3914V9.57236Z" fill="white"/>
<path fill-rule="evenodd" clip-rule="evenodd" d="M13.2546 9.05063H13.4539V10.2342H13.2546V9.05063ZM12.7625 9.05063H12.9617V10.2342H12.7566L12.7625 9.05063ZM10.1375 9.51938V9.7186H9.08276V9.52524L10.1375 9.51938ZM12.4402 9.51938V9.7186H11.3855V9.52524L12.4402 9.51938Z" fill="white"/>
<path fill-rule="evenodd" clip-rule="evenodd" d="M11.3914 9.57236H11.5906V10.2345H11.3914V9.57236Z" fill="white"/>
<path fill-rule="evenodd" clip-rule="evenodd" d="M11.3914 9.57236H11.5906V10.2345H11.3914V9.57236Z" fill="white"/>
<path fill-rule="evenodd" clip-rule="evenodd" d="M11.3915 9.57236H11.5907V10.2345H11.3915V9.57236ZM9.08875 9.57236H9.28796V10.2345H9.08875V9.57236ZM10.7762 9.57236H10.9755V10.2345H10.7762V9.57236ZM9.93835 9.57236H10.1376V10.2345H9.93835V9.57236Z" fill="white"/>
<path fill-rule="evenodd" clip-rule="evenodd" d="M10.9167 10.0349V10.2341H10.0261V10.0349H10.9167ZM10.9753 9.52509V9.71845H10.4128V9.52509H10.9753Z" fill="white"/>
<path fill-rule="evenodd" clip-rule="evenodd" d="M13.7937 9.05063H16.6707V9.24985H13.7996L13.7937 9.05063ZM14.2273 10.0467H14.4207V10.2342H14.2273V10.0467ZM16.6765 10.035V10.2342H16.1023V10.035H16.6765ZM16.9871 9.05063H17.1863V10.2342H16.9871V9.05063Z" fill="white"/>
<path fill-rule="evenodd" clip-rule="evenodd" d="M18.1354 10.0352V10.2345H17.0456V10.0352H18.1354ZM16.1022 9.57236H16.3015V10.2345H16.1022V9.57236Z" fill="white"/>
<path fill-rule="evenodd" clip-rule="evenodd" d="M17.9708 9.05063H18.17V10.2342H17.9708V9.05063ZM17.4727 9.05063H17.6719V10.2342H17.4727V9.05063ZM14.8477 9.51938V9.7186H13.7989V9.52524L14.8477 9.51938ZM17.1505 9.51938V9.7186H16.1016V9.52524L17.1505 9.51938Z" fill="white"/>
<path fill-rule="evenodd" clip-rule="evenodd" d="M16.1022 9.57236H16.3015V10.2345H16.1022V9.57236Z" fill="white"/>
<path fill-rule="evenodd" clip-rule="evenodd" d="M16.1022 9.57236H16.3015V10.2345H16.1022V9.57236Z" fill="white"/>
<path fill-rule="evenodd" clip-rule="evenodd" d="M16.1022 9.57236H16.3015V10.2345H16.1022V9.57236ZM13.7995 9.57236H13.9987V10.2345H13.7995V9.57236ZM15.487 9.57236H15.6862V10.2345H15.487V9.57236ZM14.655 9.57236H14.8483V10.2345H14.655V9.57236Z" fill="white"/>
<path fill-rule="evenodd" clip-rule="evenodd" d="M15.6277 10.0349V10.2341H14.7429V10.0349H15.6277ZM15.6863 9.52509V9.71845H15.1238V9.52509H15.6863Z" fill="white"/>
<path fill-rule="evenodd" clip-rule="evenodd" d="M18.5281 9.05063H21.3992V9.24985H18.5281V9.05063ZM18.9558 10.0467H19.155V10.2342H18.9558V10.0467ZM21.4109 10.035V10.2342H20.8367V10.035H21.4109ZM21.7214 9.05063H21.9148V10.2342H21.7214V9.05063Z" fill="white"/>
<path fill-rule="evenodd" clip-rule="evenodd" d="M22.8641 10.0352V10.2345H21.7743V10.0352H22.8641ZM20.8368 9.57236H21.036V10.2345H20.8368V9.57236Z" fill="white"/>
<path fill-rule="evenodd" clip-rule="evenodd" d="M22.7 9.05063H22.8992V10.2342H22.7V9.05063ZM22.2078 9.05063H22.407V10.2342H22.2078V9.05063ZM19.5828 9.51938V9.7186H18.5281V9.52524L19.5828 9.51938ZM21.8855 9.51938V9.7186H20.8308V9.52524L21.8855 9.51938Z" fill="white"/>
<path fill-rule="evenodd" clip-rule="evenodd" d="M20.8368 9.57236H21.036V10.2345H20.8368V9.57236Z" fill="white"/>
<path fill-rule="evenodd" clip-rule="evenodd" d="M20.8368 9.57236H21.036V10.2345H20.8368V9.57236Z" fill="white"/>
<path fill-rule="evenodd" clip-rule="evenodd" d="M20.8367 9.57236H21.0359V10.2345H20.8367V9.57236ZM18.5339 9.57236H18.7273V10.2345H18.5339V9.57236ZM20.2214 9.57236H20.4207V10.2345H20.2214V9.57236ZM19.3835 9.57236H19.5828V10.2345H19.3777L19.3835 9.57236Z" fill="white"/>
<path fill-rule="evenodd" clip-rule="evenodd" d="M20.3621 10.0349V10.2341H19.4715V10.0349H20.3621ZM20.4207 9.52509V9.71845H19.8465V9.52509H20.4207Z" fill="white"/>
<path fill-rule="evenodd" clip-rule="evenodd" d="M23.2859 9.05063H26.157V9.24985H23.2859V9.05063ZM23.7136 10.0467H23.9128V10.2342H23.7136V10.0467ZM26.1687 10.035V10.2342H25.5886V10.035H26.1687ZM26.4792 9.05063H26.6726V10.2342H26.4792V9.05063Z" fill="white"/>
<path fill-rule="evenodd" clip-rule="evenodd" d="M27.6218 10.0352V10.2345H26.5319V10.0352H27.6218ZM25.5944 9.57236H25.7936V10.2345H25.5886L25.5944 9.57236Z" fill="white"/>
<path fill-rule="evenodd" clip-rule="evenodd" d="M27.4636 9.05063H27.657V10.2342H27.4636V9.05063ZM26.9656 9.05063H27.1648V10.2342H26.9656V9.05063ZM24.3406 9.51938V9.7186H23.2859V9.52524L24.3406 9.51938ZM26.6433 9.51938V9.7186H25.5886V9.52524L26.6433 9.51938Z" fill="white"/>
<path fill-rule="evenodd" clip-rule="evenodd" d="M25.5886 9.57236H25.7936V10.2345H25.5886V9.57236Z" fill="white"/>
<path fill-rule="evenodd" clip-rule="evenodd" d="M25.5886 9.57236H25.7936V10.2345H25.5886V9.57236Z" fill="white"/>
<path fill-rule="evenodd" clip-rule="evenodd" d="M25.5886 9.57236H25.7936V10.2345H25.5886V9.57236ZM23.2917 9.57236H23.4909V10.2345H23.2917V9.57236ZM24.9792 9.57236H25.1784V10.2345H24.9792V9.57236ZM24.1413 9.57236H24.3405V10.2345H24.1413V9.57236Z" fill="white"/>
<path fill-rule="evenodd" clip-rule="evenodd" d="M25.1198 10.0349V10.2341H24.2291V10.0349H25.1198ZM25.1783 9.52509V9.71845H24.6158V9.52509H25.1783Z" fill="white"/>
<path fill-rule="evenodd" clip-rule="evenodd" d="M28.0143 9.05063H30.8854V9.24985H28.0143V9.05063ZM28.442 10.0467H28.6412V10.2342H28.442V10.0467ZM30.903 10.035V10.2342H30.3229V10.035H30.903ZM31.2076 9.05063H31.4069V10.2342H31.2076V9.05063Z" fill="white"/>
<path fill-rule="evenodd" clip-rule="evenodd" d="M32.3502 10.0352V10.2345H31.2604V10.0352H32.3502ZM30.3229 9.57236H30.5221V10.2345H30.3229V9.57236Z" fill="white"/>
<path fill-rule="evenodd" clip-rule="evenodd" d="M32.1914 9.05063H32.3848V10.2342H32.1914V9.05063ZM31.6934 9.05063H31.8926V10.2342H31.6934V9.05063ZM29.0684 9.51938V9.7186H28.0195V9.52524L29.0684 9.51938ZM31.3711 9.51938V9.7186H30.3223V9.52524L31.3711 9.51938Z" fill="white"/>
<path fill-rule="evenodd" clip-rule="evenodd" d="M30.3229 9.57236H30.5221V10.2345H30.3229V9.57236Z" fill="white"/>
<path fill-rule="evenodd" clip-rule="evenodd" d="M30.3229 9.57236H30.5221V10.2345H30.3229V9.57236Z" fill="white"/>
<path fill-rule="evenodd" clip-rule="evenodd" d="M30.3229 9.57236H30.5221V10.2345H30.3229V9.57236ZM28.0201 9.57236H28.2194V10.2345H28.0201V9.57236ZM29.7076 9.57236H29.9069V10.2345H29.7076V9.57236ZM28.8698 9.57236H29.069V10.2345H28.8756L28.8698 9.57236Z" fill="white"/>
<path fill-rule="evenodd" clip-rule="evenodd" d="M29.8481 10.0349V10.2341H28.9634V10.0349H29.8481ZM29.9067 9.52509V9.71845H29.3384V9.52509H29.9067Z" fill="white"/>
<path fill-rule="evenodd" clip-rule="evenodd" d="M32.7488 9.05063H35.6199V9.24985H32.7488V9.05063ZM33.1765 10.0467H33.3757V10.2342H33.1765V10.0467ZM35.6316 10.035V10.2342H35.0574V10.035H35.6316ZM35.9363 9.05063H36.1355V10.2342H35.9363V9.05063Z" fill="white"/>
<path fill-rule="evenodd" clip-rule="evenodd" d="M37.0847 10.0352V10.2345H35.9949V10.0352H37.0847ZM35.0515 9.57236H35.2507V10.2345H35.0515V9.57236Z" fill="white"/>
<path fill-rule="evenodd" clip-rule="evenodd" d="M36.9207 9.05063H37.1199V10.2342H36.9207V9.05063ZM36.4285 9.05063H36.6218V10.2342H36.4285V9.05063ZM33.8035 9.51938V9.7186H32.7488V9.52524L33.8035 9.51938ZM36.1062 9.51938V9.7186H35.0515V9.52524L36.1062 9.51938Z" fill="white"/>
<path fill-rule="evenodd" clip-rule="evenodd" d="M35.0573 9.57236H35.2507V10.2345H35.0573V9.57236Z" fill="white"/>
<path fill-rule="evenodd" clip-rule="evenodd" d="M35.0573 9.57236H35.2507V10.2345H35.0573V9.57236Z" fill="white"/>
<path fill-rule="evenodd" clip-rule="evenodd" d="M35.0574 9.57236H35.2507V10.2345H35.0574V9.57236ZM32.7488 9.57236H32.948V10.2345H32.7488V9.57236ZM34.4421 9.57236H34.6355V10.2345H34.4421V9.57236ZM33.6042 9.57236H33.8035V10.2345H33.6042V9.57236Z" fill="white"/>
<path fill-rule="evenodd" clip-rule="evenodd" d="M34.5768 10.0349V10.2341H33.6921V10.0349H34.5768ZM34.6354 9.52509V9.71845H34.0729V9.52509H34.6354Z" fill="white"/>
<path fill-rule="evenodd" clip-rule="evenodd" d="M37.5066 9.05063H40.3777V9.24985H37.5066V9.05063ZM37.9343 10.0467H38.1335V10.2342H37.9343V10.0467ZM40.3894 10.035V10.2342H39.8152V10.035H40.3894ZM40.6941 9.05063H40.8933V10.2342H40.6941V9.05063Z" fill="white"/>
<path fill-rule="evenodd" clip-rule="evenodd" d="M41.8425 10.0352V10.2345H40.7526V10.0352H41.8425ZM39.8151 9.57236H40.0085V10.2345H39.8151V9.57236Z" fill="white"/>
<path fill-rule="evenodd" clip-rule="evenodd" d="M41.6785 9.05063H41.8777V10.2342H41.6785V9.05063ZM41.1863 9.05063H41.3796V10.2342H41.1863V9.05063ZM38.5613 9.51938V9.7186H37.5066V9.52524L38.5613 9.51938ZM40.864 9.51938V9.7186H39.8093V9.52524L40.864 9.51938Z" fill="white"/>
<path fill-rule="evenodd" clip-rule="evenodd" d="M39.8151 9.57236H40.0085V10.2345H39.8151V9.57236Z" fill="white"/>
<path fill-rule="evenodd" clip-rule="evenodd" d="M39.8151 9.57236H40.0085V10.2345H39.8151V9.57236Z" fill="white"/>
<path fill-rule="evenodd" clip-rule="evenodd" d="M39.815 9.57236H40.0084V10.2345H39.815V9.57236ZM37.5123 9.57236H37.7056V10.2345H37.5123V9.57236ZM39.1998 9.57236H39.399V10.2345H39.1998V9.57236ZM38.3619 9.57236H38.5611V10.2345H38.3619V9.57236Z" fill="white"/>
<path fill-rule="evenodd" clip-rule="evenodd" d="M39.3346 10.0349V10.2341H38.4498V10.0349H39.3346ZM39.3932 9.52509V9.71845H38.8307V9.52509H39.3932Z" fill="white"/>
<path fill-rule="evenodd" clip-rule="evenodd" d="M1.63538 20.5411H1.98694V21.1564H1.63538V20.5411ZM11.0397 20.5411H11.3912V21.1564H11.0397V20.5411ZM-5.58337 20.5411H-5.23181V21.1564H-5.58337V20.5411ZM-0.807984 20.5411H-0.456421V21.1564H-0.807984V20.5411ZM3.93225 20.5411H4.28381V21.1564H3.93225V20.5411ZM6.276 20.5411H6.62756V21.1564H6.276V20.5411ZM8.67248 20.5411H9.02405V21.1564H8.67248V20.5411ZM13.3834 20.5411H13.735V21.1564H13.3834V20.5411ZM25.278 20.5411H25.6354V21.1564H25.2838L25.278 20.5411ZM15.7799 20.5411H16.1315V21.1564H15.7799V20.5411ZM18.1237 20.5411H18.4752V21.1564H18.1237V20.5411ZM20.4967 20.5411H20.8483V21.1564H20.4967V20.5411ZM22.8639 20.5411H23.2155V21.1564H22.8639V20.5411ZM41.8014 20.5411H42.153V21.1564H41.8014V20.5411ZM27.5807 20.5411H27.9322V21.1564H27.5807V20.5411ZM29.9713 20.5411H30.3229V21.1564H29.9713V20.5411ZM32.3912 20.5411H32.7428V21.1564H32.3912V20.5411ZM34.6647 20.5411H35.0162V21.1564H34.6647V20.5411ZM37.0846 20.5411H37.4362V21.1564H37.0846V20.5411ZM39.4518 20.5411H39.8033V21.1564H39.4518V20.5411ZM46.4655 20.5411H46.817V21.1564H46.4655V20.5411ZM44.192 20.5411H44.5436V21.1564H44.192V20.5411ZM-3.20447 20.5411H-2.85291V21.1564H-3.20447V20.5411Z" fill="#D90000"/>
<path fill-rule="evenodd" clip-rule="evenodd" d="M1.63538 10.1755H1.98694V10.7907H1.63538V10.1755ZM11.0397 10.1755H11.3912V10.7907H11.0397V10.1755ZM-5.58337 10.1755H-5.23181V10.7907H-5.58337V10.1755ZM-0.807984 10.1755H-0.456421V10.7907H-0.807984V10.1755ZM3.93225 10.1755H4.28381V10.7907H3.93225V10.1755ZM6.276 10.1755H6.62756V10.7907H6.276V10.1755ZM8.67248 10.1755H9.02405V10.7907H8.67248V10.1755ZM13.3834 10.1755H13.735V10.7907H13.3834V10.1755ZM25.278 10.1755H25.6354V10.7907H25.2838L25.278 10.1755ZM15.7799 10.1755H16.1315V10.7907H15.7799V10.1755ZM18.1237 10.1755H18.4752V10.7907H18.1237V10.1755ZM20.4967 10.1755H20.8483V10.7907H20.4967V10.1755ZM22.8639 10.1755H23.2155V10.7907H22.8639V10.1755ZM41.8014 10.1755H42.153V10.7907H41.8014V10.1755ZM27.5807 10.1755H27.9322V10.7907H27.5807V10.1755ZM29.9713 10.1755H30.3229V10.7907H29.9713V10.1755ZM32.3912 10.1755H32.7428V10.7907H32.3912V10.1755ZM34.6647 10.1755H35.0162V10.7907H34.6647V10.1755ZM37.0846 10.1755H37.4362V10.7907H37.0846V10.1755ZM39.4518 10.1755H39.8033V10.7907H39.4518V10.1755ZM46.4655 10.1755H46.817V10.7907H46.4655V10.1755ZM44.192 10.1755H44.5436V10.7907H44.192V10.1755ZM-3.20447 10.1755H-2.85291V10.7907H-3.20447V10.1755Z" fill="#239E3F"/>
<path fill-rule="evenodd" clip-rule="evenodd" d="M22.0612 12.2205C22.5534 12.8299 24.0827 16.1814 21.1413 18.3846C19.7526 19.4275 20.614 19.4744 20.655 19.6502C22.8815 18.4724 23.6022 16.867 23.5847 15.4314C23.573 14.0017 22.8112 12.7361 22.0612 12.2205Z" fill="#DA0000"/>
<path fill-rule="evenodd" clip-rule="evenodd" d="M22.3542 12.0624C22.8978 12.3932 23.3612 12.8406 23.7107 13.3724C24.0602 13.9042 24.2872 14.507 24.3752 15.1373C24.4633 15.7675 24.4102 16.4095 24.2197 17.0167C24.0293 17.6239 23.7063 18.1812 23.2741 18.6483C24.8679 18.2968 26.9069 13.5858 22.3542 12.0624ZM18.9792 12.0624C18.436 12.3937 17.9732 12.8415 17.6242 13.3736C17.2752 13.9056 17.0488 14.5085 16.9613 15.1387C16.8739 15.7689 16.9275 16.4107 17.1184 17.0177C17.3093 17.6246 17.6327 18.1816 18.0651 18.6483C16.4655 18.2968 14.4323 13.5858 18.9792 12.0624Z" fill="#DA0000"/>
<path fill-rule="evenodd" clip-rule="evenodd" d="M19.272 12.2205C18.7799 12.8299 17.2506 16.1814 20.192 18.3846C21.5748 19.4275 20.7193 19.4744 20.6783 19.6502C18.4517 18.4724 17.731 16.867 17.7486 15.4314C17.7603 14.0017 18.522 12.7361 19.272 12.2205Z" fill="#DA0000"/>
<path fill-rule="evenodd" clip-rule="evenodd" d="M23.491 19.3456C22.6179 19.3573 21.5222 19.2284 20.7078 18.8007C20.8425 19.0644 20.9539 19.2284 21.0886 19.4862C21.8621 19.5624 22.9343 19.6503 23.491 19.3456ZM17.9246 19.3456C18.7976 19.3573 19.8933 19.2284 20.7078 18.8007C20.573 19.0644 20.4617 19.2284 20.3269 19.4862C19.5535 19.5624 18.4812 19.6503 17.9246 19.3456ZM19.5242 11.2187C19.7 11.6874 20.1628 11.7577 20.655 11.4823C21.0183 11.6933 21.575 11.7108 21.7683 11.2421C21.9148 12.4023 20.696 12.121 20.655 11.8983C20.198 12.3378 19.3542 12.0858 19.5242 11.2187Z" fill="#DA0000"/>
<path fill-rule="evenodd" clip-rule="evenodd" d="M20.6901 20.078L21.1471 19.5506L21.2115 12.5135L20.6666 12.0331L20.1217 12.4901L20.233 19.5799L20.6901 20.078Z" fill="#DA0000"/>
</g>
<defs>
<clipPath id="clip0_270506_2452">
<rect width="40" height="30" fill="white" transform="translate(0.666626 0.648132)"/>
</clipPath>
</defs>
</svg>
